<svg xmlns="http://www.w3.org/2000/svg" xmlns:xlink="http://www.w3.org/1999/xlink" width="477.088" height="372.276" viewBox="0 0 477.088 372.276"><defs><style>.a{fill:url(#a);}.b{fill:url(#b);}.c{fill:url(#c);}.d{fill:url(#d);}.e{fill:url(#e);}.f{fill:url(#f);}.g{fill:url(#g);}.h{fill:url(#h);}.i{fill:url(#i);}.j{fill:url(#j);}.k{fill:url(#k);}.l{fill:url(#l);}.m{fill:url(#m);}.n{fill:url(#n);}.o{fill:url(#o);}.p{fill:url(#p);}.q{fill:url(#q);}.r{fill:url(#r);}.s{fill:url(#s);}.t{fill:url(#t);}.u{fill:url(#u);}.v{fill:url(#v);}.w{fill:url(#w);}.x{fill:url(#x);}.y{fill:url(#y);}.z{fill:url(#z);}.aa{fill:url(#aa);}.ab{fill:url(#ab);}.ac{fill:url(#ac);}.ad{fill:url(#ad);}.ae{fill:url(#ae);}.af{fill:url(#af);}.ag{fill:url(#ag);}.ah{fill:url(#ah);}.ai{fill:url(#ai);}.aj{fill:url(#aj);}.ak{fill:url(#ak);}.al{fill:url(#al);}.am{fill:url(#am);}.an{fill:url(#an);}.ao{fill:url(#ao);}.ap{fill:url(#ap);}.aq{fill:url(#aq);}.ar{fill:url(#ar);}.as{fill:url(#as);}.at{fill:url(#at);}.au{fill:url(#au);}.av{fill:url(#av);}.aw{fill:url(#aw);}.ax{fill:url(#ax);}.ay{fill:url(#ay);}.az{fill:url(#az);}.ba{fill:url(#ba);}.bb{fill:url(#bb);}.bc{fill:url(#bc);}.bd{fill:url(#bd);}.be{fill:url(#be);}.bf{fill:url(#bf);}.bg{fill:url(#bg);}.bh{fill:url(#bh);}.bi{fill:url(#bi);}.bj{fill:url(#bj);}.bk{fill:url(#bk);}.bl{fill:url(#bl);}.bm{fill:url(#bm);}.bn{fill:url(#bn);}.bo{fill:url(#bo);}.bp{fill:url(#bp);}.bq{fill:url(#bq);}.br{fill:url(#br);}.bs{fill:url(#bs);}.bt{fill:url(#bt);}.bu{fill:url(#bu);}.bv{fill:url(#bv);}.bw{fill:url(#bw);}.bx{fill:url(#bx);}.by{fill:url(#by);}.bz{fill:url(#bz);}.ca{fill:url(#ca);}.cb{fill:url(#cb);}.cc{fill:url(#cc);}.cd{fill:url(#cd);}.ce{fill:url(#ce);}.cf{fill:url(#cf);}.cg{fill:url(#cg);}.ch{fill:url(#ch);}.ci{fill:url(#ci);}.cj{fill:url(#cj);}.ck{fill:url(#ck);}.cl{fill:url(#cl);}.cm{fill:url(#cm);}.cn{fill:url(#cn);}.co{fill:url(#co);}.cp{fill:url(#cp);}.cq{fill:url(#cq);}.cr{fill:url(#cr);}.cs{fill:url(#cs);}.ct{fill:url(#ct);}.cu{fill:url(#cu);}.cv{fill:url(#cv);}.cw{fill:url(#cw);}.cx{fill:url(#cx);}.cy{fill:url(#cy);}.cz{fill:url(#cz);}.da{fill:url(#da);}.db{fill:url(#db);}.dc{fill:url(#dc);}.dd{fill:url(#dd);}.de{fill:url(#de);}.df{fill:url(#df);}.dg{fill:url(#dg);}.dh{fill:url(#dh);}.di{fill:url(#di);}.dj{fill:url(#dj);}.dk{fill:url(#dk);}.dl{fill:url(#dl);}.dm{fill:url(#dm);}.dn{fill:url(#dn);}.do{fill:url(#do);}.dp{fill:url(#dp);}.dq{fill:url(#dq);}.dr{fill:url(#dr);}.ds{fill:url(#ds);}.dt{fill:url(#dt);}.du{fill:url(#du);}.dv{fill:url(#dv);}.dw{fill:url(#dw);}.dx{fill:url(#dx);}.dy{fill:url(#dy);}.dz{fill:url(#dz);}.ea{fill:url(#ea);}.eb{fill:url(#eb);}.ec{fill:url(#ec);}.ed{fill:url(#ed);}.ee{fill:url(#ee);}.ef{fill:url(#ef);}.eg{fill:url(#eg);}.eh{fill:url(#eh);}.ei{fill:url(#ei);}.ej{fill:url(#ej);}.ek{fill:url(#ek);}.el{fill:url(#el);}.em{fill:url(#em);}.en{fill:url(#en);}.eo{fill:url(#eo);}.ep{fill:url(#ep);}.eq{fill:url(#eq);}.er{fill:url(#er);}.es{fill:url(#es);}.et{fill:url(#et);}.eu{fill:url(#eu);}.ev{fill:url(#ev);}.ew{fill:url(#ew);}.ex{fill:url(#ex);}.ey{fill:url(#ey);}.ez{fill:url(#ez);}.fa{fill:url(#fa);}.fb{fill:url(#fb);}.fc{fill:url(#fc);}.fd{fill:url(#fd);}.fe{opacity:0.2;}.ff{fill:url(#fe);}.fg{fill:url(#ff);}.fh{fill:url(#fg);}.fi{fill:url(#fh);}.fj{fill:url(#fi);}.fk{fill:url(#fj);}.fl{fill:url(#fk);}.fm{fill:url(#fl);}.fn{fill:url(#fm);}.fo{fill:url(#fn);}.fp{fill:url(#fo);}.fq{fill:url(#fp);}.fr{fill:url(#fq);}.fs{fill:url(#fr);}.ft{fill:url(#fs);}.fu{fill:url(#ft);}.fv{fill:url(#fu);}.fw{fill:url(#fv);}.fx{fill:url(#fw);}.fy{fill:url(#fx);}.fz{fill:url(#fy);}.ga{fill:url(#fz);}.gb{fill:url(#ga);}.gc{fill:url(#gb);}.gd{fill:url(#gc);}.ge{fill:url(#gd);}.gf{fill:url(#ge);}.gg{fill:url(#gf);}.gh{fill:url(#gg);}.gi{fill:url(#gh);}.gj{fill:url(#gi);}.gk{fill:url(#gj);}.gl{fill:url(#gk);}.gm{fill:url(#gl);}.gn{fill:url(#gm);}.go{fill:url(#gn);}.gp{fill:url(#go);}.gq{fill:url(#gp);}.gr{fill:url(#gq);}.gs{fill:url(#gr);}.gt{fill:url(#gs);}.gu{fill:url(#gt);}.gv{fill:url(#gu);}.gw{fill:url(#gv);}.gx{fill:url(#gw);}.gy{fill:url(#gx);}.gz{fill:url(#gy);}.ha{fill:url(#gz);}.hb{fill:url(#ha);}.hc{fill:url(#hb);}.hd{fill:url(#hc);}.he{fill:url(#hd);}.hf{fill:url(#he);}.hg{fill:url(#hf);}.hh{fill:url(#hg);}.hi{fill:url(#hh);}.hj{fill:url(#hi);}.hk{fill:url(#hj);}.hl{fill:url(#hk);}.hm{fill:url(#hl);}.hn{fill:url(#hm);}.ho{fill:url(#hn);}.hp{fill:url(#ho);}.hq{fill:url(#hp);}.hr{fill:url(#hq);}.hs{fill:url(#hr);}.ht{fill:url(#hs);}.hu{fill:url(#ht);}.hv{fill:url(#hu);}.hw{fill:url(#hv);}.hx{fill:url(#hw);}.hy{fill:url(#hx);}.hz{fill:url(#hy);}.ia{fill:url(#hz);}.ib{fill:url(#ia);}.ic{fill:url(#ib);}.id{fill:url(#ic);}.ie{fill:url(#id);}.if{fill:url(#ie);}.ig{fill:url(#if);}.ih{fill:url(#ig);}.ii{fill:url(#ih);}.ij{fill:url(#ii);}.ik{fill:url(#ij);}.il{fill:url(#ik);}.im{fill:url(#il);}.in{fill:url(#im);}.io{fill:url(#in);}.ip{fill:url(#io);}.iq{fill:url(#ip);}.ir{fill:url(#iq);}.is{fill:url(#ir);}.it{fill:url(#is);}.iu{fill:url(#it);}.iv{fill:url(#iu);}.iw{fill:url(#iv);}.ix{fill:url(#iw);}.iy{fill:url(#ix);}.iz{fill:url(#iy);}.ja{fill:url(#iz);}.jb{fill:url(#ja);}.jc{fill:url(#jb);}.jd{fill:url(#jc);}.je{fill:url(#jd);}.jf{fill:url(#je);}.jg{fill:url(#jf);}.jh{fill:url(#jg);}.ji{fill:url(#jh);}.jj{fill:url(#ji);}.jk{fill:url(#jj);}.jl{fill:url(#jk);}.jm{fill:url(#jl);}.jn{fill:url(#jm);}.jo{fill:url(#jn);}.jp{fill:url(#jo);}.jq{fill:url(#jp);}</style><linearGradient id="a" x1="-3.315" y1="3.38" x2="-0.007" y2="0.882" gradientUnits="objectBoundingBox"><stop offset="0" stop-color="#d14155"/><stop offset="1" stop-color="#ee724a"/></linearGradient><linearGradient id="b" x1="-3.881" y1="3.807" x2="-0.574" y2="1.31" xlink:href="#a"/><linearGradient id="c" x1="-4.447" y1="4.235" x2="-1.14" y2="1.737" xlink:href="#a"/><linearGradient id="d" x1="-5.013" y1="4.662" x2="-1.706" y2="2.165" xlink:href="#a"/><linearGradient id="e" x1="-8.994" y1="5.062" x2="-3.686" y2="2.565" xlink:href="#a"/><linearGradient id="f" x1="-0.34" y1="1.133" x2="2.968" y2="-1.364" xlink:href="#a"/><linearGradient id="g" x1="-3.17" y1="3.271" x2="0.137" y2="0.773" xlink:href="#a"/><linearGradient id="h" x1="-3.737" y1="3.698" x2="-0.429" y2="1.201" xlink:href="#a"/><linearGradient id="i" x1="-4.303" y1="4.126" x2="-0.995" y2="1.628" xlink:href="#a"/><linearGradient id="j" x1="-4.869" y1="4.553" x2="-1.561" y2="2.056" xlink:href="#a"/><linearGradient id="k" x1="-44.383" y1="7.404" x2="-18.19" y2="3.404" xlink:href="#a"/><linearGradient id="l" x1="-3.592" y1="3.589" x2="-0.285" y2="1.092" xlink:href="#a"/><linearGradient id="m" x1="-4.158" y1="4.017" x2="-0.851" y2="1.519" xlink:href="#a"/><linearGradient id="n" x1="-7.622" y1="4.417" x2="-2.315" y2="1.919" xlink:href="#a"/><linearGradient id="o" x1="-3.448" y1="3.48" x2="-0.14" y2="0.983" xlink:href="#a"/><linearGradient id="p" x1="-4.014" y1="3.908" x2="-0.706" y2="1.41" xlink:href="#a"/><linearGradient id="q" x1="-37.612" y1="6.37" x2="-11.419" y2="2.37" xlink:href="#a"/><linearGradient id="r" x1="0.66" y1="0.379" x2="3.967" y2="-2.118" xlink:href="#a"/><linearGradient id="s" x1="-3.303" y1="3.371" x2="0.004" y2="0.874" xlink:href="#a"/><linearGradient id="t" x1="-6.25" y1="3.771" x2="-0.943" y2="1.274" xlink:href="#a"/><linearGradient id="u" x1="1.37" y1="-0.158" x2="4.678" y2="-2.655" xlink:href="#a"/><linearGradient id="v" x1="0.804" y1="0.27" x2="4.112" y2="-2.228" xlink:href="#a"/><linearGradient id="w" x1="0.238" y1="0.697" x2="3.545" y2="-1.8" xlink:href="#a"/><linearGradient id="x" x1="-0.328" y1="1.125" x2="2.979" y2="-1.373" xlink:href="#a"/><linearGradient id="y" x1="-30.842" y1="5.336" x2="-4.648" y2="1.336" xlink:href="#a"/><linearGradient id="z" x1="1.515" y1="-0.267" x2="4.822" y2="-2.764" xlink:href="#a"/><linearGradient id="aa" x1="0.948" y1="0.161" x2="4.256" y2="-2.337" xlink:href="#a"/><linearGradient id="ab" x1="0.382" y1="0.588" x2="3.69" y2="-1.909" xlink:href="#a"/><linearGradient id="ac" x1="2.16" y1="-1.624" x2="5.461" y2="-6.313" xlink:href="#a"/><linearGradient id="ad" x1="1.595" y1="-0.822" x2="4.896" y2="-5.51" xlink:href="#a"/><linearGradient id="ae" x1="1.03" y1="-0.019" x2="4.331" y2="-4.708" xlink:href="#a"/><linearGradient id="af" x1="0.465" y1="0.783" x2="3.766" y2="-3.905" xlink:href="#a"/><linearGradient id="ag" x1="-1.794" y1="3.994" x2="1.506" y2="-0.695" xlink:href="#a"/><linearGradient id="ah" x1="-2.359" y1="4.796" x2="0.941" y2="0.107" xlink:href="#a"/><linearGradient id="ai" x1="-3.377" y1="5.332" x2="-0.871" y2="2.069" xlink:href="#a"/><linearGradient id="aj" x1="-3.937" y1="6.059" x2="-1.43" y2="2.797" xlink:href="#a"/><linearGradient id="ak" x1="-6.16" y1="6.754" x2="-2.741" y2="3.491" xlink:href="#a"/><linearGradient id="al" x1="-3.284" y1="3.354" x2="-0.777" y2="1.463" xlink:href="#a"/><linearGradient id="am" x1="-3.843" y1="3.775" x2="-1.337" y2="1.885" xlink:href="#a"/><linearGradient id="an" x1="-18.701" y1="5.298" x2="-8.357" y2="2.756" xlink:href="#a"/><linearGradient id="ao" x1="-3.141" y1="3.246" x2="-0.635" y2="1.356" xlink:href="#a"/><linearGradient id="ap" x1="-5.074" y1="3.648" x2="-1.655" y2="1.758" xlink:href="#a"/><linearGradient id="aq" x1="1.169" y1="0.25" x2="11.318" y2="-2.283" xlink:href="#a"/><linearGradient id="ar" x1="0.356" y1="0.608" x2="2.862" y2="-1.282" xlink:href="#a"/><linearGradient id="as" x1="-0.203" y1="1.03" x2="2.303" y2="-0.861" xlink:href="#a"/><linearGradient id="at" x1="-15.216" y1="4.457" x2="-4.873" y2="1.906" xlink:href="#a"/><linearGradient id="au" x1="1.104" y1="0.098" x2="4.495" y2="-1.793" xlink:href="#a"/><linearGradient id="av" x1="0.499" y1="0.501" x2="3.005" y2="-1.39" xlink:href="#a"/><linearGradient id="aw" x1="-0.06" y1="0.922" x2="2.446" y2="-0.968" xlink:href="#a"/><linearGradient id="ax" x1="4.588" y1="-0.604" x2="14.738" y2="-3.137" xlink:href="#a"/><linearGradient id="ay" x1="1.2" y1="-0.029" x2="3.706" y2="-1.919" xlink:href="#a"/><linearGradient id="az" x1="0.641" y1="0.393" x2="3.147" y2="-1.498" xlink:href="#a"/><linearGradient id="ba" x1="-2.154" y1="2.502" x2="0.352" y2="0.611" xlink:href="#a"/><linearGradient id="bb" x1="8.928" y1="-12.266" x2="21.231" y2="-30.898" xlink:href="#a"/><linearGradient id="bc" x1="2.247" y1="-0.558" x2="5.637" y2="-2.517" xlink:href="#a"/><linearGradient id="bd" x1="1.343" y1="-0.141" x2="3.849" y2="-2.097" xlink:href="#a"/><linearGradient id="be" x1="0.784" y1="0.295" x2="3.29" y2="-1.661" xlink:href="#a"/><linearGradient id="bf" x1="-1.452" y1="2.04" x2="1.054" y2="0.085" xlink:href="#a"/><linearGradient id="bg" x1="-2.817" y1="2.422" x2="0.602" y2="0.466" xlink:href="#a"/><linearGradient id="bh" x1="-11.274" y1="18.484" x2="1.315" y2="-0.651" xlink:href="#a"/><linearGradient id="bi" x1="8.928" y1="-12.267" x2="21.231" y2="-30.899" xlink:href="#a"/><linearGradient id="bj" x1="2.018" y1="-3.591" x2="4.756" y2="-11.872" xlink:href="#a"/><linearGradient id="bk" x1="1.407" y1="-1.744" x2="4.145" y2="-10.024" xlink:href="#a"/><linearGradient id="bl" x1="0.796" y1="0.103" x2="3.535" y2="-8.177" xlink:href="#a"/><linearGradient id="bm" x1="0.185" y1="1.951" x2="2.924" y2="-6.33" xlink:href="#a"/><linearGradient id="bn" x1="-0.426" y1="3.798" x2="2.313" y2="-4.483" xlink:href="#a"/><linearGradient id="bo" x1="-1.033" y1="5.645" x2="1.701" y2="-2.636" xlink:href="#a"/><linearGradient id="bp" x1="-1.648" y1="7.492" x2="1.091" y2="-0.788" xlink:href="#a"/><linearGradient id="bq" x1="-11.278" y1="18.239" x2="1.311" y2="-0.641" xlink:href="#a"/><linearGradient id="br" x1="-16.741" y1="15.563" x2="28.37" y2="-23.771" xlink:href="#a"/><linearGradient id="bs" x1="-288.593" y1="252.563" x2="-17.93" y2="16.564" xlink:href="#a"/><linearGradient id="bt" x1="-26.029" y1="23.63" x2="-2.146" y2="2.806" xlink:href="#a"/><linearGradient id="bu" x1="-39.119" y1="35.032" x2="-0.452" y2="1.317" xlink:href="#a"/><linearGradient id="bv" x1="-45.115" y1="40.257" x2="-2.378" y2="2.993" xlink:href="#a"/><linearGradient id="bw" x1="-100.162" y1="88.239" x2="-18.962" y2="17.438" xlink:href="#a"/><linearGradient id="bx" x1="-54.279" y1="48.268" x2="-11.542" y2="11.005" xlink:href="#a"/><linearGradient id="by" x1="-28.054" y1="25.392" x2="-4.172" y2="4.569" xlink:href="#a"/><linearGradient id="bz" x1="-81.319" y1="71.826" x2="-23.318" y2="21.255" xlink:href="#a"/><linearGradient id="ca" x1="-44.839" y1="40.068" x2="-13.643" y2="12.838" xlink:href="#a"/><linearGradient id="cb" x1="-34.193" y1="30.735" x2="-8.818" y2="8.61" xlink:href="#a"/><linearGradient id="cc" x1="-79.768" y1="68.379" x2="-29.018" y2="25.47" xlink:href="#a"/><linearGradient id="cd" x1="-68.92" y1="61.024" x2="-26.183" y2="23.761" xlink:href="#a"/><linearGradient id="ce" x1="-88.716" y1="78.265" x2="-30.715" y2="27.693" xlink:href="#a"/><linearGradient id="cf" x1="-108.973" y1="95.995" x2="-46.51" y2="41.533" xlink:href="#a"/><linearGradient id="cg" x1="-72.391" y1="64.057" x2="-31.791" y2="28.657" xlink:href="#a"/><linearGradient id="ch" x1="-59.841" y1="53.104" x2="-24.537" y2="22.321" xlink:href="#a"/><linearGradient id="ci" x1="-81.735" y1="72.191" x2="-38.998" y2="34.927" xlink:href="#a"/><linearGradient id="cj" x1="-5.566" y1="5.774" x2="30.523" y2="-25.693" xlink:href="#a"/><linearGradient id="ck" x1="-6.753" y1="6.835" x2="51.247" y2="-43.736" xlink:href="#a"/><linearGradient id="cl" x1="-15.091" y1="14.086" x2="58.727" y2="-50.277" xlink:href="#a"/><linearGradient id="cm" x1="-7.868" y1="7.785" x2="16.738" y2="-13.669" xlink:href="#a"/><linearGradient id="cn" x1="-8.085" y1="7.996" x2="20.915" y2="-17.29" xlink:href="#a"/><linearGradient id="co" x1="-30.143" y1="27.216" x2="1.087" y2="-0.015" xlink:href="#a"/><linearGradient id="cp" x1="-76.85" y1="67.926" x2="-14.387" y2="13.465" xlink:href="#a"/><linearGradient id="cq" x1="-38.482" y1="34.491" x2="-4.648" y2="4.991" xlink:href="#a"/><linearGradient id="cr" x1="-64.183" y1="56.901" x2="-10.05" y2="9.701" xlink:href="#a"/><linearGradient id="cs" x1="-31.288" y1="28.215" x2="-8.732" y2="8.548" xlink:href="#a"/><linearGradient id="ct" x1="-47.026" y1="41.96" x2="-16.952" y2="15.738" xlink:href="#a"/><linearGradient id="cu" x1="-47.497" y1="42.341" x2="-16.266" y2="15.11" xlink:href="#a"/><linearGradient id="cv" x1="-38.637" y1="34.634" x2="-12.443" y2="11.795" xlink:href="#a"/><linearGradient id="cw" x1="-50.256" y1="44.789" x2="-21.284" y2="19.504" xlink:href="#a"/><linearGradient id="cx" x1="-41.071" y1="36.672" x2="-0.471" y2="1.339" xlink:href="#a"/><linearGradient id="cy" x1="-66.65" y1="59.061" x2="-15.9" y2="14.811" xlink:href="#a"/><linearGradient id="cz" x1="-61.116" y1="54.233" x2="-16.005" y2="14.899" xlink:href="#a"/><linearGradient id="da" x1="-70.832" y1="62.696" x2="-23.067" y2="21.049" xlink:href="#a"/><linearGradient id="db" x1="-50.716" y1="45.157" x2="-15.412" y2="14.374" xlink:href="#a"/><linearGradient id="dc" x1="-60.981" y1="54.107" x2="-24.071" y2="21.925" xlink:href="#a"/><linearGradient id="dd" x1="3.334" y1="-1.976" x2="34.564" y2="-29.206" xlink:href="#a"/><linearGradient id="de" x1="54.679" y1="-46.791" x2="460.68" y2="-400.796" xlink:href="#a"/><linearGradient id="df" x1="2.328" y1="-1.087" x2="40.995" y2="-34.801" xlink:href="#a"/><linearGradient id="dg" x1="-3.181" y1="3.703" x2="41.93" y2="-35.631" xlink:href="#a"/><linearGradient id="dh" x1="-3.573" y1="4.05" x2="47.177" y2="-40.2" xlink:href="#a"/><linearGradient id="di" x1="-34.126" y1="30.683" x2="-2.895" y2="3.452" xlink:href="#a"/><linearGradient id="dj" x1="-34.11" y1="30.684" x2="-4.036" y2="4.462" xlink:href="#a"/><linearGradient id="dk" x1="-55.699" y1="49.495" x2="-4.949" y2="5.245" xlink:href="#a"/><linearGradient id="dl" x1="-40.667" y1="36.391" x2="-2" y2="2.677" xlink:href="#a"/><linearGradient id="dm" x1="-44.679" y1="39.888" x2="-9.375" y2="9.106" xlink:href="#a"/><linearGradient id="dn" x1="-30.854" y1="27.84" x2="-5.479" y2="5.715" xlink:href="#a"/><linearGradient id="do" x1="-57.168" y1="50.784" x2="-12.057" y2="11.45" xlink:href="#a"/><linearGradient id="dp" x1="-33.04" y1="29.755" x2="-7.665" y2="7.63" xlink:href="#a"/><linearGradient id="dq" x1="-75.678" y1="66.905" x2="-21.545" y2="19.705" xlink:href="#a"/><linearGradient id="dr" x1="-0.483" y1="1.358" x2="25.71" y2="-21.48" xlink:href="#a"/><linearGradient id="ds" x1="0.678" y1="0.354" x2="30.752" y2="-25.868" xlink:href="#a"/><linearGradient id="dt" x1="-9.81" y1="9.519" x2="52.651" y2="-44.942" xlink:href="#a"/><linearGradient id="du" x1="-6.53" y1="6.623" x2="27.303" y2="-22.877" xlink:href="#a"/><linearGradient id="dv" x1="-10.87" y1="10.435" x2="22.964" y2="-19.065" xlink:href="#a"/><linearGradient id="dw" x1="-10.484" y1="10.094" x2="18.516" y2="-15.191" xlink:href="#a"/><linearGradient id="dx" x1="18.223" y1="-14.946" x2="68.973" y2="-59.196" xlink:href="#a"/><linearGradient id="dy" x1="24.981" y1="-20.835" x2="87.443" y2="-75.296" xlink:href="#a"/><linearGradient id="dz" x1="41.882" y1="-35.599" x2="177.215" y2="-153.597" xlink:href="#a"/><linearGradient id="ea" x1="6.246" y1="-4.505" x2="38.726" y2="-32.825" xlink:href="#a"/><linearGradient id="eb" x1="9.24" y1="-7.106" x2="48.85" y2="-41.642" xlink:href="#a"/><linearGradient id="ec" x1="8.318" y1="-6.315" x2="66.318" y2="-56.887" xlink:href="#a"/><linearGradient id="ed" x1="-1.99" y1="2.648" x2="65.676" y2="-56.352" xlink:href="#a"/><linearGradient id="ee" x1="0.81" y1="0.249" x2="43.547" y2="-37.014" xlink:href="#a"/><linearGradient id="ef" x1="1.932" y1="-0.749" x2="30.932" y2="-26.035" xlink:href="#a"/><linearGradient id="eg" x1="-7.42" y1="7.413" x2="19.647" y2="-16.187" xlink:href="#a"/><linearGradient id="eh" x1="-45.453" y1="40.577" x2="8.681" y2="-6.623" xlink:href="#a"/><linearGradient id="ei" x1="-45.568" y1="40.676" x2="-0.457" y2="1.342" xlink:href="#a"/><linearGradient id="ej" x1="-24.894" y1="22.658" x2="-1.012" y2="1.835" xlink:href="#a"/><linearGradient id="ek" x1="-50.451" y1="44.939" x2="-7.714" y2="7.676" xlink:href="#a"/><linearGradient id="el" x1="-35.312" y1="31.717" x2="-6.312" y2="6.431" xlink:href="#a"/><linearGradient id="em" x1="-24.71" y1="22.481" x2="-2.764" y2="3.346" xlink:href="#a"/><linearGradient id="en" x1="8.118" y1="-6.129" x2="50.854" y2="-43.392" xlink:href="#a"/><linearGradient id="eo" x1="7.657" y1="-5.74" x2="34.723" y2="-29.34" xlink:href="#a"/><linearGradient id="ep" x1="-2.586" y1="3.194" x2="22.789" y2="-18.931" xlink:href="#a"/><linearGradient id="eq" x1="-10.62" y1="10.202" x2="57.047" y2="-48.798" xlink:href="#a"/><linearGradient id="er" x1="-3.746" y1="4.19" x2="31.558" y2="-26.593" xlink:href="#a"/><linearGradient id="es" x1="-1.263" y1="2.032" x2="21.292" y2="-17.634" xlink:href="#a"/><linearGradient id="et" x1="-30.466" y1="27.495" x2="10.134" y2="-7.905" xlink:href="#a"/><linearGradient id="eu" x1="-31.35" y1="28.263" x2="-0.12" y2="1.033" xlink:href="#a"/><linearGradient id="ev" x1="-28.66" y1="25.926" x2="2.57" y2="-1.305" xlink:href="#a"/><linearGradient id="ew" x1="92.138" y1="-79.372" x2="254.538" y2="-220.972" xlink:href="#a"/><linearGradient id="ex" x1="24.07" y1="-20.059" x2="78.203" y2="-67.259" xlink:href="#a"/><linearGradient id="ey" x1="8.689" y1="-6.633" x2="29.509" y2="-24.787" xlink:href="#a"/><linearGradient id="ez" x1="8.001" y1="-6.062" x2="41.834" y2="-35.562" xlink:href="#a"/><linearGradient id="fa" x1="3.31" y1="-1.945" x2="33.384" y2="-28.167" xlink:href="#a"/><linearGradient id="fb" x1="1.828" y1="-0.655" x2="28.022" y2="-23.494" xlink:href="#a"/><linearGradient id="fc" x1="-24.008" y1="21.878" x2="14.659" y2="-11.837" xlink:href="#a"/><linearGradient id="fd" x1="-27.914" y1="25.288" x2="7.391" y2="-5.495" xlink:href="#a"/><linearGradient id="fe" x1="-13.239" y1="2.135" x2="23.67" y2="-2.222" xlink:href="#a"/><linearGradient id="ff" x1="-3.084" y1="4.281" x2="-0.377" y2="1.288" xlink:href="#a"/><linearGradient id="fg" x1="-3.649" y1="4.907" x2="-0.943" y2="1.913" xlink:href="#a"/><linearGradient id="fh" x1="-4.215" y1="5.532" x2="-1.508" y2="2.538" xlink:href="#a"/><linearGradient id="fi" x1="-5.882" y1="6.138" x2="-2.561" y2="3.144" xlink:href="#a"/><linearGradient id="fj" x1="-3.524" y1="3.543" x2="-0.817" y2="1.496" xlink:href="#a"/><linearGradient id="fk" x1="-4.089" y1="3.97" x2="-1.383" y2="1.924" xlink:href="#a"/><linearGradient id="fl" x1="-14.943" y1="5.141" x2="-6.44" y2="2.639" xlink:href="#a"/><linearGradient id="fm" x1="-3.38" y1="3.433" x2="-0.673" y2="1.387" xlink:href="#a"/><linearGradient id="fn" x1="-4.847" y1="3.848" x2="-1.533" y2="1.801" xlink:href="#a"/><linearGradient id="fo" x1="0.569" y1="0.363" x2="5.317" y2="-1.683" xlink:href="#a"/><linearGradient id="fp" x1="-3.235" y1="3.324" x2="-0.529" y2="1.278" xlink:href="#a"/><linearGradient id="fq" x1="-12.26" y1="4.351" x2="-3.758" y2="1.85" xlink:href="#a"/><linearGradient id="fr" x1="9.453" y1="-0.402" x2="46.362" y2="-3.987" xlink:href="#a"/><linearGradient id="fs" x1="0.867" y1="0.223" x2="3.574" y2="-1.823" xlink:href="#a"/><linearGradient id="ft" x1="0.302" y1="0.65" x2="3.008" y2="-1.396" xlink:href="#a"/><linearGradient id="fu" x1="-0.264" y1="1.078" x2="2.443" y2="-0.968" xlink:href="#a"/><linearGradient id="fv" x1="2.067" y1="-0.282" x2="6.815" y2="-2.329" xlink:href="#a"/><linearGradient id="fw" x1="1.011" y1="0.114" x2="3.718" y2="-1.932" xlink:href="#a"/><linearGradient id="fx" x1="0.446" y1="0.541" x2="3.153" y2="-1.505" xlink:href="#a"/><linearGradient id="fy" x1="21.098" y1="-1.534" x2="58.007" y2="-5.118" xlink:href="#a"/><linearGradient id="fz" x1="1.721" y1="-0.423" x2="4.428" y2="-2.469" xlink:href="#a"/><linearGradient id="ga" x1="1.156" y1="0.005" x2="3.862" y2="-2.041" xlink:href="#a"/><linearGradient id="gb" x1="0.59" y1="0.432" x2="3.297" y2="-1.614" xlink:href="#a"/><linearGradient id="gc" x1="-1.672" y1="2.142" x2="1.035" y2="0.096" xlink:href="#a"/><linearGradient id="gd" x1="-2.756" y1="2.556" x2="0.558" y2="0.51" xlink:href="#a"/><linearGradient id="ge" x1="3.387" y1="-2.588" x2="8.136" y2="-7.738" xlink:href="#a"/><linearGradient id="gf" x1="1.764" y1="-1.591" x2="4.471" y2="-6.74" xlink:href="#a"/><linearGradient id="gg" x1="1.199" y1="-0.516" x2="3.905" y2="-5.665" xlink:href="#a"/><linearGradient id="gh" x1="0.633" y1="0.56" x2="3.34" y2="-4.589" xlink:href="#a"/><linearGradient id="gi" x1="-1.629" y1="4.863" x2="1.078" y2="-0.286" xlink:href="#a"/><linearGradient id="gj" x1="-7.568" y1="6.739" x2="0.935" y2="0.028" xlink:href="#a"/><linearGradient id="gk" x1="-3.058" y1="4.484" x2="-1.007" y2="2.075" xlink:href="#a"/><linearGradient id="gl" x1="-7.268" y1="5.083" x2="-3.187" y2="2.675" xlink:href="#a"/><linearGradient id="gm" x1="-6.07" y1="0.977" x2="30.019" y2="-1.799" xlink:href="#a"/><linearGradient id="gn" x1="-0.156" y1="0.995" x2="1.897" y2="-0.555" xlink:href="#a"/><linearGradient id="go" x1="-327.002" y1="6.009" x2="-146.558" y2="2.977" xlink:href="#a"/><linearGradient id="gp" x1="0.23" y1="0.498" x2="3.972" y2="-1.051" xlink:href="#a"/><linearGradient id="gq" x1="-0.013" y1="0.887" x2="2.04" y2="-0.662" xlink:href="#a"/><linearGradient id="gr" x1="8.768" y1="-0.164" x2="44.857" y2="-2.941" xlink:href="#a"/><linearGradient id="gs" x1="0.688" y1="0.358" x2="2.742" y2="-1.192" xlink:href="#a"/><linearGradient id="gt" x1="-2.118" y1="2.466" x2="-0.054" y2="0.917" xlink:href="#a"/><linearGradient id="gu" x1="1.769" y1="-0.139" x2="5.511" y2="-1.688" xlink:href="#a"/><linearGradient id="gv" x1="0.831" y1="0.25" x2="2.884" y2="-1.299" xlink:href="#a"/><linearGradient id="gw" x1="-1.405" y1="1.937" x2="0.648" y2="0.388" xlink:href="#a"/><linearGradient id="gx" x1="-3.975" y1="2.323" x2="0.105" y2="0.774" xlink:href="#a"/><linearGradient id="gy" x1="23.312" y1="-1.585" x2="59.401" y2="-4.878" xlink:href="#a"/><linearGradient id="gz" x1="1.516" y1="-0.429" x2="3.569" y2="-2.673" xlink:href="#a"/><linearGradient id="ha" x1="0.957" y1="0.182" x2="3.01" y2="-2.062" xlink:href="#a"/><linearGradient id="hb" x1="0.398" y1="0.793" x2="2.451" y2="-1.451" xlink:href="#a"/><linearGradient id="hc" x1="-0.161" y1="1.404" x2="1.892" y2="-0.84" xlink:href="#a"/><linearGradient id="hd" x1="-0.718" y1="2.015" x2="1.332" y2="-0.229" xlink:href="#a"/><linearGradient id="he" x1="-1.287" y1="2.624" x2="0.777" y2="0.38" xlink:href="#a"/><linearGradient id="hf" x1="-180.232" y1="3.983" x2="0.212" y2="0.512" xlink:href="#a"/><linearGradient id="hg" x1="-7.581" y1="7.561" x2="16.302" y2="-13.263" xlink:href="#a"/><linearGradient id="hh" x1="-30.254" y1="27.313" x2="-4.061" y2="4.475" xlink:href="#a"/><linearGradient id="hi" x1="-36.93" y1="33.154" x2="-9.864" y2="9.554" xlink:href="#a"/><linearGradient id="hj" x1="-60.828" y1="53.976" x2="-18.091" y2="16.713" xlink:href="#a"/><linearGradient id="hk" x1="-46.509" y1="41.496" x2="-21.134" y2="19.371" xlink:href="#a"/><linearGradient id="hl" x1="-37.986" y1="34.051" x2="-16.618" y2="15.42" xlink:href="#a"/><linearGradient id="hm" x1="-39.328" y1="35.226" x2="-6.848" y2="6.906" xlink:href="#a"/><linearGradient id="hn" x1="-64.147" y1="56.852" x2="-23.547" y2="21.452" xlink:href="#a"/><linearGradient id="ho" x1="-63.06" y1="55.927" x2="-24.394" y2="22.213" xlink:href="#a"/><linearGradient id="hp" x1="-50.175" y1="44.69" x2="-21.175" y2="19.404" xlink:href="#a"/><linearGradient id="hq" x1="-2.543" y1="3.167" x2="38.056" y2="-32.234" xlink:href="#a"/><linearGradient id="hr" x1="-33.245" y1="29.922" x2="-7.87" y2="7.797" xlink:href="#a"/><linearGradient id="hs" x1="-33.505" y1="30.149" x2="-8.899" y2="8.694" xlink:href="#a"/><linearGradient id="ht" x1="-53.429" y1="47.539" x2="-12.829" y2="12.139" xlink:href="#a"/><linearGradient id="hu" x1="-39.375" y1="35.264" x2="-8.145" y2="8.033" xlink:href="#a"/><linearGradient id="hv" x1="-44.12" y1="39.407" x2="-15.121" y2="14.121" xlink:href="#a"/><linearGradient id="hw" x1="-29.657" y1="26.794" x2="-9.357" y2="9.094" xlink:href="#a"/><linearGradient id="hx" x1="-56.232" y1="49.963" x2="-19.323" y2="17.781" xlink:href="#a"/><linearGradient id="hy" x1="-32.62" y1="29.38" x2="-11.8" y2="11.226" xlink:href="#a"/><linearGradient id="hz" x1="0.012" y1="0.932" x2="21.38" y2="-17.7" xlink:href="#a"/><linearGradient id="ia" x1="1.266" y1="-0.179" x2="26.641" y2="-22.304" xlink:href="#a"/><linearGradient id="ib" x1="-9.201" y1="8.917" x2="44.932" y2="-38.134" xlink:href="#a"/><linearGradient id="ic" x1="-5.745" y1="5.936" x2="21.322" y2="-17.664" xlink:href="#a"/><linearGradient id="id" x1="-10.347" y1="9.968" x2="17.653" y2="-14.446" xlink:href="#a"/><linearGradient id="ie" x1="-9.996" y1="9.647" x2="13.886" y2="-11.176" xlink:href="#a"/><linearGradient id="if" x1="10.005" y1="-7.772" x2="42.485" y2="-36.092" xlink:href="#a"/><linearGradient id="ig" x1="9.426" y1="-7.307" x2="57.19" y2="-48.955" xlink:href="#a"/><linearGradient id="ih" x1="-0.771" y1="1.585" x2="57.229" y2="-48.987" xlink:href="#a"/><linearGradient id="ii" x1="1.553" y1="-0.436" x2="35.386" y2="-29.936" xlink:href="#a"/><linearGradient id="ij" x1="2.488" y1="-1.232" x2="26.37" y2="-22.055" xlink:href="#a"/><linearGradient id="ik" x1="-6.837" y1="6.904" x2="15.109" y2="-12.231" xlink:href="#a"/><linearGradient id="il" x1="-45.093" y1="40.367" x2="-0.077" y2="1.034" xlink:href="#a"/><linearGradient id="im" x1="-44.645" y1="39.874" x2="-7.736" y2="7.692" xlink:href="#a"/><linearGradient id="in" x1="-24.155" y1="21.992" x2="-4.822" y2="5.134" xlink:href="#a"/><linearGradient id="io" x1="-50.053" y1="44.593" x2="-14.749" y2="13.81" xlink:href="#a"/><linearGradient id="ip" x1="8.992" y1="-6.907" x2="44.296" y2="-37.69" xlink:href="#a"/><linearGradient id="iq" x1="8.087" y1="-6.119" x2="30.033" y2="-25.254" xlink:href="#a"/><linearGradient id="ir" x1="-2.114" y1="2.783" x2="18.707" y2="-15.371" xlink:href="#a"/><linearGradient id="is" x1="-9.768" y1="9.462" x2="48.232" y2="-41.11" xlink:href="#a"/><linearGradient id="it" x1="-2.972" y1="3.528" x2="25.028" y2="-20.885" xlink:href="#a"/><linearGradient id="iu" x1="-0.826" y1="1.657" x2="17.628" y2="-14.434" xlink:href="#a"/><linearGradient id="iv" x1="-28.98" y1="26.201" x2="3.5" y2="-2.119" xlink:href="#a"/><linearGradient id="iw" x1="-30.498" y1="27.532" x2="-5.123" y2="5.407" xlink:href="#a"/><linearGradient id="ix" x1="-27.808" y1="25.217" x2="-2.452" y2="3.092" xlink:href="#a"/><linearGradient id="iy" x1="9.616" y1="-6.974" x2="27.798" y2="-21.83" xlink:href="#a"/><linearGradient id="iz" x1="22" y1="-18.24" x2="60.667" y2="-51.954" xlink:href="#a"/><linearGradient id="ja" x1="8.397" y1="-6.379" x2="28.202" y2="-23.648" xlink:href="#a"/><linearGradient id="jb" x1="8.72" y1="-6.672" x2="36.72" y2="-31.086" xlink:href="#a"/><linearGradient id="jc" x1="3.869" y1="-2.424" x2="28.475" y2="-23.879" xlink:href="#a"/><linearGradient id="jd" x1="2.361" y1="-1.124" x2="24.307" y2="-20.259" xlink:href="#a"/><linearGradient id="je" x1="4.377" y1="-2.887" x2="32.377" y2="-27.301" xlink:href="#a"/><linearGradient id="jf" x1="0.007" y1="0.928" x2="26.201" y2="-21.911" xlink:href="#a"/><linearGradient id="jg" x1="-22.953" y1="20.944" x2="8.278" y2="-6.286" xlink:href="#a"/><linearGradient id="jh" x1="-27.333" y1="24.767" x2="1.667" y2="-0.519" xlink:href="#a"/><linearGradient id="ji" x1="33.421" y1="-28.164" x2="87.555" y2="-75.364" xlink:href="#a"/><linearGradient id="jj" x1="7.73" y1="-5.811" x2="28.55" y2="-23.965" xlink:href="#a"/><linearGradient id="jk" x1="9.574" y1="-7.42" x2="57.339" y2="-49.067" xlink:href="#a"/><linearGradient id="jl" x1="-2.005" y1="2.682" x2="33.3" y2="-28.1" xlink:href="#a"/><linearGradient id="jm" x1="-17.583" y1="16.258" x2="10.418" y2="-8.156" xlink:href="#a"/><linearGradient id="jn" x1="-34.888" y1="31.37" x2="15.862" y2="-12.88" xlink:href="#a"/><linearGradient id="jo" x1="-22.631" y1="20.664" x2="4.436" y2="-2.936" xlink:href="#a"/><linearGradient id="jp" x1="-20.508" y1="18.838" x2="2.677" y2="-1.391" xlink:href="#a"/></defs><g transform="translate(0 0)"><g transform="translate(0 0)"><g transform="translate(0 0)"><g transform="translate(30.512 45.408)"><g transform="translate(220.283 0)"><path class="a" d="M14.9,60.5h0L-9.6,46.3V18h.1L14.9,3.8H15L39.5,18V46.4h-.1ZM-9.4,46.2,15,60.3,39.4,46.2V18.1L14.9,4-9.4,18.1Z" transform="translate(9.6 -3.8)"/></g><g transform="translate(269.213 0)"><path class="b" d="M14.9,60.5h0L-9.6,46.3V18h.1L14.9,3.8H15L39.5,18V46.4h-.1ZM-9.4,46.2,15,60.3,39.4,46.2V18.1L14.9,4-9.4,18.1Z" transform="translate(9.6 -3.8)"/></g><g transform="translate(318.142 0)"><path class="c" d="M14.9,60.5h0L-9.6,46.3V18h.1L14.9,3.8H15L39.5,18V46.4h-.1ZM-9.4,46.2,15,60.3,39.4,46.2V18.1L14.9,4-9.4,18.1Z" transform="translate(9.6 -3.8)"/></g><g transform="translate(367.071 0)"><path class="d" d="M14.9,60.5h0L-9.6,46.3V18h.1L14.9,3.8H15L39.5,18V46.4h-.1ZM-9.4,46.2,15,60.3,39.4,46.2V18.1L14.9,4-9.4,18.1Z" transform="translate(9.6 -3.8)"/></g><g transform="translate(415.901 0)"><path class="e" d="M20.9,56.8l-6,3.5L-9.4,46.2V18.1L14.9,4l6,3.5V7.2l-6-3.4h-.1L-9.6,17.9h-.1V46.3L14.8,60.5h.1l6-3.5Z" transform="translate(9.7 -3.8)"/></g><g transform="translate(0.1 42.375)"><path class="f" d="M14.9,60.5h0L-9.6,46.3V17.9h.1L14.9,3.8H15L39.5,18V46.4h-.1ZM-9.4,46.2,15,60.3,39.4,46.2V18.1L14.9,4-9.4,18.1Z" transform="translate(9.6 -3.8)"/></g><g transform="translate(244.748 42.375)"><path class="g" d="M14.9,60.5h0L-9.6,46.3V17.9h.1L14.9,3.8H15L39.5,18V46.4h-.1ZM-9.4,46.2,15,60.3,39.4,46.2V18.1L14.9,4-9.4,18.1Z" transform="translate(9.6 -3.8)"/></g><g transform="translate(293.677 42.375)"><path class="h" d="M14.9,60.5h0L-9.6,46.3V17.9h.1L14.9,3.8H15L39.5,18V46.4h-.1ZM-9.4,46.2,15,60.3,39.4,46.2V18.1L14.9,4-9.4,18.1Z" transform="translate(9.6 -3.8)"/></g><g transform="translate(342.608 42.375)"><path class="i" d="M14.9,60.5h0L-9.6,46.3V17.9h.1L14.9,3.8H15L39.5,18V46.4h-.1ZM-9.4,46.2,15,60.3,39.4,46.2V18.1L14.9,4-9.4,18.1Z" transform="translate(9.6 -3.8)"/></g><g transform="translate(391.537 42.375)"><path class="j" d="M14.9,60.5h0L-9.6,46.3V17.9h.1L14.9,3.8H15L39.5,18V46.4h-.1ZM-9.4,46.2,15,60.3,39.4,46.2V18.1L14.9,4-9.4,18.1Z" transform="translate(9.6 -3.8)"/></g><g transform="translate(440.366 53.032)"><path class="k" d="M-3.5,38.9l-5.9-3.4V7.4L-3.5,4V3.8L-9.6,7.3h-.1V35.7l6.1,3.5v-.3Z" transform="translate(9.7 -3.8)"/></g><g transform="translate(318.142 84.749)"><path class="l" d="M14.9,60.5h0L-9.6,46.3V17.9h.1L14.9,3.8H15L39.5,18V46.4h-.1ZM-9.4,46.2,15,60.3,39.4,46.2V18.1L14.9,4-9.4,18.1Z" transform="translate(9.6 -3.8)"/></g><g transform="translate(367.071 84.749)"><path class="m" d="M14.9,60.5h0L-9.6,46.3V17.9h.1L14.9,3.8H15L39.5,18V46.4h-.1ZM-9.4,46.2,15,60.3,39.4,46.2V18.1L14.9,4-9.4,18.1Z" transform="translate(9.6 -3.8)"/></g><g transform="translate(415.901 84.749)"><path class="n" d="M20.9,56.8l-6,3.5L-9.4,46.2V18.1L14.9,4l6,3.5V7.2l-6-3.4h-.1L-9.6,17.9h-.1V46.3L14.8,60.5h.1l6-3.5Z" transform="translate(9.7 -3.8)"/></g><g transform="translate(342.608 127.123)"><path class="o" d="M14.9,60.5h0L-9.6,46.3V17.9h.1L14.9,3.8H15L39.5,18V46.4h-.1ZM-9.4,46.2,15,60.3,39.4,46.2V18.1L14.9,4-9.4,18.1Z" transform="translate(9.6 -3.8)"/></g><g transform="translate(391.537 127.123)"><path class="p" d="M14.9,60.5h0L-9.6,46.3V17.9h.1L14.9,3.8H15L39.5,18V46.4h-.1ZM-9.4,46.2,15,60.3,39.4,46.2V18.1L14.9,4-9.4,18.1Z" transform="translate(9.6 -3.8)"/></g><g transform="translate(440.366 137.78)"><path class="q" d="M-3.5,38.9l-5.9-3.4V7.4L-3.5,4V3.8L-9.6,7.3h-.1V35.7l6.1,3.5v-.3Z" transform="translate(9.7 -3.8)"/></g><g transform="translate(24.564 169.497)"><path class="r" d="M14.9,60.5h0L-9.6,46.3V18h.1L14.9,3.8H15L39.5,18V46.4h-.1ZM-9.4,46.2,15,60.3,39.4,46.2V18.1L14.9,4-9.4,18.1Z" transform="translate(9.6 -3.8)"/></g><g transform="translate(367.071 169.497)"><path class="s" d="M14.9,60.5h0L-9.6,46.3V18h.1L14.9,3.8H15L39.5,18V46.4h-.1ZM-9.4,46.2,15,60.3,39.4,46.2V18.1L14.9,4-9.4,18.1Z" transform="translate(9.6 -3.8)"/></g><g transform="translate(415.901 169.498)"><path class="t" d="M20.9,56.8l-6,3.5L-9.4,46.2V18.1L14.9,4l6,3.5V7.2l-6-3.4h-.1L-9.6,17.9h-.1V46.3L14.8,60.5h.1l6-3.5Z" transform="translate(9.7 -3.8)"/></g><g transform="translate(0.1 211.873)"><path class="u" d="M14.9,60.5h0L-9.6,46.3V17.9h.1L14.9,3.8H15L39.5,18V46.4h-.1ZM-9.4,46.2,15,60.3,39.4,46.2V18.1L14.9,4-9.4,18.1Z" transform="translate(9.6 -3.8)"/></g><g transform="translate(49.03 211.873)"><path class="v" d="M14.9,60.5h0L-9.6,46.3V17.9h.1L14.9,3.8H15L39.5,18V46.4h-.1ZM-9.4,46.2,15,60.3,39.4,46.2V18.1L14.9,4-9.4,18.1Z" transform="translate(9.6 -3.8)"/></g><g transform="translate(97.959 211.873)"><path class="w" d="M14.9,60.5h0L-9.6,46.3V17.9h.1L14.9,3.8H15L39.5,18V46.4h-.1ZM-9.4,46.2,15,60.3,39.4,46.2V18.1L14.9,4-9.4,18.1Z" transform="translate(9.6 -3.8)"/></g><g transform="translate(146.888 211.873)"><path class="x" d="M14.9,60.5h0L-9.6,46.3V17.9h.1L14.9,3.8H15L39.5,18V46.4h-.1ZM-9.4,46.2,15,60.3,39.4,46.2V18.1L14.9,4-9.4,18.1Z" transform="translate(9.6 -3.8)"/></g><g transform="translate(440.366 222.529)"><path class="y" d="M-3.5,38.9l-5.9-3.4V7.4L-3.5,4V3.8L-9.6,7.3h-.1V35.7l6.1,3.5v-.3Z" transform="translate(9.7 -3.8)"/></g><g transform="translate(24.564 254.247)"><path class="z" d="M14.9,60.5h0L-9.6,46.3V17.9h.1L14.9,3.8H15L39.5,18V46.4h-.1ZM-9.4,46.2,15,60.3,39.4,46.2V18.1L14.9,4-9.4,18.1Z" transform="translate(9.6 -3.8)"/></g><g transform="translate(73.494 254.247)"><path class="aa" d="M14.9,60.5h0L-9.6,46.3V17.9h.1L14.9,3.8H15L39.5,18V46.4h-.1ZM-9.4,46.2,15,60.3,39.4,46.2V18.1L14.9,4-9.4,18.1Z" transform="translate(9.6 -3.8)"/></g><g transform="translate(122.424 254.247)"><path class="ab" d="M14.9,60.5h0L-9.6,46.3V17.9h.1L14.9,3.8H15L39.5,18V46.4h-.1ZM-9.4,46.2,15,60.3,39.4,46.2V18.1L14.9,4-9.4,18.1Z" transform="translate(9.6 -3.8)"/></g><g transform="translate(0 296.621)"><path class="ac" d="M-9.4,34V18.1L14.9,4,39.3,18.1V34h.2V18L15,3.8h-.1L-9.6,17.9h-.1v16h.3Z" transform="translate(9.7 -3.8)"/></g><g transform="translate(48.93 296.621)"><path class="ad" d="M-9.4,34V18.1L14.9,4,39.3,18.1V34h.2V18L15,3.8h-.1L-9.6,17.9h-.1v16h.3Z" transform="translate(9.7 -3.8)"/></g><g transform="translate(97.859 296.621)"><path class="ae" d="M-9.4,34V18.1L14.9,4,39.3,18.1V34h.2V18L15,3.8h-.1L-9.6,17.9h-.1v16h.3Z" transform="translate(9.7 -3.8)"/></g><g transform="translate(146.788 296.621)"><path class="af" d="M-9.4,34V18.1L14.9,4,39.3,18.1V34h.2V18L15,3.8h-.1L-9.6,17.9h-.1v16h.3Z" transform="translate(9.7 -3.8)"/></g><g transform="translate(342.507 296.621)"><path class="ag" d="M-9.4,34V18.1L14.9,4,39.3,18.1V34h.2V18L15,3.8h-.1L-9.6,17.9h-.1v16h.3Z" transform="translate(9.7 -3.8)"/></g><g transform="translate(391.437 296.621)"><path class="ah" d="M-9.4,34V18.1L14.9,4,39.3,18.1V34h.2V18L15,3.8h-.1L-9.6,17.9h-.1v16h.3Z" transform="translate(9.7 -3.8)"/></g></g><g transform="translate(301.967)"><path class="ai" d="M54.1,3.8V27.9l-31.3,18L-8.5,27.8V3.8H-9.6V28.5L22.8,47.2,55.2,28.5V3.8Z" transform="translate(9.6 -3.8)"/></g><g transform="translate(365.735)"><path class="aj" d="M54.1,3.8V27.9l-31.3,18L-8.5,27.8V3.8H-9.6V28.5L22.8,47.2,55.2,28.5V3.8Z" transform="translate(9.6 -3.8)"/></g><g transform="translate(429.504)"><path class="ak" d="M-8.5,27.8V3.8H-9.6V28.5L22.8,47.2l15.1-8.7V37.2L22.8,45.9Z" transform="translate(9.6 -3.8)"/></g><g transform="translate(333.852 23.749)"><path class="al" d="M22.8,78.7-9.6,59.9V22.5L22.8,3.8,55.2,22.5V60ZM-8.5,59.3,22.8,77.4,54.1,59.3V23.1L22.8,5-8.5,23.1Z" transform="translate(9.6 -3.8)"/></g><g transform="translate(397.62 23.749)"><path class="am" d="M22.8,78.7-9.6,59.9V22.5L22.8,3.8,55.2,22.5V60ZM-8.5,59.3,22.8,77.4,54.1,59.3V23.1L22.8,5-8.5,23.1Z" transform="translate(9.6 -3.8)"/></g><g transform="translate(461.388 33.411)"><path class="an" d="M6.1,58.1-8.5,49.7V13.5L6.1,5V3.8L-9.6,12.9V50.4L6.1,59.5V58.1Z" transform="translate(9.6 -3.8)"/></g><g transform="translate(365.736 78.975)"><path class="ao" d="M22.8,78.7-9.6,59.9V22.5L22.8,3.8,55.2,22.5V60ZM-8.5,59.3,22.8,77.4,54.1,59.3V23.1L22.8,5-8.5,23.1Z" transform="translate(9.6 -3.8)"/></g><g transform="translate(429.504 78.975)"><path class="ap" d="M37.9,68.7,22.8,77.4-8.5,59.3V23.1L22.8,5l15.1,8.7V12.4L22.8,3.8-9.6,22.5V60L22.8,78.7,37.9,70Z" transform="translate(9.6 -3.8)"/></g><g transform="translate(0.1 143.682)"><path class="aq" d="M-9.6,3.8V5L5.3,13.6V49.8L-9.6,58.4v1.3l16-9.2V13Z" transform="translate(9.6 -3.8)"/></g><g transform="translate(15.007 134.2)"><path class="ar" d="M22.8,78.7-9.6,60V22.5L22.8,3.8,55.2,22.5V60ZM-8.5,59.3,22.8,77.4,54.1,59.3V23.1L22.8,5-8.5,23.1Z" transform="translate(9.6 -3.8)"/></g><g transform="translate(78.776 134.2)"><path class="as" d="M22.8,78.7-9.6,60V22.5L22.8,3.8,55.2,22.5V60ZM-8.5,59.3,22.8,77.4,54.1,59.3V23.1L22.8,5-8.5,23.1Z" transform="translate(9.6 -3.8)"/></g><g transform="translate(461.388 143.862)"><path class="at" d="M6.1,58.1-8.5,49.7V13.5L6.1,5V3.8L-9.6,12.9V50.4L6,59.3Z" transform="translate(9.6 -3.8)"/></g><g transform="translate(0 189.425)"><path class="au" d="M5.8,3.8-9.7,12.7V14L5.8,5,37.1,23.1V59.3L5.8,77.4-9.7,68.5v1.3L5.8,78.7,38.2,60V22.5Z" transform="translate(9.7 -3.8)"/></g><g transform="translate(46.891 189.426)"><path class="av" d="M22.8,78.7-9.6,59.9V22.5L22.8,3.8,55.2,22.5V60ZM-8.5,59.3,22.8,77.4,54.1,59.3V23.1L22.8,5-8.5,23.1Z" transform="translate(9.6 -3.8)"/></g><g transform="translate(110.661 189.426)"><path class="aw" d="M22.8,78.7-9.6,59.9V22.5L22.8,3.8,55.2,22.5V60ZM-8.5,59.3,22.8,77.4,54.1,59.3V23.1L22.8,5-8.5,23.1Z" transform="translate(9.6 -3.8)"/></g><g transform="translate(0.1 254.132)"><path class="ax" d="M-9.6,3.8V5L5.3,13.6V49.8L-9.6,58.4v1.3l16-9.2V13Z" transform="translate(9.6 -3.8)"/></g><g transform="translate(15.007 244.651)"><path class="ay" d="M22.8,78.7-9.6,59.9V22.5L22.8,3.8,55.2,22.5V60ZM-8.5,59.3,22.8,77.4,54.1,59.3V23.1L22.8,5-8.5,23.1Z" transform="translate(9.6 -3.8)"/></g><g transform="translate(78.776 244.651)"><path class="az" d="M22.8,78.7-9.6,59.9V22.5L22.8,3.8,55.2,22.5V60ZM-8.5,59.3,22.8,77.4,54.1,59.3V23.1L22.8,5-8.5,23.1Z" transform="translate(9.6 -3.8)"/></g><g transform="translate(397.62 244.651)"><path class="ba" d="M22.8,78.7-9.6,59.9V22.5L22.8,3.8,55.2,22.5V60ZM-8.5,59.3,22.8,77.4,54.1,59.3V23.1L22.8,5-8.5,23.1Z" transform="translate(9.6 -3.8)"/></g><g transform="translate(0 299.876)"><path class="bb" d="M-9.6,69.7l11,6.4H3.6L-9.6,68.5Z" transform="translate(9.7 -3.8)"/><path class="bc" d="M5.8,3.8-9.7,12.7V14L5.8,5,37.1,23.1V59.3L8,76.1h2.2l28-16.2V22.5Z" transform="translate(9.7 -3.8)"/></g><g transform="translate(46.892 299.876)"><path class="bd" d="M20.6,76.1-8.5,59.3V23.1L22.8,5,54.1,23.1V59.3L25,76.1h2.2l28-16.2V22.5L22.8,3.8-9.6,22.5V60l28,16.2Z" transform="translate(9.6 -3.8)"/></g><g transform="translate(110.66 299.876)"><path class="be" d="M20.6,76.1-8.5,59.3V23.1L22.8,5,54.1,23.1V59.3L25,76.1h2.2l28-16.2V22.5L22.8,3.8-9.6,22.5V60l28,16.2Z" transform="translate(9.6 -3.8)"/></g><g transform="translate(365.735 299.876)"><path class="bf" d="M20.6,76.1-8.5,59.3V23.1L22.8,5,54.1,23.1V59.3L25,76.1h2.2l28-16.2V22.5L22.8,3.8-9.6,22.5V60l28,16.2Z" transform="translate(9.6 -3.8)"/></g><g transform="translate(429.504 299.876)"><path class="bg" d="M22.8,5l15.1,8.7V12.4L22.8,3.8-9.6,22.5V60l28,16.2h2.2L-8.5,59.3V23.1Z" transform="translate(9.6 -3.8)"/><path class="bh" d="M37.9,68.7,25,76.1h2.2l10.7-6.2Z" transform="translate(9.6 -3.8)"/></g><g transform="translate(0.1 364.583)"><path class="bi" d="M-9.6,3.8V5l11,6.4H3.6Z" transform="translate(9.6 -3.8)"/></g><g transform="translate(17.775 355.101)"><path class="bj" d="M-7.4,20.9,20,5,47.5,20.9h2.2L20,3.8-9.6,20.9Z" transform="translate(9.6 -3.8)"/></g><g transform="translate(81.543 355.101)"><path class="bk" d="M-7.4,20.9,20,5,47.5,20.9h2.2L20,3.8-9.6,20.9Z" transform="translate(9.6 -3.8)"/></g><g transform="translate(145.312 355.101)"><path class="bl" d="M-7.4,20.9,20,5,47.5,20.9h2.2L20,3.8-9.6,20.9Z" transform="translate(9.6 -3.8)"/></g><g transform="translate(209.081 355.101)"><path class="bm" d="M-7.4,20.9,20,5,47.5,20.9h2.2L20,3.8-9.6,20.9Z" transform="translate(9.6 -3.8)"/></g><g transform="translate(272.85 355.101)"><path class="bn" d="M-7.4,20.9,20,5,47.5,20.9h2.2L20,3.8-9.6,20.9Z" transform="translate(9.6 -3.8)"/></g><g transform="translate(336.518 355.101)"><path class="bo" d="M-7.4,20.9,20,5,47.5,20.9h2.2L20,3.8-9.7,20.9Z" transform="translate(9.7 -3.8)"/></g><g transform="translate(400.387 355.101)"><path class="bp" d="M-7.4,20.9,20,5,47.5,20.9h2.2L20,3.8-9.6,20.9Z" transform="translate(9.6 -3.8)"/></g><g transform="translate(464.155 364.763)"><path class="bq" d="M3.3,3.8-9.6,11.3h2.2L3.3,5Z" transform="translate(9.6 -3.8)"/></g><g transform="translate(28.563 43.618)"><path class="br" d="M41.3,63.9a1.8,1.8,0,1,0-1.8-1.8,1.859,1.859,0,0,0,1.8,1.8Z" transform="translate(9.7 -3.8)"/><path class="bs" d="M188.1,6a.265.265,0,0,0,.3-.3.3.3,0,0,0-.6,0,.319.319,0,0,0,.3.3Z" transform="translate(9.7 -3.8)"/><path class="bt" d="M212.6,16.4a3.4,3.4,0,1,0,3.4,3.4,3.372,3.372,0,0,0-3.4-3.4Z" transform="translate(9.7 -3.8)"/><path class="bu" d="M212.6,50.2a2.1,2.1,0,1,0-2.1-2.1h0A2.112,2.112,0,0,0,212.6,50.2Z" transform="translate(9.7 -3.8)"/><path class="bv" d="M237.1,64.1a1.9,1.9,0,1,0-1.9-1.9h0A1.9,1.9,0,0,0,237.1,64.1Z" transform="translate(9.7 -3.8)"/><ellipse class="bw" cx="1" cy="1" rx="1" ry="1" transform="translate(245.8 0.9)"/><path class="bx" d="M261.5,21.7a1.9,1.9,0,0,0,1.9-1.9,1.967,1.967,0,0,0-1.9-1.9,1.9,1.9,0,0,0-1.9,1.9h0A1.9,1.9,0,0,0,261.5,21.7Z" transform="translate(9.7 -3.8)"/><path class="by" d="M261.5,44.7a3.4,3.4,0,1,0,3.4,3.4,3.372,3.372,0,0,0-3.4-3.4Z" transform="translate(9.7 -3.8)"/><path class="bz" d="M286,7.1a1.367,1.367,0,0,0,1.4-1.4,1.4,1.4,0,1,0-2.8,0A1.367,1.367,0,0,0,286,7.1Z" transform="translate(9.7 -3.8)"/><path class="ca" d="M310.5,22.4a2.582,2.582,0,0,0,2.6-2.6,2.6,2.6,0,0,0-5.2,0,2.467,2.467,0,0,0,2.6,2.6Z" transform="translate(9.7 -3.8)"/><ellipse class="cb" cx="3.2" cy="3.2" rx="3.2" ry="3.2" transform="translate(317 41.1)"/><path class="cc" d="M334.9,7.3a1.58,1.58,0,0,0,1.6-1.6A1.666,1.666,0,0,0,334.9,4a1.58,1.58,0,0,0-1.6,1.6h0A1.605,1.605,0,0,0,334.9,7.3Z" transform="translate(9.7 -3.8)"/><path class="cd" d="M359.4,21.7a1.9,1.9,0,0,0,1.9-1.9,1.839,1.839,0,0,0-1.9-1.9,1.9,1.9,0,0,0,0,3.8Z" transform="translate(9.7 -3.8)"/><ellipse class="ce" cx="1.4" cy="1.4" rx="1.4" ry="1.4" transform="translate(367.7 42.9)"/><path class="cf" d="M383.8,6.9a1.3,1.3,0,1,0-1.3-1.3,1.324,1.324,0,0,0,1.3,1.3Z" transform="translate(9.7 -3.8)"/><path class="cg" d="M408.3,21.8a2,2,0,1,0-2-2,2.006,2.006,0,0,0,2,2Z" transform="translate(9.7 -3.8)"/><ellipse class="ch" cx="2.3" cy="2.3" rx="2.3" ry="2.3" transform="translate(415.7 42)"/><path class="ci" d="M432.8,7.6a1.9,1.9,0,0,0,1.9-1.9,1.9,1.9,0,1,0-3.8,0h0a1.9,1.9,0,0,0,1.9,1.9Z" transform="translate(9.7 -3.8)"/><path class="cj" d="M16.9,102.3a2.242,2.242,0,0,0-2.2,2.3,2.251,2.251,0,0,0,4.5-.1,2.24,2.24,0,0,0-2.3-2.2Z" transform="translate(9.7 -3.8)"/><ellipse class="ck" cx="1.4" cy="1.4" rx="1.4" ry="1.4" transform="translate(0.7 85.2)"/><path class="cl" d="M-7.6,63.3a1.11,1.11,0,0,0,1.1-1.1,1.11,1.11,0,0,0-1.1-1.1,1.11,1.11,0,0,0-1.1,1.1,1.11,1.11,0,0,0,1.1,1.1Z" transform="translate(9.7 -3.8)"/><ellipse class="cm" cx="3.3" cy="3.3" rx="3.3" ry="3.3" transform="translate(23.3 41)"/><path class="cn" d="M41.3,93.2a2.8,2.8,0,0,0,2.8-2.8,2.734,2.734,0,0,0-2.8-2.8,2.8,2.8,0,0,0-2.8,2.8,2.86,2.86,0,0,0,2.8,2.8Z" transform="translate(9.7 -3.8)"/><path class="co" d="M237.1,93a2.582,2.582,0,0,0,2.6-2.6,2.522,2.522,0,0,0-2.6-2.6,2.6,2.6,0,1,0,0,5.2Z" transform="translate(9.7 -3.8)"/><path class="cp" d="M286,60.9a1.3,1.3,0,1,0,1.3,1.3h0A1.324,1.324,0,0,0,286,60.9Z" transform="translate(9.7 -3.8)"/><path class="cq" d="M286,92.8a2.4,2.4,0,1,0-2.4-2.4,2.311,2.311,0,0,0,2.4,2.4Z" transform="translate(9.7 -3.8)"/><ellipse class="cr" cx="1.5" cy="1.5" rx="1.5" ry="1.5" transform="translate(318.7 99.2)"/><path class="cs" d="M334.9,58.6a3.6,3.6,0,1,0,3.6,3.6A3.585,3.585,0,0,0,334.9,58.6Z" transform="translate(9.7 -3.8)"/><path class="ct" d="M383.8,64.8a2.7,2.7,0,1,0-2.7-2.7,2.825,2.825,0,0,0,2.7,2.7Z" transform="translate(9.7 -3.8)"/><path class="cu" d="M408.3,107.2a2.582,2.582,0,0,0,2.6-2.6,2.647,2.647,0,0,0-2.6-2.6,2.582,2.582,0,0,0-2.6,2.6h0A2.582,2.582,0,0,0,408.3,107.2Z" transform="translate(9.7 -3.8)"/><path class="cv" d="M383.8,93.5a3.1,3.1,0,1,0-3.1-3.1h0a3.116,3.116,0,0,0,3.1,3.1Z" transform="translate(9.7 -3.8)"/><path class="cw" d="M432.8,65a2.8,2.8,0,0,0,2.8-2.8,2.862,2.862,0,0,0-2.8-2.8,2.8,2.8,0,0,0-2.8,2.8,2.733,2.733,0,0,0,2.8,2.8Z" transform="translate(9.7 -3.8)"/><path class="cx" d="M263.6,104.5a2,2,0,1,0-2,2h0A1.941,1.941,0,0,0,263.6,104.5Z" transform="translate(9.7 -3.8)"/><ellipse class="cy" cx="1.6" cy="1.6" rx="1.6" ry="1.6" transform="translate(343 85)"/><path class="cz" d="M359.4,106.3a1.8,1.8,0,1,0-1.8-1.8,1.793,1.793,0,0,0,1.8,1.8Z" transform="translate(9.7 -3.8)"/><ellipse class="da" cx="1.7" cy="1.7" rx="1.7" ry="1.7" transform="translate(440.8 141.4)"/><path class="db" d="M408.3,130.5a2.3,2.3,0,1,0,2.3,2.3,2.263,2.263,0,0,0-2.3-2.3Z" transform="translate(9.7 -3.8)"/><ellipse class="dc" cx="2.2" cy="2.2" rx="2.2" ry="2.2" transform="translate(440.3 84.4)"/><path class="dd" d="M16.9,186.7a2.6,2.6,0,1,0,2.6,2.6h0A2.718,2.718,0,0,0,16.9,186.7Z" transform="translate(9.7 -3.8)"/><ellipse class="de" cx="0.2" cy="0.2" rx="0.2" ry="0.2" transform="translate(1.9 171.2)"/><ellipse class="df" cx="2.1" cy="2.1" rx="2.1" ry="2.1" transform="translate(0 141)"/><path class="dg" d="M16.9,131a1.8,1.8,0,1,0,1.8,1.8,1.859,1.859,0,0,0-1.8-1.8Z" transform="translate(9.7 -3.8)"/><path class="dh" d="M64.2,189.3a1.6,1.6,0,1,0,1.6-1.6,1.58,1.58,0,0,0-1.6,1.6Z" transform="translate(9.7 -3.8)"/><path class="di" d="M310.5,130.2a2.6,2.6,0,1,0,2.6,2.6h0a2.647,2.647,0,0,0-2.6-2.6Z" transform="translate(9.7 -3.8)"/><path class="dj" d="M332.2,146.9a2.7,2.7,0,1,0,2.7-2.7,2.689,2.689,0,0,0-2.7,2.7Z" transform="translate(9.7 -3.8)"/><ellipse class="dk" cx="1.6" cy="1.6" rx="1.6" ry="1.6" transform="translate(367.5 183.9)"/><ellipse class="dl" cx="2.1" cy="2.1" rx="2.1" ry="2.1" transform="translate(342.5 169.3)"/><ellipse class="dm" cx="2.3" cy="2.3" rx="2.3" ry="2.3" transform="translate(366.8 126.7)"/><ellipse class="dn" cx="3.2" cy="3.2" rx="3.2" ry="3.2" transform="translate(390.3 168.2)"/><path class="do" d="M408.3,191.1a1.8,1.8,0,1,0-1.8-1.8,1.793,1.793,0,0,0,1.8,1.8Z" transform="translate(9.7 -3.8)"/><path class="dp" d="M383.8,150.1a3.2,3.2,0,1,0-3.2-3.2,3.222,3.222,0,0,0,3.2,3.2Z" transform="translate(9.7 -3.8)"/><ellipse class="dq" cx="1.5" cy="1.5" rx="1.5" ry="1.5" transform="translate(441 169.9)"/><path class="dr" d="M41.3,178.3a3.1,3.1,0,1,0-3.1-3.1h0a3.116,3.116,0,0,0,3.1,3.1Z" transform="translate(9.7 -3.8)"/><path class="ds" d="M65.8,220.2a2.7,2.7,0,1,0-2.7-2.7,2.689,2.689,0,0,0,2.7,2.7Z" transform="translate(9.7 -3.8)"/><path class="dt" d="M116,217.5a1.3,1.3,0,1,0-1.3,1.3,1.324,1.324,0,0,0,1.3-1.3Z" transform="translate(9.7 -3.8)"/><path class="du" d="M139.2,234.1a2.4,2.4,0,1,0-2.4-2.4,2.433,2.433,0,0,0,2.4,2.4Z" transform="translate(9.7 -3.8)"/><path class="dv" d="M166,217.5a2.4,2.4,0,1,0-2.4,2.4,2.369,2.369,0,0,0,2.4-2.4Z" transform="translate(9.7 -3.8)"/><path class="dw" d="M188.1,234.4a2.8,2.8,0,0,0,2.8-2.8,2.734,2.734,0,0,0-2.8-2.8,2.8,2.8,0,0,0-2.8,2.8,2.86,2.86,0,0,0,2.8,2.8Z" transform="translate(9.7 -3.8)"/><ellipse class="dx" cx="1.6" cy="1.6" rx="1.6" ry="1.6" transform="translate(25 268.6)"/><ellipse class="dy" cx="1.3" cy="1.3" rx="1.3" ry="1.3" transform="translate(0.8 254.8)"/><path class="dz" d="M-8.2,231.7a.645.645,0,0,0,.6.6.645.645,0,0,0,.6-.6.645.645,0,0,0-.6-.6.576.576,0,0,0-.6.6Z" transform="translate(9.7 -3.8)"/><ellipse class="ea" cx="2.5" cy="2.5" rx="2.5" ry="2.5" transform="translate(24.1 211.2)"/><path class="eb" d="M39.3,259.9a2.03,2.03,0,0,0,2.1,2,1.944,1.944,0,0,0,2-2,2.094,2.094,0,0,0-2-2.1,2.18,2.18,0,0,0-2.1,2.1Z" transform="translate(9.7 -3.8)"/><path class="ec" d="M42.7,231.7a1.4,1.4,0,1,0-1.4,1.4,1.367,1.367,0,0,0,1.4-1.4Z" transform="translate(9.7 -3.8)"/><path class="ed" d="M90.3,230.5a1.2,1.2,0,1,0,1.2,1.2,1.287,1.287,0,0,0-1.2-1.2Z" transform="translate(9.7 -3.8)"/><path class="ee" d="M112.8,274a1.9,1.9,0,1,0,1.9-1.9h0A1.967,1.967,0,0,0,112.8,274Z" transform="translate(9.7 -3.8)"/><path class="ef" d="M90.3,257.1a2.8,2.8,0,1,0,2.8,2.8,2.862,2.862,0,0,0-2.8-2.8Z" transform="translate(9.7 -3.8)"/><path class="eg" d="M188.1,262.9a3,3,0,1,0-3-3,3.009,3.009,0,0,0,3,3Z" transform="translate(9.7 -3.8)"/><path class="eh" d="M359.4,272.5a1.5,1.5,0,1,0,1.5,1.5h0A1.538,1.538,0,0,0,359.4,272.5Z" transform="translate(9.7 -3.8)"/><path class="ei" d="M359.4,219.3a1.8,1.8,0,1,0-1.8-1.8,1.793,1.793,0,0,0,1.8,1.8Z" transform="translate(9.7 -3.8)"/><path class="ej" d="M383.8,228.2a3.4,3.4,0,1,0,3.4,3.4,3.372,3.372,0,0,0-3.4-3.4Z" transform="translate(9.7 -3.8)"/><path class="ek" d="M408.3,219.4a1.9,1.9,0,0,0,1.9-1.9,1.9,1.9,0,1,0-3.8,0,1.9,1.9,0,0,0,1.9,1.9Z" transform="translate(9.7 -3.8)"/><path class="el" d="M432.8,234.5a2.8,2.8,0,1,0-2.8-2.8h0A2.8,2.8,0,0,0,432.8,234.5Z" transform="translate(9.7 -3.8)"/><path class="em" d="M432.8,256.2a3.7,3.7,0,1,0,3.7,3.7h0A3.757,3.757,0,0,0,432.8,256.2Z" transform="translate(9.7 -3.8)"/><path class="en" d="M63.9,274a1.9,1.9,0,1,0,1.9-1.9,1.9,1.9,0,0,0-1.9,1.9Z" transform="translate(9.7 -3.8)"/><path class="eo" d="M65.8,305.3a3.009,3.009,0,0,0,3-3,3,3,0,0,0-6,0h0a2.946,2.946,0,0,0,3,3Z" transform="translate(9.7 -3.8)"/><ellipse class="ep" cx="3.2" cy="3.2" rx="3.2" ry="3.2" transform="translate(145.7 252.9)"/><ellipse class="eq" cx="1.2" cy="1.2" rx="1.2" ry="1.2" transform="translate(172.2 269)"/><path class="er" d="M188.1,318.8a2.3,2.3,0,1,0-2.3-2.3,2.263,2.263,0,0,0,2.3,2.3Z" transform="translate(9.7 -3.8)"/><ellipse class="es" cx="3.6" cy="3.6" rx="3.6" ry="3.6" transform="translate(169.8 294.9)"/><path class="et" d="M361.4,302.3a2,2,0,1,0-2,2h0A2.006,2.006,0,0,0,361.4,302.3Z" transform="translate(9.7 -3.8)"/><path class="eu" d="M408.3,276.7a2.6,2.6,0,1,0-2.6-2.6h0a2.582,2.582,0,0,0,2.6,2.6Z" transform="translate(9.7 -3.8)"/><path class="ev" d="M408.3,299.7a2.582,2.582,0,0,0-2.6,2.6,2.6,2.6,0,1,0,5.2,0h0A2.522,2.522,0,0,0,408.3,299.7Z" transform="translate(9.7 -3.8)"/><path class="ew" d="M-7.1,316.4a.472.472,0,0,0-.5-.5.472.472,0,0,0-.5.5.472.472,0,0,0,.5.5h0A.472.472,0,0,0-7.1,316.4Z" transform="translate(9.7 -3.8)"/><path class="ex" d="M16.9,300.8a1.5,1.5,0,1,0,1.5,1.5h0a1.538,1.538,0,0,0-1.5-1.5Z" transform="translate(9.7 -3.8)"/><path class="ey" d="M41.3,312.5a3.9,3.9,0,0,0,0,7.8,3.9,3.9,0,0,0,0-7.8Z" transform="translate(9.7 -3.8)"/><path class="ez" d="M90.3,314.1a2.4,2.4,0,1,0,2.4,2.4,2.433,2.433,0,0,0-2.4-2.4Z" transform="translate(9.7 -3.8)"/><path class="fa" d="M114.7,305a2.7,2.7,0,1,0-2.7-2.7h0A2.825,2.825,0,0,0,114.7,305Z" transform="translate(9.7 -3.8)"/><path class="fb" d="M142.3,316.4a3.1,3.1,0,1,0-3.1,3.1h0A3.116,3.116,0,0,0,142.3,316.4Z" transform="translate(9.7 -3.8)"/><path class="fc" d="M334.9,318.5a2.1,2.1,0,1,0-2.1-2.1,2.112,2.112,0,0,0,2.1,2.1Z" transform="translate(9.7 -3.8)"/><path class="fd" d="M383.8,318.7a2.3,2.3,0,1,0-2.3-2.3,2.326,2.326,0,0,0,2.3,2.3Z" transform="translate(9.7 -3.8)"/></g></g></g><g class="fe" transform="translate(0 0)"><g transform="translate(0 0)"><g transform="translate(0.1)"><path class="ff" d="M-5.6,3.8V33.7l-4,2.3v.3l4.3-2.5h.1V3.8h-.4Z" transform="translate(9.6 -3.8)"/></g><g transform="translate(242.943)"><path class="fg" d="M50.1,3.8V33.7L20.3,50.8-9.4,33.7V3.8h-.3v30L20.2,51.1h.1L50.2,33.8h.1V3.8h-.2Z" transform="translate(9.7 -3.8)"/></g><g transform="translate(302.663)"><path class="fh" d="M50.1,3.8V33.7L20.3,50.8-9.4,33.7V3.8h-.3v30L20.2,51.1h.1L50.2,33.8h.1V3.8h-.2Z" transform="translate(9.7 -3.8)"/></g><g transform="translate(362.384)"><path class="fi" d="M50.1,3.8V33.7L20.3,50.8-9.4,33.7V3.8h-.3v30L20.2,51.1h.1L50.2,33.8h.1V3.8h-.2Z" transform="translate(9.7 -3.8)"/></g><g transform="translate(422.105 0)"><path class="fj" d="M-9.4,33.7V3.8h-.3v30L20.2,51.1h.1L39.2,40.2v-.3L20.3,50.8Z" transform="translate(9.7 -3.8)"/></g><g transform="translate(332.523 29.814)"><path class="fk" d="M20.3,73h0l-30-17.3V21.1h.1L20.3,3.8h.1L50.3,21.1V55.7h-.1ZM-9.4,55.6,20.3,72.8,50,55.6V21.2L20.3,4.1-9.4,21.2Z" transform="translate(9.7 -3.8)"/></g><g transform="translate(392.245 29.814)"><path class="fl" d="M20.3,73h0l-30-17.3V21.1h.1L20.3,3.8h.1L50.3,21.1V55.7h-.1ZM-9.4,55.6,20.3,72.8,50,55.6V21.2L20.3,4.1-9.4,21.2Z" transform="translate(9.7 -3.8)"/></g><g transform="translate(451.964 36.14)"><path class="fm" d="M9.4,60.1-9.4,49.2V14.9L9.4,4.1V3.8l-19,11h-.1V49.4l19,11v-.3Z" transform="translate(9.7 -3.8)"/></g><g transform="translate(362.385 81.534)"><path class="fn" d="M20.3,73h0l-30-17.3V21.1h.1L20.3,3.8h.1L50.3,21.1V55.7h-.1ZM-9.4,55.6,20.3,72.8,50,55.6V21.2L20.3,4.1-9.4,21.2Z" transform="translate(9.7 -3.8)"/></g><g transform="translate(422.105 81.534)"><path class="fo" d="M39.3,61.8,20.4,72.7-9.4,55.6V21.2L20.4,4.1,39.3,15v-.3L20.4,3.8h-.1L-9.6,21h-.1V55.6L20.3,73h.1L39.3,62.1Z" transform="translate(9.7 -3.8)"/></g><g transform="translate(0 133.253)"><path class="fp" d="M-5.4,3.8h0L-9.7,6.2v.3l4.2-2.4L24.2,21.3V55.6L-5.5,72.7l-4.2-2.4v.3L-5.6,73h.1L24.4,55.7h.1V21.1Z" transform="translate(9.7 -3.8)"/></g><g transform="translate(392.245 133.254)"><path class="fq" d="M20.3,73h0l-30-17.3V21.1h.1L20.3,3.8h.1L50.3,21.1V55.7h-.1ZM-9.4,55.6,20.3,72.8,50,55.6V21.2L20.3,4.1-9.4,21.2Z" transform="translate(9.7 -3.8)"/></g><g transform="translate(451.964 139.579)"><path class="fr" d="M9.4,60.1-9.4,49.2V14.9L9.4,4.1V3.8l-19,11h-.1V49.4l19,11v-.3Z" transform="translate(9.7 -3.8)"/></g><g transform="translate(0.1 199.793)"><path class="fs" d="M-9.6,3.8v.3l4.1,2.3V40.7L-9.6,43v.3l4.3-2.5h.1V6.3Z" transform="translate(9.6 -3.8)"/></g><g transform="translate(4.061 184.973)"><path class="ft" d="M20.3,73h0l-30-17.3V21.1h.1L20.3,3.8h.1L50.3,21.1V55.7h-.1ZM-9.4,55.6,20.3,72.8,50,55.6V21.2L20.3,4.1-9.4,21.2Z" transform="translate(9.7 -3.8)"/></g><g transform="translate(63.781 184.973)"><path class="fu" d="M20.3,73h0l-30-17.3V21.1h.1L20.3,3.8h.1L50.3,21.1V55.7h-.1ZM-9.4,55.6,20.3,72.8,50,55.6V21.2L20.3,4.1-9.4,21.2Z" transform="translate(9.7 -3.8)"/></g><g transform="translate(123.501 184.973)"><path class="fv" d="M20.3,73h0l-30-17.3V21.1h.1L20.3,3.8h.1L50.3,21.1V55.7h-.1ZM-9.4,55.6,20.3,72.8,50,55.6V21.2L20.3,4.1-9.4,21.2Z" transform="translate(9.7 -3.8)"/></g><g transform="translate(0 236.693)"><path class="fw" d="M-5.4,3.8h0L-9.7,6.2v.3l4.2-2.4L24.2,21.3V55.6L-5.5,72.7l-4.2-2.4v.3L-5.6,73h.1L24.4,55.7h.1V21.1Z" transform="translate(9.7 -3.8)"/></g><g transform="translate(33.92 236.693)"><path class="fx" d="M20.3,73h0l-30-17.3V21.1h.1L20.3,3.8h.1L50.3,21.1V55.7h-.1ZM-9.4,55.6,20.3,72.8,50,55.6V21.2L20.3,4.1-9.4,21.2Z" transform="translate(9.7 -3.8)"/></g><g transform="translate(93.641 236.693)"><path class="fy" d="M20.3,73h0l-30-17.3V21.1h.1L20.3,3.8h.1L50.3,21.1V55.7h-.1ZM-9.4,55.6,20.3,72.8,50,55.6V21.2L20.3,4.1-9.4,21.2Z" transform="translate(9.7 -3.8)"/></g><g transform="translate(0.1 303.233)"><path class="fz" d="M-9.6,3.8v.3l4.1,2.3V40.7L-9.6,43v.3l4.3-2.5h.1V6.3Z" transform="translate(9.6 -3.8)"/></g><g transform="translate(4.061 288.412)"><path class="ga" d="M20.3,73h0l-30-17.3V21.1h.1L20.3,3.8h.1L50.3,21.1V55.7h-.1ZM-9.4,55.6,20.3,72.8,50,55.6V21.2L20.3,4.1-9.4,21.2Z" transform="translate(9.7 -3.8)"/></g><g transform="translate(63.781 288.412)"><path class="gb" d="M20.3,73h0l-30-17.3V21.1h.1L20.3,3.8h.1L50.3,21.1V55.7h-.1ZM-9.4,55.6,20.3,72.8,50,55.6V21.2L20.3,4.1-9.4,21.2Z" transform="translate(9.7 -3.8)"/></g><g transform="translate(123.501 288.412)"><path class="gc" d="M20.3,73h0l-30-17.3V21.1h.1L20.3,3.8h.1L50.3,21.1V55.7h-.1ZM-9.4,55.6,20.3,72.8,50,55.6V21.2L20.3,4.1-9.4,21.2Z" transform="translate(9.7 -3.8)"/></g><g transform="translate(362.385 288.412)"><path class="gd" d="M20.3,73h0l-30-17.3V21.1h.1L20.3,3.8h.1L50.3,21.1V55.7h-.1ZM-9.4,55.6,20.3,72.8,50,55.6V21.2L20.3,4.1-9.4,21.2Z" transform="translate(9.7 -3.8)"/></g><g transform="translate(422.105 288.412)"><path class="ge" d="M39.3,61.8,20.4,72.7-9.4,55.6V21.2L20.4,4.1,39.3,15v-.3L20.4,3.8h-.1L-9.6,21h-.1V55.6L20.3,73h.1L39.3,62.1Z" transform="translate(9.7 -3.8)"/></g><g transform="translate(0 340.132)"><path class="gf" d="M-5.4,3.8h0L-9.7,6.2v.3l4.2-2.4L24.2,21.3v10h.3V21.1Z" transform="translate(9.7 -3.8)"/></g><g transform="translate(33.92 340.132)"><path class="gg" d="M-9.4,31.2v-10L20.3,4.1,50,21.3v10h.3V21.1L20.4,3.8h-.1L-9.6,21h-.1V31.1h.3Z" transform="translate(9.7 -3.8)"/></g><g transform="translate(93.641 340.132)"><path class="gh" d="M-9.4,31.2v-10L20.3,4.1,50,21.3v10h.3V21.1L20.4,3.8h-.1L-9.6,21h-.1V31.1h.3Z" transform="translate(9.7 -3.8)"/></g><g transform="translate(153.362 340.132)"><path class="gi" d="M-9.4,31.2v-10L20.3,4.1,50,21.3v10h.3V21.1L20.4,3.8h-.1L-9.6,21h-.1V31.1Z" transform="translate(9.7 -3.8)"/></g><g transform="translate(392.244 340.132)"><path class="gj" d="M-9.4,31.2v-10L20.3,4.1,50,21.3v10h.3V21.1L20.4,3.8h-.1L-9.6,21h-.1V31.1Z" transform="translate(9.7 -3.8)"/></g><g transform="translate(451.964 346.458)"><path class="gk" d="M9.4,3.8l-19,11h-.1V24.9h.3v-10L9.4,4.1Z" transform="translate(9.7 -3.8)"/></g><g transform="translate(0.1 0)"><g transform="translate(353.272)"><path class="gl" d="M68.2,3.8V38.9L29.9,61-8.3,38.9V3.8H-9.7V39.7L29.9,62.6,69.5,39.7V3.8Z" transform="translate(9.7 -3.8)"/></g><g transform="translate(431.105)"><path class="gm" d="M-8.3,38.9V3.8H-9.7V39.7L29.9,62.6l.2-.1V60.9l-.2.1Z" transform="translate(9.7 -3.8)"/></g><g transform="translate(0 55.022)"><path class="gn" d="M-9.6,3.8V5.4l3.1,1.8V51.4l-3.1,1.8v1.6l4.5-2.6V6.4Z" transform="translate(9.6 -3.8)"/></g><g transform="translate(3.127 34.749)"><path class="go" d="M29.9,95.2-9.6,72.3V26.6L29.9,3.8,69.5,26.7V72.4ZM-8.3,71.6,29.9,93.7,68.1,71.6V27.4L29.9,5.3-8.3,27.4Z" transform="translate(9.6 -3.8)"/></g><g transform="translate(470.02 57.1)"><path class="gp" d="M-8.8,3.8l-.9.5V50l.9.5Z" transform="translate(9.7 -3.8)"/></g><g transform="translate(0 102.154)"><path class="gq" d="M-5.8,3.8-9.6,6V7.6l3.8-2.2L32.4,27.5V71.7L-5.8,93.6l-3.8-2.2V93l3.8,2.2L33.8,72.3V26.6Z" transform="translate(9.6 -3.8)"/></g><g transform="translate(42.042 102.153)"><path class="gr" d="M29.9,95.2-9.6,72.3V26.6L29.9,3.8,69.5,26.7V72.4ZM-8.3,71.6,29.9,93.7,68.1,71.6V27.4L29.9,5.3-8.3,27.4Z" transform="translate(9.6 -3.8)"/></g><g transform="translate(0 189.831)"><path class="gs" d="M-9.6,3.8V5.4l3.1,1.8V51.4l-3.1,1.8v1.6l4.5-2.6V6.3Z" transform="translate(9.6 -3.8)"/></g><g transform="translate(3.127 169.559)"><path class="gt" d="M29.9,95.2-9.6,72.3V26.6L29.9,3.8,69.5,26.7V72.4ZM-8.3,71.6,29.9,93.7,68.1,71.6V27.4L29.9,5.3-8.3,27.4Z" transform="translate(9.6 -3.8)"/></g><g transform="translate(392.288 169.558)"><path class="gu" d="M69.1,26.3,29.9,3.8-9.6,26.6V72.3L30,95.2,69.1,72.6ZM29.9,93.6l-38.2-22V27.4L29.9,5.3,68.1,27.4V71.6Z" transform="translate(9.6 -3.8)"/></g><g transform="translate(0 236.963)"><path class="gv" d="M-5.8,3.8-9.6,6V7.6l3.8-2.2L32.4,27.5V71.7L-5.8,93.6l-3.8-2.2V93l3.8,2.2L33.8,72.3V26.6Z" transform="translate(9.6 -3.8)"/></g><g transform="translate(42.042 236.964)"><path class="gw" d="M29.9,95.2-9.6,72.3V26.6L29.9,3.8,69.5,26.7V72.4ZM-8.3,71.6,29.9,93.7,68.1,71.6V27.4L29.9,5.3-8.3,27.4Z" transform="translate(9.6 -3.8)"/></g><g transform="translate(353.373 236.964)"><path class="gx" d="M29.9,95.2-9.6,72.3V26.6L29.9,3.8,69.5,26.7V72.4ZM-8.3,71.6,29.9,93.7,68.1,71.6V27.4L29.9,5.3-8.3,27.4Z" transform="translate(9.6 -3.8)"/></g><g transform="translate(431.205 236.963)"><path class="gy" d="M30.1,93.5l-.2.1-38.2-22V27.4L29.9,5.3l.2.1V3.9l-.2-.1L-9.6,26.6V72.3L30,95.2l.2-.1Z" transform="translate(9.6 -3.8)"/></g><g transform="translate(0 324.641)"><path class="gz" d="M-9.6,3.8V5.4l3.1,1.8V46.8h1.4V6.3Z" transform="translate(9.6 -3.8)"/></g><g transform="translate(3.126 304.368)"><path class="ha" d="M-8.3,66.9V27.4L29.9,5.3,68.1,27.4V66.9h1.4V26.6L29.9,3.8-9.6,26.6V66.9Z" transform="translate(9.6 -3.8)"/></g><g transform="translate(80.959 304.368)"><path class="hb" d="M-8.3,66.9V27.4L29.9,5.3,68.1,27.4V66.9h1.4V26.6L29.9,3.8-9.6,26.6V66.9Z" transform="translate(9.6 -3.8)"/></g><g transform="translate(158.791 304.368)"><path class="hc" d="M-8.3,66.9V27.4L29.9,5.3,68.1,27.4V66.9h1.4V26.6L29.9,3.8-9.6,26.6V66.9Z" transform="translate(9.6 -3.8)"/></g><g transform="translate(236.624 304.368)"><path class="hd" d="M-8.3,66.9V27.4L29.9,5.3,68.1,27.4V66.9h1.4V26.6L29.9,3.8-9.6,26.6V66.9Z" transform="translate(9.6 -3.8)"/></g><g transform="translate(314.356 304.368)"><path class="he" d="M-8.3,66.9V27.4L29.9,5.3,68.1,27.4V66.9h1.4V26.6L29.9,3.8-9.7,26.6V66.9Z" transform="translate(9.7 -3.8)"/></g><g transform="translate(392.288 304.368)"><path class="hf" d="M69.1,66.9V26.3L29.9,3.8-9.6,26.6V66.9h1.4V27.4L29.9,5.3,68.1,27.4V66.9Z" transform="translate(9.6 -3.8)"/></g><g transform="translate(470.02 326.72)"><path class="hg" d="M-8.8,3.8l-.9.5V44.6h.9Z" transform="translate(9.7 -3.8)"/></g></g><g transform="translate(0 26.161)"><path class="hh" d="M-5.5,10.9A3.372,3.372,0,0,0-2.1,7.5,3.372,3.372,0,0,0-5.5,4.1,3.372,3.372,0,0,0-8.9,7.5h0A3.5,3.5,0,0,0-5.5,10.9Z" transform="translate(9.7 -3.8)"/><ellipse class="hi" cx="3.1" cy="3.1" rx="3.1" ry="3.1" transform="translate(240 0.7)"/><path class="hj" d="M293.1,10.5a3.009,3.009,0,0,0,3-3,2.946,2.946,0,0,0-3-3,3.009,3.009,0,0,0-3,3h0A3.075,3.075,0,0,0,293.1,10.5Z" transform="translate(9.7 -3.8)"/><ellipse class="hk" cx="1.9" cy="1.9" rx="1.9" ry="1.9" transform="translate(330.8 19.1)"/><path class="hl" d="M442.4,28a3.2,3.2,0,1,0-3.2-3.2,3.222,3.222,0,0,0,3.2,3.2Z" transform="translate(9.7 -3.8)"/><ellipse class="hm" cx="3.8" cy="3.8" rx="3.8" ry="3.8" transform="translate(418.5 0)"/><path class="hn" d="M265.8,24.8a2.5,2.5,0,1,0-2.5,2.5A2.476,2.476,0,0,0,265.8,24.8Z" transform="translate(9.7 -3.8)"/><ellipse class="ho" cx="2" cy="2" rx="2" ry="2" transform="translate(360.6 1.8)"/><ellipse class="hp" cx="2.1" cy="2.1" rx="2.1" ry="2.1" transform="translate(390.3 18.9)"/><path class="hq" d="M442.4,56.5a2.8,2.8,0,0,0-2.8,2.8,2.8,2.8,0,1,0,5.6,0,2.8,2.8,0,0,0-2.8-2.8Z" transform="translate(9.7 -3.8)"/><path class="hr" d="M22.4,128.2a2,2,0,1,0,2-2h0A2.149,2.149,0,0,0,22.4,128.2Z" transform="translate(9.7 -3.8)"/><ellipse class="hs" cx="3.2" cy="3.2" rx="3.2" ry="3.2" transform="translate(329.5 52.3)"/><path class="ht" d="M349.6,76.5a3.3,3.3,0,1,0,3.3-3.3,3.329,3.329,0,0,0-3.3,3.3Z" transform="translate(9.7 -3.8)"/><ellipse class="hu" cx="2" cy="2" rx="2" ry="2" transform="translate(390.4 122.4)"/><path class="hv" d="M352.9,108.4a2.6,2.6,0,1,0,2.6,2.6A2.647,2.647,0,0,0,352.9,108.4Z" transform="translate(9.7 -3.8)"/><ellipse class="hw" cx="2.8" cy="2.8" rx="2.8" ry="2.8" transform="translate(389.6 52.7)"/><ellipse class="hx" cx="4" cy="4" rx="4" ry="4" transform="translate(418.3 103.2)"/><path class="hy" d="M442.4,130.5a2.2,2.2,0,1,0-2.2-2.2,2.22,2.22,0,0,0,2.2,2.2Z" transform="translate(9.7 -3.8)"/><path class="hz" d="M412.6,80.4a3.9,3.9,0,0,0,3.9-3.9,3.971,3.971,0,0,0-3.9-3.9,3.9,3.9,0,0,0-3.9,3.9,3.842,3.842,0,0,0,3.9,3.9Z" transform="translate(9.7 -3.8)"/><path class="ia" d="M-5.5,114.8A3.8,3.8,0,0,0-1.7,111a3.8,3.8,0,0,0-3.8-3.8A3.8,3.8,0,0,0-9.3,111h0A3.8,3.8,0,0,0-5.5,114.8Z" transform="translate(9.7 -3.8)"/><path class="ib" d="M24.4,166a3.2,3.2,0,1,0-3.2-3.2h0A3.222,3.222,0,0,0,24.4,166Z" transform="translate(9.7 -3.8)"/><path class="ic" d="M85.7,162.7a1.5,1.5,0,1,0-1.5,1.5A1.415,1.415,0,0,0,85.7,162.7Z" transform="translate(9.7 -3.8)"/><ellipse class="id" cx="3" cy="3" rx="3" ry="3" transform="translate(120.7 173.2)"/><path class="ie" d="M146.7,162.7a2.9,2.9,0,1,0-2.9,2.9h0A2.9,2.9,0,0,0,146.7,162.7Z" transform="translate(9.7 -3.8)"/><ellipse class="if" cx="3.4" cy="3.4" rx="3.4" ry="3.4" transform="translate(180 172.8)"/><path class="ig" d="M-8,214.4a2.476,2.476,0,0,0,2.5,2.5A2.476,2.476,0,0,0-3,214.4a2.476,2.476,0,0,0-2.5-2.5A2.54,2.54,0,0,0-8,214.4Z" transform="translate(9.7 -3.8)"/><path class="ih" d="M-3.7,180a1.752,1.752,0,0,0-1.7-1.7A1.752,1.752,0,0,0-7.1,180a1.752,1.752,0,0,0,1.7,1.7A1.752,1.752,0,0,0-3.7,180Z" transform="translate(9.7 -3.8)"/><ellipse class="ii" cx="1.4" cy="1.4" rx="1.4" ry="1.4" transform="translate(62.6 174.8)"/><path class="ij" d="M81.8,231.7a2.4,2.4,0,1,0,2.4-2.4,2.369,2.369,0,0,0-2.4,2.4Z" transform="translate(9.7 -3.8)"/><path class="ik" d="M54.3,211a3.4,3.4,0,1,0,3.4,3.4A3.5,3.5,0,0,0,54.3,211Z" transform="translate(9.7 -3.8)"/><ellipse class="il" cx="3.7" cy="3.7" rx="3.7" ry="3.7" transform="translate(179.7 206.9)"/><path class="im" d="M382.7,229.8a1.8,1.8,0,1,0,1.8,1.8,1.793,1.793,0,0,0-1.8-1.8Z" transform="translate(9.7 -3.8)"/><ellipse class="in" cx="2.2" cy="2.2" rx="2.2" ry="2.2" transform="translate(390.2 156.7)"/><ellipse class="io" cx="4.2" cy="4.2" rx="4.2" ry="4.2" transform="translate(418.1 172)"/><path class="ip" d="M442.4,165a2.3,2.3,0,1,0-2.3-2.3h0A2.4,2.4,0,0,0,442.4,165Z" transform="translate(9.7 -3.8)"/><ellipse class="iq" cx="2.3" cy="2.3" rx="2.3" ry="2.3" transform="translate(31.8 225.6)"/><path class="ir" d="M24.4,269.9a3.7,3.7,0,1,0-3.7-3.7h0A3.757,3.757,0,0,0,24.4,269.9Z" transform="translate(9.7 -3.8)"/><ellipse class="is" cx="3.9" cy="3.9" rx="3.9" ry="3.9" transform="translate(119.8 206.7)"/><path class="it" d="M142.4,231.7a1.4,1.4,0,1,0,1.4-1.4h0A1.43,1.43,0,0,0,142.4,231.7Z" transform="translate(9.7 -3.8)"/><ellipse class="iu" cx="2.9" cy="2.9" rx="2.9" ry="2.9" transform="translate(180.5 276.7)"/><path class="iv" d="M143.8,261.8a4.4,4.4,0,1,0,4.4,4.4h0A4.375,4.375,0,0,0,143.8,261.8Z" transform="translate(9.7 -3.8)"/><path class="iw" d="M385.2,266.2a2.5,2.5,0,1,0-2.5,2.5h0A2.61,2.61,0,0,0,385.2,266.2Z" transform="translate(9.7 -3.8)"/><path class="ix" d="M442.4,234.9a3.2,3.2,0,1,0-3.2-3.2,3.222,3.222,0,0,0,3.2,3.2Z" transform="translate(9.7 -3.8)"/><path class="iy" d="M442.4,262.9a3.2,3.2,0,1,0,3.2,3.2h0A3.158,3.158,0,0,0,442.4,262.9Z" transform="translate(9.7 -3.8)"/><path class="iz" d="M-5.5,278.7a4.664,4.664,0,0,0-4.2,2.6v4.4a4.773,4.773,0,0,0,6.4,2,4.773,4.773,0,0,0,2-6.4A4.494,4.494,0,0,0-5.5,278.7Z" transform="translate(9.7 -3.8)"/><path class="ja" d="M24.4,337.2a2.1,2.1,0,0,0,0-4.2,2.051,2.051,0,0,0-2.1,2.1h0A2.18,2.18,0,0,0,24.4,337.2Z" transform="translate(9.7 -3.8)"/><path class="jb" d="M54.3,321.9a4.1,4.1,0,1,0-4.1-4.1h0A4.055,4.055,0,0,0,54.3,321.9Z" transform="translate(9.7 -3.8)"/><path class="jc" d="M54.3,280.5a2.9,2.9,0,1,0,2.9,2.9h0a3.039,3.039,0,0,0-2.9-2.9Z" transform="translate(9.7 -3.8)"/><path class="jd" d="M84.1,269.4a3.3,3.3,0,1,0-3.3-3.3h0A3.328,3.328,0,0,0,84.1,269.4Z" transform="translate(9.7 -3.8)"/><path class="je" d="M117.7,283.4a3.691,3.691,0,0,0-3.7-3.7,3.757,3.757,0,0,0-3.7,3.7,3.7,3.7,0,1,0,7.4,0Z" transform="translate(9.7 -3.8)"/><path class="jf" d="M143.8,338.1a2.9,2.9,0,1,0-2.9-2.9,2.968,2.968,0,0,0,2.9,2.9Z" transform="translate(9.7 -3.8)"/><ellipse class="jg" cx="3.1" cy="3.1" rx="3.1" ry="3.1" transform="translate(180.3 311)"/><path class="jh" d="M352.9,286a2.6,2.6,0,1,0-2.6-2.6,2.582,2.582,0,0,0,2.6,2.6Z" transform="translate(9.7 -3.8)"/><ellipse class="ji" cx="2.8" cy="2.8" rx="2.8" ry="2.8" transform="translate(419.5 276.8)"/><path class="jj" d="M-5.5,316.3A1.538,1.538,0,0,0-7,317.8a1.538,1.538,0,0,0,1.5,1.5A1.538,1.538,0,0,0-4,317.8a1.473,1.473,0,0,0-1.5-1.5Z" transform="translate(9.7 -3.8)"/><path class="jk" d="M84.1,331.3a3.9,3.9,0,1,0,3.9,3.9A3.842,3.842,0,0,0,84.1,331.3Z" transform="translate(9.7 -3.8)"/><ellipse class="jl" cx="1.7" cy="1.7" rx="1.7" ry="1.7" transform="translate(122 312.4)"/><ellipse class="jm" cx="2.3" cy="2.3" rx="2.3" ry="2.3" transform="translate(211 329)"/><path class="jn" d="M352.9,315a2.9,2.9,0,1,0,2.9,2.9A3.039,3.039,0,0,0,352.9,315Z" transform="translate(9.7 -3.8)"/><path class="jo" d="M381.1,335.1a1.6,1.6,0,1,0,1.6-1.6,1.58,1.58,0,0,0-1.6,1.6Z" transform="translate(9.7 -3.8)"/><path class="jp" d="M412.6,314.9a3,3,0,1,0,3,3h0a3.009,3.009,0,0,0-3-3Z" transform="translate(9.7 -3.8)"/><path class="jq" d="M442.4,331.6a3.478,3.478,0,0,0-3.5,3.5,3.543,3.543,0,0,0,3.5,3.5,3.478,3.478,0,0,0,3.5-3.5h0a3.417,3.417,0,0,0-3.5-3.5Z" transform="translate(9.7 -3.8)"/></g></g></g></g></svg>