<svg xmlns="http://www.w3.org/2000/svg" width="40.677" height="26.716" viewBox="0 0 40.677 26.716"><defs><style>.a{fill:#ff8e43;}</style></defs><path class="a" d="M40.656,73.586a37.969,37.969,0,0,0-1.115-7.346,28.2,28.2,0,0,0-2.28-6.181c-3.547-6.232-7.4-5.269-12.008-4.053a33,33,0,0,1-4.661.912h-.507a33,33,0,0,1-4.661-.912c-4.611-1.165-8.461-2.179-12.008,4.1a25.829,25.829,0,0,0-2.28,6.181A37.97,37.97,0,0,0,.022,73.637a13.805,13.805,0,0,0,.709,5.776,3.84,3.84,0,0,0,2.432,2.28,4.954,4.954,0,0,0,3.243-.355,23.814,23.814,0,0,0,6.485-4.611c1.571-1.52,4.509-2.28,7.448-2.28s5.877.76,7.448,2.28a23.814,23.814,0,0,0,6.485,4.611,5.3,5.3,0,0,0,3.243.355,3.786,3.786,0,0,0,2.432-2.331A13.547,13.547,0,0,0,40.656,73.586Zm-2.432,5.067a2.009,2.009,0,0,1-1.216,1.267,3.5,3.5,0,0,1-2.077-.253,20.662,20.662,0,0,1-5.877-4.205c-1.925-1.925-5.32-2.888-8.714-2.888s-6.789.963-8.765,2.787A21.052,21.052,0,0,1,5.7,79.564a3.143,3.143,0,0,1-2.077.253A2.009,2.009,0,0,1,2.4,78.551,11.98,11.98,0,0,1,1.9,73.687,34.948,34.948,0,0,1,2.961,66.7,24.175,24.175,0,0,1,5.089,60.97c2.787-5.016,6.029-4.205,9.88-3.192a29.72,29.72,0,0,0,4.965.963h.76a29.352,29.352,0,0,0,5.016-.963c3.851-.963,7.093-1.824,9.88,3.192A23.362,23.362,0,0,1,37.717,66.7a38.348,38.348,0,0,1,1.064,6.992A11.724,11.724,0,0,1,38.224,78.652Z" transform="translate(0 -55.109)"/><g transform="translate(5.24 5.05)"><path class="a" d="M51.81,98.528a3.078,3.078,0,0,0-1.824-.861,2.883,2.883,0,0,0-.811-1.773l-.051-.051a2.87,2.87,0,0,0-2.077-.861,2.991,2.991,0,0,0-2.077.861,2.945,2.945,0,0,0-.861,1.824,3.018,3.018,0,0,0-1.824.811l-.051.051a2.87,2.87,0,0,0-.861,2.077,2.991,2.991,0,0,0,.861,2.077,2.825,2.825,0,0,0,1.875.861,2.7,2.7,0,0,0,.861,1.824,2.87,2.87,0,0,0,2.077.861,2.992,2.992,0,0,0,2.077-.861,3.078,3.078,0,0,0,.861-1.824,2.7,2.7,0,0,0,1.824-.861,2.87,2.87,0,0,0,.861-2.077A2.992,2.992,0,0,0,51.81,98.528Zm-1.267,2.837a1.031,1.031,0,0,1-.76.3h-.709a.962.962,0,0,0-.963.963v.659a1.064,1.064,0,1,1-2.128,0v-.709a.962.962,0,0,0-.963-.963h-.709a1.039,1.039,0,0,1-.76-1.773l.051-.051a1.211,1.211,0,0,1,.709-.253h.709a.962.962,0,0,0,.963-.963v-.709a1.075,1.075,0,0,1,1.824-.76l.051.051a1.211,1.211,0,0,1,.253.709v.709a.962.962,0,0,0,.963.963h.709a1.075,1.075,0,0,1,.76,1.824Z" transform="translate(-41.373 -94.981)"/></g><g transform="translate(27.381 5.304)"><ellipse class="a" cx="1.773" cy="1.773" rx="1.773" ry="1.773"/></g><g transform="translate(27.381 12.498)"><g transform="translate(0 0)"><ellipse class="a" cx="1.773" cy="1.773" rx="1.773" ry="1.773"/></g></g><g transform="translate(23.784 8.901)"><g transform="translate(0 0)"><ellipse class="a" cx="1.773" cy="1.773" rx="1.773" ry="1.773"/></g></g><g transform="translate(30.978 8.901)"><g transform="translate(0 0)"><ellipse class="a" cx="1.773" cy="1.773" rx="1.773" ry="1.773"/></g></g></svg>