<svg xmlns="http://www.w3.org/2000/svg" width="36.456" height="35.643" viewBox="0 0 36.456 35.643"><defs><style>.a{fill:#d14155;}</style></defs><g transform="translate(0 -9.887)"><g transform="translate(0 9.887)"><path class="a" d="M18.812,38.978v2.563a5.732,5.732,0,0,0,4.093-.585s-1.17,1.988-4.677,1.988-4.679-1.988-4.679-1.988a5.735,5.735,0,0,0,4.094.585V39.01A4.92,4.92,0,0,1,16.472,38a4.56,4.56,0,0,1-2.924-1.754c-.475-.695.393-1.467,1.206-1.718a14.834,14.834,0,0,1,6.944-.037c.818.251,1.681,1.06,1.206,1.755A4.56,4.56,0,0,1,19.98,38a4.707,4.707,0,0,1-1.168.982M15.3,31.869a8.662,8.662,0,0,1,5.847,0s-.585-1.17-2.923-1.17-2.924,1.17-2.924,1.17M34.226,21.133c.772,1.709,2.527,8.4.749,13.121-1.987,5.172-6.36,5.428-6.36,5.428-4.025,5.684-7.393,5.848-10.389,5.848-2.97,0-6.365-.164-10.385-5.848,0,0-4.373-.256-6.365-5.428-1.777-4.724-.023-11.412.749-13.121-1.005-.818-4.606-4.327.26-9.17,4.3-4.327,7.036-.772,7.882.653a21.281,21.281,0,0,1,7.859-1.261,21.3,21.3,0,0,1,7.862,1.261c.841-1.426,3.577-4.98,7.882-.653,4.866,4.843,1.261,8.352.256,9.17m.7,6.947a2.694,2.694,0,0,1-.493.025,32.092,32.092,0,0,1-5.638-.8,3.874,3.874,0,0,1-.16,3.624s1.17,2.924,0,4.094A1.721,1.721,0,0,1,27,35.4a4.2,4.2,0,0,1,.845,2.55,5.689,5.689,0,0,0-2.015-3.041,2.644,2.644,0,0,0-.375-.233c-.023-.023-.023-.048-.046-.071a6.476,6.476,0,0,1-2.033-3.089c-.8-2.408-1.617-4.559-1.078-5.847-6.88-2.5-11.389-7.955-11.718-12.327a10.234,10.234,0,0,0-1.9.726,12.614,12.614,0,0,0-4.724,4.7c-.091.162-7.859,17.169,4.4,20.374a11.138,11.138,0,0,0,9.874,5.8,11.13,11.13,0,0,0,9.872-5.8c6.013-1.567,7.2-6.481,6.831-11.065m-2.435-9.309a12.581,12.581,0,0,0-4.724-4.7,23.448,23.448,0,0,0-9.543-1.942,24.871,24.871,0,0,0-5.94.724c.023,4.094,4.77,9.542,11.951,11.626a4.132,4.132,0,0,1,2.856.679c5.894,1.286,7.415,1.218,7.649,1.17a30.834,30.834,0,0,0-2.248-7.555M12.429,24.5A4.3,4.3,0,0,0,7.75,26.935a3.994,3.994,0,0,0,0,4s-1.17,2.924,0,4.094a1.745,1.745,0,0,0,1.59.4,4.249,4.249,0,0,0-.868,2.527A5.475,5.475,0,0,1,10.414,35a3.221,3.221,0,0,1,.471-.327.251.251,0,0,0,.069-.048,6.444,6.444,0,0,0,2.061-3.111c1.17-3.508,2.339-6.432-.585-7.017M25.408,34.606l-.023.023a.251.251,0,0,0,.069.048c-.023-.023-.023-.048-.046-.071" transform="translate(0 -9.887)"/></g></g></svg>