<svg xmlns="http://www.w3.org/2000/svg" xmlns:xlink="http://www.w3.org/1999/xlink" width="49.094" height="48" viewBox="0 0 49.094 48"><defs><style>.a{fill:url(#a);}</style><linearGradient id="a" x1="0.5" x2="0.5" y2="1" gradientUnits="objectBoundingBox"><stop offset="0" stop-color="#d14155"/><stop offset="1" stop-color="#ff8e43"/></linearGradient></defs><path class="a" d="M25.333,49.063v3.452a7.719,7.719,0,0,0,5.511-.788s-1.575,2.677-6.3,2.677-6.3-2.677-6.3-2.677a7.723,7.723,0,0,0,5.513.788V49.107a6.626,6.626,0,0,1-1.575-1.366,6.141,6.141,0,0,1-3.938-2.363c-.64-.935.529-1.975,1.624-2.313a19.976,19.976,0,0,1,9.351-.049c1.1.338,2.264,1.427,1.624,2.363a6.141,6.141,0,0,1-3.938,2.363,6.339,6.339,0,0,1-1.574,1.323m-4.726-9.574a11.665,11.665,0,0,1,7.874,0s-.787-1.575-3.936-1.575-3.938,1.575-3.938,1.575M46.092,25.032c1.04,2.3,3.4,11.308,1.009,17.67-2.676,6.965-8.565,7.31-8.565,7.31-5.421,7.654-9.955,7.876-13.99,7.876-4,0-8.571-.222-13.986-7.876,0,0-5.888-.345-8.571-7.31C-.4,36.339,1.958,27.333,3,25.032c-1.354-1.1-6.2-5.827.351-12.349,5.8-5.827,9.476-1.04,10.614.88a28.659,28.659,0,0,1,10.583-1.7,28.684,28.684,0,0,1,10.588,1.7c1.132-1.92,4.818-6.707,10.614-.88,6.553,6.522,1.7,11.247.345,12.349m.948,9.356a3.628,3.628,0,0,1-.665.034,43.217,43.217,0,0,1-7.593-1.074,5.216,5.216,0,0,1-.215,4.881s1.575,3.938,0,5.513a2.318,2.318,0,0,1-2.209.5A5.649,5.649,0,0,1,37.5,47.679a7.661,7.661,0,0,0-2.714-4.095,3.561,3.561,0,0,0-.5-.314c-.031-.031-.031-.065-.061-.1a8.721,8.721,0,0,1-2.738-4.159c-1.071-3.243-2.178-6.139-1.452-7.874-9.265-3.372-15.338-10.712-15.781-16.6a13.782,13.782,0,0,0-2.553.978A16.987,16.987,0,0,0,5.33,21.85c-.123.218-10.583,23.121,5.919,27.438a15,15,0,0,0,13.3,7.811,14.988,14.988,0,0,0,13.295-7.811c8.1-2.11,9.7-8.728,9.2-14.9M43.76,21.85A16.943,16.943,0,0,0,37.4,15.519,31.578,31.578,0,0,0,24.546,12.9a33.493,33.493,0,0,0-8,.975c.031,5.513,6.424,12.85,16.094,15.656a5.564,5.564,0,0,1,3.846.914c7.937,1.732,9.986,1.64,10.3,1.575A41.523,41.523,0,0,0,43.76,21.85M16.737,29.566a5.792,5.792,0,0,0-6.3,3.279,5.379,5.379,0,0,0,0,5.382s-1.575,3.938,0,5.513a2.35,2.35,0,0,0,2.141.535,5.722,5.722,0,0,0-1.169,3.4,7.373,7.373,0,0,1,2.615-3.969,4.338,4.338,0,0,1,.634-.44.338.338,0,0,0,.092-.065,8.678,8.678,0,0,0,2.775-4.19c1.575-4.724,3.15-8.662-.788-9.449M34.216,43.175l-.031.031a.338.338,0,0,0,.092.065c-.031-.031-.031-.065-.061-.1" transform="translate(0 -9.887)"/></svg>