<?xml version="1.0" encoding="utf-8"?>
<!-- Generator: Adobe Illustrator 23.0.3, SVG Export Plug-In . SVG Version: 6.00 Build 0)  -->
<svg version="1.1" id="Layer_1" xmlns="http://www.w3.org/2000/svg" xmlns:xlink="http://www.w3.org/1999/xlink" x="0px" y="0px"
	 viewBox="0 0 309 431" style="enable-background:new 0 0 309 431;" xml:space="preserve">
<style type="text/css">
	.st0{fill:#FFFFFF;}
	.st1{fill:#ADADAD;}
	.st2{fill:#252525;}
	.st3{fill:#666666;}
	.st4{fill:#7C7C7C;}
	.st5{fill:#DBDBDB;}
	.st6{fill:#EF7349;}
	.st7{fill:#FD8A43;}
	.st8{fill:#DE574F;}
	.st9{fill:#159237;}
	.st10{fill:url(#SVGID_1_);}
	.st11{fill:url(#SVGID_2_);}
	.st12{fill:url(#SVGID_3_);}
	.st13{fill:url(#SVGID_4_);}
	.st14{fill:url(#SVGID_5_);}
	.st15{fill:url(#SVGID_6_);}
	.st16{fill:url(#SVGID_7_);}
	.st17{opacity:0.12;}
</style>
<g>
	<polygon class="st0" points="40.91,169.63 24.89,111.94 64.94,101.36 127,27.33 175.05,63.87 206.09,44.64 278.16,146.55 
		246.13,168.66 54.93,190.78 	"/>
	<g>
		<polygon class="st1" points="145.49,184.97 63.06,122.13 128.49,42.95 210.92,105.79 		"/>
		<ellipse class="st2" cx="96.78" cy="118.4" rx="11.08" ry="10.64"/>
		<ellipse class="st2" cx="132.37" cy="75.34" rx="11.08" ry="10.64"/>
		<ellipse class="st2" cx="177.2" cy="109.52" rx="11.08" ry="10.64"/>
		<ellipse class="st2" cx="141.62" cy="152.58" rx="11.08" ry="10.64"/>
		<ellipse class="st2" cx="138.29" cy="113.82" rx="11.08" ry="10.64"/>
	</g>
	<g>
		<polygon class="st3" points="55.76,177.91 39.28,120.67 98.88,104.84 115.36,162.08 		"/>
		<ellipse class="st2" cx="56.63" cy="130.11" rx="6.51" ry="6.25"/>
		<ellipse class="st2" cx="89.04" cy="121.5" rx="6.51" ry="6.25"/>
		<ellipse class="st2" cx="98" cy="152.64" rx="6.51" ry="6.25"/>
		<ellipse class="st2" cx="65.59" cy="161.24" rx="6.51" ry="6.25"/>
		<ellipse class="st2" cx="77.98" cy="141.74" rx="6.51" ry="6.25"/>
	</g>
	<g>
		<polygon class="st4" points="112.71,117.3 202.18,58.74 263.15,144.67 173.68,203.23 		"/>
		<ellipse class="st2" cx="195.68" cy="91.69" rx="11.4" ry="10.95"/>
		<ellipse class="st2" cx="228.84" cy="138.43" rx="11.4" ry="10.95"/>
		<ellipse class="st2" cx="180.18" cy="170.27" rx="11.4" ry="10.95"/>
		<ellipse class="st2" cx="147.02" cy="123.54" rx="11.4" ry="10.95"/>
		<ellipse class="st2" cx="187.68" cy="132.25" rx="11.4" ry="10.95"/>
	</g>
	<g>
		<polygon class="st5" points="99.26,174.34 55.53,132.34 99.26,90.35 142.98,132.34 		"/>
		<ellipse class="st2" cx="75.47" cy="132.34" rx="6.51" ry="6.25"/>
		<ellipse class="st2" cx="99.26" cy="109.5" rx="6.51" ry="6.25"/>
		<ellipse class="st2" cx="123.04" cy="132.34" rx="6.51" ry="6.25"/>
		<ellipse class="st2" cx="99.26" cy="155.18" rx="6.51" ry="6.25"/>
		<ellipse class="st2" cx="100.02" cy="132.34" rx="6.51" ry="6.25"/>
	</g>
	<g>
		<polygon class="st5" points="149.56,151.3 168.84,94.87 227.59,113.38 208.32,169.81 		"/>
		<ellipse class="st2" cx="177.84" cy="111.96" rx="6.51" ry="6.25"/>
		<ellipse class="st2" cx="209.8" cy="122.03" rx="6.51" ry="6.25"/>
		<ellipse class="st2" cx="199.31" cy="152.72" rx="6.51" ry="6.25"/>
		<ellipse class="st2" cx="167.36" cy="142.65" rx="6.51" ry="6.25"/>
		<ellipse class="st2" cx="193.81" cy="117.66" rx="6.51" ry="6.25"/>
	</g>
	<path class="st6" d="M58.42,173.65l-7.33,26.14l21.98,44.74l23.03,51.78l94.22-5.53c0,0,42.92-83.96,44.49-85.46
		c1.57-1.51,16.23-49.77,16.23-49.77l-36.12-10.56l-48.68-27.15L80.4,150.02L58.42,173.65z"/>
	<path class="st7" d="M67.84,227.44c0,0,16.23,12.07,54.96,14.58c-0.52,0-13.61,3.52-26.17,3.02c0,0-2.09,20.11,26.7,47.26
		l-71.19-32.68l9.95-41.22L67.84,227.44z"/>
	<path class="st8" d="M196.08,246.55c0,0-53.39,34.69-92.13,33.68L69.41,256.6l16.75,50.78c0,0,25.13,25.14,28.79,27.15
		s52.34,9.55,52.34,9.55s44.49-41.73,47.63-44.24c3.14-2.51,29.31-71.89,30.36-75.41c1.05-3.52-5.76-22.62-5.76-22.62L196.08,246.55
		z"/>
	<path class="st7" d="M229.58,250.57c0,0-7.33,24.63-63.34,77.42l18.84,14.58l36.64-18.6l15.7-28.66l5.76-57.31L229.58,250.57z"/>
	<path class="st8" d="M79.88,294.81c0,0-5.23,30.67,32.98,109.6l-3.66,6.03c0,0-74.85-104.07-64.38-149.81
		c-1.05-0.5,32.45,19.61,32.45,19.61L79.88,294.81z"/>
	<path class="st8" d="M166.25,327.99c0,0,29.84-1.01,55.48-11.06c-1.05,2.51-23.03,32.68-23.03,32.68l-61.24-8.04l-1.57-15.58
		L166.25,327.99z"/>
	<path class="st2" d="M112.86,309.89c0,0,21.4,23.12,46.03,29.66c-0.47,0.01-12.01-7.03-14.1-8.04s10.47,0.5,21.46-3.52
		C165.73,327.99,128.04,323.97,112.86,309.89z"/>
	<path class="st6" d="M111.72,307.94c0,0,24.69,33.62,86.46,40.16c0,0-56.01,48.26-84.8,61.84c0,0-43.97-62.84-37.16-119.15
		C76.22,290.79,97.5,292.92,111.72,307.94z"/>
	<g>
		<path class="st0" d="M123.42,292.46c0.14,0.11,0.29,0.22,0.43,0.33C123.85,292.74,123.69,292.63,123.42,292.46z"/>
		<path class="st0" d="M251.05,188.23c6.68-12.83,10.33-36.81,10.46-37.2c-49.2-3.52-95.79-34.69-95.79-34.69
			c-17.8,3.02-52.34,17.09-63.34,22.12s-57.05,17.6-57.05,17.6c1.05,19.61-3.14,51.78-3.14,51.78c3.14,3.52,6.8,18.6,6.8,18.1
			c-8.38,11.06-20.41,57.81-20.41,57.81C68.37,378.26,110.24,422,110.24,422s57.94-41.44,83.75-62.34
			c26.7-21.62,38.39-43.18,46.06-62.84c7.85-20.11,8.38-61.33,8.38-61.33c9.42-17.09,7.33-32.17,4.19-35.69
			C249.48,196.27,251.05,188.23,251.05,188.23z M196.08,246.55c11.84-3.95,40.88-30.26,41.35-31.62
			c-0.01,22.09-7.85,35.65-7.85,35.65l6.28-4.02c4.19,69.38-40.3,100.55-40.83,100.04c-29.31,23.13-82.18,57.81-82.18,57.81
			c-45.02-46.25-61.24-133.73-61.24-133.73s12.56,18.6,34.55,26.14c21.98,7.54,27.22,13.07,27.22,13.07
			c-3.14-6.03-28.27-36.2-28.27-36.2c2.62,3.02,12.56,11.06,19.37,12.07c6.06,0.9,16.69,5.38,18.93,6.7
			c-30.17-23.2-55.57-65.02-55.57-65.02c6.8,5.53,25.13,10.05,25.13,10.05c-26.17-18.1-35.59-46.75-35.59-46.75
			c30.36-41.22,105.73-65.86,105.73-65.86c28.79,25.14,76.42,36.7,76.95,36.2C236.91,203.31,197.13,246.55,196.08,246.55z"/>
		<path class="st0" d="M261.51,151.03C261.51,151.03,261.51,151.03,261.51,151.03C261.51,151.02,261.51,151.02,261.51,151.03z"/>
	</g>
	<polygon class="st8" points="161.54,143.49 174.62,157.56 158.4,179.68 165.2,157.06 	"/>
	<g>
		<path class="st9" d="M390.68,287.53l-12.16,5.93c-1.18-2.29-2.96-4.15-5.18-5.46c3.77-0.33,7.65-1,11.65-2
			c1.37-0.34,2.73-0.71,4.08-1.11C389.67,285.74,390.2,286.62,390.68,287.53z"/>
		<path class="st9" d="M392.81,297v2.92c0,15.05-12.71,27.26-28.38,27.26c-15.76,0-28.38-12.21-28.38-27.26
			c0-7.41,3.06-14.15,8.07-19.07c0.42,0.47,0.89,0.92,1.4,1.37c1.99,1.75,4.69,3.19,8.08,4.34c1.15,0.38,2.41,0.71,3.79,0.96
			c-4.63,2.28-7.62,6.84-7.62,12.4c0,8.05,6.27,13.98,14.66,13.98c5.44,0,9.95-2.57,12.53-6.55h-12.62V297H392.81z"/>
		<path class="st9" d="M432.69,306.36c6.37-2.12,10.78-8.05,10.78-15.31c0-9.21-7.09-16.73-16.95-16.73h-10.54
			c-4.23,2.43-8.62,4.63-13.16,6.6c-0.3,0.12-0.6,0.26-0.9,0.37v46.13h14.09v-19.47h3.22l12.9,19.47H448L432.69,306.36z
			 M424.22,297.08h-8.2V286.1h8.2c3.32,0,5.72,2.31,5.72,5.49S427.54,297.08,424.22,297.08z"/>
		<path class="st9" d="M450.29,299.92c0-15.05,12.62-27.26,28.38-27.26c15.67,0,28.38,12.21,28.38,27.26
			c0,15.05-12.72,27.26-28.38,27.26C462.92,327.18,450.29,314.97,450.29,299.92z M493.24,299.92c0-8.05-6.27-13.98-14.56-13.98
			c-8.39,0-14.65,5.93-14.65,13.98s6.27,13.98,14.65,13.98C486.97,313.9,493.24,307.97,493.24,299.92z"/>
		<path class="st9" d="M514.89,309.57v-36.2h14.1V307c0,4.69,4.24,8.41,9.58,8.41c5.34,0,9.58-3.72,9.58-8.41v-33.63h14.1v36.2
			c0,9.91-10.41,17.61-23.68,17.61S514.89,319.48,514.89,309.57z"/>
		<path class="st9" d="M625.92,273.37v53.1h-14.84l-24.88-32.57v32.57h-14.1v-53.1h14.74l24.97,32.48v-32.48H625.92z"/>
		<path class="st9" d="M655.22,273.37h-19.16v53.1h19.16c6.33,0,12.2-2.06,16.89-5.55c-0.9-1.36-1.52-2.94-1.76-4.67
			c-0.87-6.33,3.77-12.14,10.36-12.97c0.65-0.08,1.31-0.12,1.95-0.1c0.14-1.07,0.21-2.16,0.21-3.27
			C682.87,285.22,670.43,273.37,655.22,273.37z M655.22,314.7h-5.06v-29.56h5.06c7.65,0,13.64,6.47,13.64,14.78
			C668.86,308.24,662.87,314.7,655.22,314.7z"/>
	</g>
	<g>
		<g>
			<linearGradient id="SVGID_1_" gradientUnits="userSpaceOnUse" x1="413.2338" y1="189.8763" x2="383.6338" y2="282.6763">
				<stop  offset="0" style="stop-color:#FB8844"/>
				<stop  offset="1" style="stop-color:#D24354"/>
			</linearGradient>
			<path class="st10" d="M390.68,287.53l-12.16,5.93c-1.18-2.29-2.96-4.15-5.18-5.46c3.77-0.33,7.65-1,11.65-2
				c1.37-0.34,2.73-0.71,4.08-1.11C389.67,285.74,390.2,286.62,390.68,287.53z"/>
			<linearGradient id="SVGID_2_" gradientUnits="userSpaceOnUse" x1="400.7943" y1="185.9085" x2="371.1943" y2="278.7085">
				<stop  offset="0" style="stop-color:#FB8844"/>
				<stop  offset="1" style="stop-color:#D24354"/>
			</linearGradient>
			<path class="st11" d="M392.81,297v2.92c0,15.05-12.71,27.26-28.38,27.26c-15.76,0-28.38-12.21-28.38-27.26
				c0-7.41,3.06-14.15,8.07-19.07c0.42,0.47,0.89,0.92,1.4,1.37c1.99,1.75,4.69,3.19,8.08,4.34c1.15,0.38,2.41,0.71,3.79,0.96
				c-4.63,2.28-7.62,6.84-7.62,12.4c0,8.05,6.27,13.98,14.66,13.98c5.44,0,9.95-2.57,12.53-6.55h-12.62V297H392.81z"/>
			<linearGradient id="SVGID_3_" gradientUnits="userSpaceOnUse" x1="457.0239" y1="203.8438" x2="427.4239" y2="296.6438">
				<stop  offset="0" style="stop-color:#FB8844"/>
				<stop  offset="1" style="stop-color:#D24354"/>
			</linearGradient>
			<path class="st12" d="M432.69,306.36c6.37-2.12,10.78-8.05,10.78-15.31c0-9.21-7.09-16.73-16.95-16.73h-10.54
				c-4.23,2.43-8.62,4.63-13.16,6.6c-0.3,0.12-0.6,0.26-0.9,0.37v46.13h14.09v-19.47h3.22l12.9,19.47H448L432.69,306.36z
				 M424.22,297.08h-8.2V286.1h8.2c3.32,0,5.72,2.31,5.72,5.49S427.54,297.08,424.22,297.08z"/>
			<linearGradient id="SVGID_4_" gradientUnits="userSpaceOnUse" x1="504.4879" y1="218.9832" x2="474.8879" y2="311.7832">
				<stop  offset="0" style="stop-color:#FB8844"/>
				<stop  offset="1" style="stop-color:#D24354"/>
			</linearGradient>
			<path class="st13" d="M450.29,299.92c0-15.05,12.62-27.26,28.38-27.26c15.67,0,28.38,12.21,28.38,27.26
				c0,15.05-12.72,27.26-28.38,27.26C462.92,327.18,450.29,314.97,450.29,299.92z M493.24,299.92c0-8.05-6.27-13.98-14.56-13.98
				c-8.39,0-14.65,5.93-14.65,13.98s6.27,13.98,14.65,13.98C486.97,313.9,493.24,307.97,493.24,299.92z"/>
			<linearGradient id="SVGID_5_" gradientUnits="userSpaceOnUse" x1="556.7204" y1="235.6436" x2="527.1204" y2="328.4436">
				<stop  offset="0" style="stop-color:#FB8844"/>
				<stop  offset="1" style="stop-color:#D24354"/>
			</linearGradient>
			<path class="st14" d="M514.89,309.57v-36.2h14.1V307c0,4.69,4.24,8.41,9.58,8.41c5.34,0,9.58-3.72,9.58-8.41v-33.63h14.1v36.2
				c0,9.91-10.41,17.61-23.68,17.61S514.89,319.48,514.89,309.57z"/>
			<linearGradient id="SVGID_6_" gradientUnits="userSpaceOnUse" x1="613.717" y1="253.8235" x2="584.1169" y2="346.6235">
				<stop  offset="0" style="stop-color:#FB8844"/>
				<stop  offset="1" style="stop-color:#D24354"/>
			</linearGradient>
			<path class="st15" d="M625.92,273.37v53.1h-14.84l-24.88-32.57v32.57h-14.1v-53.1h14.74l24.97,32.48v-32.48H625.92z"/>
			<linearGradient id="SVGID_7_" gradientUnits="userSpaceOnUse" x1="665.1176" y1="270.2186" x2="635.5176" y2="363.0186">
				<stop  offset="0" style="stop-color:#FB8844"/>
				<stop  offset="1" style="stop-color:#D24354"/>
			</linearGradient>
			<path class="st16" d="M655.22,273.37h-19.16v53.1h19.16c6.33,0,12.2-2.06,16.89-5.55c-0.9-1.36-1.52-2.94-1.76-4.67
				c-0.87-6.33,3.77-12.14,10.36-12.97c0.65-0.08,1.31-0.12,1.95-0.1c0.14-1.07,0.21-2.16,0.21-3.27
				C682.87,285.22,670.43,273.37,655.22,273.37z M655.22,314.7h-5.06v-29.56h5.06c7.65,0,13.64,6.47,13.64,14.78
				C668.86,308.24,662.87,314.7,655.22,314.7z"/>
		</g>
	</g>
	<g class="st17">
		<path class="st0" d="M390.68,287.53l-12.16,5.93c-1.18-2.29-2.96-4.15-5.18-5.46c3.77-0.33,7.65-1,11.65-2
			c1.37-0.34,2.73-0.71,4.08-1.11C389.67,285.74,390.2,286.62,390.68,287.53z"/>
		<path class="st0" d="M353.6,286.56c1.15,0.38,2.42,0.71,3.79,0.96c-4.62,2.28-7.62,6.84-7.62,12.4c0,0.72,0.05,1.43,0.15,2.11
			h-13.79c-0.06-0.7-0.08-1.41-0.08-2.11c0-7.41,3.06-14.15,8.07-19.06c0.42,0.47,0.89,0.92,1.4,1.37
			C347.51,283.97,350.21,285.42,353.6,286.56z"/>
		<path class="st0" d="M392.81,297v2.92c0,0.71-0.03,1.42-0.08,2.11h-28.39V297H392.81z"/>
		<path class="st0" d="M426.53,274.33h-10.54c-4.24,2.43-8.62,4.64-13.17,6.6c-0.3,0.13-0.6,0.26-0.9,0.38v20.73h37.43
			c2.59-2.85,4.13-6.67,4.13-10.98C443.48,281.85,436.39,274.33,426.53,274.33z M424.22,297.08h-8.2v-10.98h8.2
			c3.32,0,5.72,2.31,5.72,5.5C429.93,294.77,427.54,297.08,424.22,297.08z"/>
		<path class="st0" d="M478.68,272.66c-15.76,0-28.39,12.21-28.39,27.26c0,0.71,0.03,1.42,0.08,2.11h13.8
			c-0.1-0.68-0.15-1.39-0.15-2.11c0-8.05,6.26-13.98,14.65-13.98c8.29,0,14.56,5.93,14.56,13.98c0,0.72-0.05,1.43-0.15,2.11h13.89
			c0.06-0.7,0.08-1.41,0.08-2.11C507.06,284.87,494.34,272.66,478.68,272.66z"/>
		<path class="st0" d="M548.15,273.37v28.67h14.1v-28.67H548.15z M514.89,302.03h14.09v-28.67h-14.09V302.03z"/>
		<path class="st0" d="M611.82,273.37v28.67h14.1v-28.67H611.82z M572.1,273.37v28.67h14.1v-8.13l6.21,8.13h16.47l-22.04-28.67
			H572.1z"/>
		<path class="st0" d="M655.22,273.37h-19.16v28.66h14.09v-16.89h5.06c7.65,0,13.64,6.47,13.64,14.78c0,0.72-0.05,1.42-0.14,2.11
			h14.05c0.07-0.7,0.1-1.4,0.1-2.11C682.87,285.22,670.43,273.37,655.22,273.37z"/>
	</g>
	<path class="st0" d="M683.32,321.86c-2.95,0.37-5.71-0.98-7.21-3.24c-0.56-0.84-0.93-1.81-1.08-2.87
		c-0.53-3.89,2.31-7.45,6.36-7.96c0.4-0.05,0.8-0.07,1.2-0.06c3.55,0.1,6.61,2.66,7.09,6.16
		C690.21,317.78,687.37,321.34,683.32,321.86z"/>
	<g>
		<path class="st0" d="M719.04,271.14c0.56,0,1.01,0.3,1.35,0.89v0.41c-1.23,1-2.08,1.86-2.56,2.6c-1.86,2.54-3.68,6.36-5.44,11.45
			c-1.77,5.09-3.27,9.79-4.52,14.1h0.17c1.04-1.6,2.46-3.06,4.26-4.36c1.8-1.3,3.79-1.94,5.96-1.92c1.75,0.02,3.04,0.8,3.89,2.34
			c0.84,1.54,1.22,3.31,1.12,5.3c-0.23,2.84-0.92,5.45-2.07,7.83c-1.65,3.85-3.87,7.12-6.65,9.79c-2.52,2.31-5.34,3.44-8.47,3.4
			c-1.15-0.02-1.91-0.4-2.28-1.16c-0.75,0.7-1.63,1.04-2.65,1.02c-1.54-0.02-2.68-0.55-3.43-1.6c-0.86-1-1.3-2.22-1.32-3.68
			c0.02-2.23,0.5-4.92,1.44-8.08c0.94-3.15,2.6-8.34,4.98-15.57c1.21-4.07,2.42-7.5,3.63-10.27c1.21-2.77,2.77-5.52,4.67-8.23
			C713.58,272.36,716.22,270.94,719.04,271.14z M703.11,319.45c0.12,0.7,0.38,1.25,0.81,1.66h0.09c0.21-0.17,0.79-0.4,1.73-0.69
			c1.4-0.79,2.87-2.11,4.41-3.96c1.42-1.51,2.99-4.12,4.71-7.83c1.72-3.71,2.57-6.82,2.55-9.35c0.02-0.94-0.53-1.41-1.64-1.41
			c-0.92-0.02-2.04,0.46-3.34,1.44c-0.98,0.68-2.21,2.01-3.69,3.98c-2.05,3.13-3.71,7.09-4.95,11.86
			C703.43,316.55,703.21,317.98,703.11,319.45z"/>
		<path class="st0" d="M740.66,294.48c1.5,0.02,2.61,0.44,3.34,1.27c0.73,0.83,1.11,1.73,1.15,2.71c-0.02,1.49-0.44,3.06-1.25,4.69
			c-0.82,1.63-1.94,3.02-3.38,4.16c-2.71,1.86-5.01,2.99-6.91,3.37c-0.67,0.07-1.03-0.07-1.07-0.44c0.06-0.52,0.39-0.89,1.01-1.13
			c2.02-1.12,3.66-2.91,4.92-5.37c1.27-2.45,1.9-4.35,1.9-5.7c0.02-0.88-0.35-1.29-1.09-1.22c-1.96-0.02-4.02,2.15-6.18,6.51
			c-2.16,4.36-3.25,8.25-3.27,11.66c-0.33,3.13,0.69,4.77,3.05,4.9c1.13,0.02,2.73-0.55,4.78-1.72c2.05-1.16,4.09-3.09,6.1-5.78
			c0.94-0.15,1.36,0.27,1.27,1.24c-0.17,0.87-0.81,1.85-1.9,2.96c-4.2,3.98-8.11,5.97-11.72,5.97c-2.69,0.02-4.8-0.59-6.35-1.81
			c-1.55-1.23-2.3-3.29-2.26-6.18c0.02-5.07,2.35-10.06,7-14.96C733.44,296.16,737.05,294.44,740.66,294.48z"/>
		<path class="st0" d="M762.81,275.4c0.75,0,1.07,0.3,0.98,0.89c-0.71,0.63-1.3,1.38-1.76,2.27c-0.86,1.53-2.01,4.54-3.43,9.02
			c0.02,0.11,0.32,0.14,0.91,0.1c0.58-0.05,1.38-0.05,2.38,0s1.46,0.51,1.38,1.4c0,0.85-0.98,1.35-2.94,1.49
			c-0.86,0.04-1.59,0.06-2.17,0.07c-0.59,0.01-0.89,0.17-0.91,0.48l-4.95,16.29c-1.77,5.86-2.58,9.11-2.45,9.73v0.19
			c0.12,0.52,0.54,0.77,1.27,0.77c1.65,0.02,3.65-1.79,5.99-5.42c0.17-0.66,0.55-1,1.12-1c0.21,0.11,0.39,0.23,0.55,0.36
			c0.25,0.61,0.15,1.33-0.29,2.16c-0.44,0.83-1.03,1.73-1.76,2.71c-1.34,1.66-2.91,3.07-4.69,4.25c-1.79,1.17-3.63,1.63-5.53,1.37
			c-1.27-0.37-2.26-1.02-2.97-1.96c-0.5-0.83-0.83-1.61-0.98-2.35c-0.19-0.94-0.09-2.19,0.32-3.76c0.83-3.06,1.79-6.23,2.89-9.51
			c1.1-3.28,2.58-8.08,4.42-14.38c-0.25-0.07-0.64-0.1-1.18-0.08c-0.54,0.05-1.26,0.33-2.16,0.83c-0.85,0-1.27-0.47-1.27-1.41
			c0.09-0.92,0.93-1.62,2.5-2.1c0.92-0.18,2-0.3,3.23-0.36c1.07-2.56,2.03-4.56,2.85-6C756.57,277.41,759.45,275.4,762.81,275.4z"/>
	</g>
	<polygon class="st9" points="611.82,302.03 611.82,305.85 608.89,302.03 	"/>
	<g>
		<path class="st0" d="M467.29,172.35c-0.25-1.47-0.79-3.05-1.62-4.73c-0.84-1.67-2.08-3.34-3.72-4.98s-3.88-3.13-6.71-4.48
			c-2.83-1.35-6.33-2.43-10.49-3.27c-4.15-0.85-9.17-1.26-15.04-1.26c-10.84,0-21.16,1.02-30.98,3.07
			c-9.82,2.05-18.97,4.77-27.46,8.15c-8.5,3.39-16.19,7.29-23.06,11.68c-6.89,4.39-12.77,8.94-17.67,13.64
			c-4.89,4.7-8.66,9.36-11.32,14c-2.65,4.62-3.98,8.89-3.98,12.79c0,3.09,0.51,5.65,1.52,7.7s2.32,3.67,3.93,4.87
			c1.61,1.21,3.37,2.06,5.3,2.52c1.92,0.47,3.79,0.71,5.61,0.71h0.63c3.28,0,7.01-1.06,11.16-3.17c4.15-2.12,8.49-4.79,13-8.01
			c4.5-3.22,9.01-6.76,13.51-10.62c4.51-3.86,8.72-7.57,12.63-11.12c3.07-2.68,5.76-5.05,8.02-7.1c2.27-2.05,4.42-3.78,6.45-5.18
			c-1.32,3.15-3,6.76-5.03,10.82c-2.03,4.07-4.12,8.21-6.3,12.44c-0.41-0.13-0.8-0.31-1.15-0.51c-0.35-0.2-0.66-0.37-0.94-0.5
			c-0.42-0.34-0.87-0.63-1.36-0.9c-0.49-0.27-1.05-0.4-1.68-0.4c-1.46,0-2.53,0.36-3.19,1.06c-0.66,0.7-1,1.62-1,2.77
			c0,1.08,0.42,2.3,1.26,3.67c0.84,1.37,1.96,2.63,3.35,3.78c-1.39,2.82-2.72,5.54-3.98,8.15c-1.25,2.62-2.35,5.07-3.3,7.35
			c-0.94,2.29-1.67,4.37-2.19,6.25c-0.53,1.87-0.79,3.45-0.79,4.73c0,1.87,0.4,3.58,1.2,5.09c0.81,1.51,1.82,2.8,3.04,3.87
			c1.22,1.08,2.55,1.91,3.98,2.52c1.43,0.6,2.74,0.9,3.93,0.9c1.11,0,1.95-0.13,2.51-0.4c0.56-0.27,0.89-0.65,1-1.15
			c0.1-0.51,0.08-1.1-0.06-1.77c-0.14-0.66-0.31-1.37-0.52-2.12v0.11c-0.14-0.34-0.25-0.65-0.31-0.96c-0.07-0.3-0.11-0.62-0.11-0.95
			c0-1.08,0.35-2.55,1.05-4.43c0.7-1.87,1.62-4.04,2.77-6.49c1.15-2.45,2.48-5.12,3.98-8.01s3.09-5.87,4.78-8.96
			c3-0.27,6.08-0.75,9.22-1.46c3.14-0.7,6.36-1.62,9.65-2.77h2.3c2.72,0,4.98,0.24,6.76,0.71c1.79,0.47,3.18,1.06,4.19,1.76
			c1.01,0.7,1.71,1.53,2.1,2.47c0.38,0.93,0.57,1.85,0.57,2.71c0,2.42-0.92,5.13-2.77,8.15c-1.85,3.03-4.42,6.1-7.71,9.22
			c-3.28,3.12-7.23,6.17-11.84,9.16c-4.61,2.98-9.65,5.63-15.1,7.95c-5.46,2.32-11.27,4.17-17.46,5.59
			c-1.55,0.36-3.12,0.66-4.69,0.92c-4.69,0.8-9.46,1.19-14.33,1.19c-1.47,0-2.71-0.13-3.7-0.38c-0.94-0.23-1.65-0.58-2.17-1.04
			c-1.05-0.93-1.57-1.81-1.57-2.62c0-2.62-0.54-4.6-1.62-5.94c-1.08-1.34-2.29-2.01-3.61-2.01c-1.19,0-2.31,0.63-3.36,1.91
			c-1.04,1.27-1.57,3.29-1.57,6.04c0,1.75,0.39,3.64,1.16,5.69c0.57,1.53,1.48,2.96,2.73,4.32c0.42,0.47,0.89,0.92,1.4,1.37
			c1.99,1.75,4.69,3.19,8.08,4.34c1.15,0.38,2.41,0.71,3.79,0.96c2.66,0.5,5.75,0.75,9.25,0.75c1.87,0,3.76-0.09,5.7-0.27
			c3.77-0.33,7.65-1,11.65-2c1.37-0.34,2.73-0.71,4.08-1.11c4.33-1.25,8.62-2.77,12.84-4.56c0.3-0.12,0.6-0.25,0.9-0.37
			c4.54-1.96,8.93-4.16,13.16-6.6c1.2-0.68,2.38-1.39,3.55-2.12c5.31-3.29,9.96-6.71,13.94-10.27c3.98-3.56,7.16-7.15,9.54-10.78
			c2.37-3.62,3.56-7.01,3.56-10.16c0-2.56-0.49-4.93-1.47-7.15c-0.98-2.21-2.27-4.17-3.87-5.88c-1.61-1.71-3.43-3.19-5.46-4.43
			c-2.03-1.24-4.12-2.2-6.29-2.87c5.1-2.48,9.96-5.3,14.57-8.45c4.61-3.15,8.67-6.39,12.16-9.72c3.49-3.32,6.28-6.67,8.34-10.07
			c2.05-3.38,3.09-6.6,3.09-9.61C467.66,175.07,467.53,173.83,467.29,172.35z M454.03,179.86c-1.33,1.85-3.16,3.79-5.51,5.84
			c-2.34,2.05-5.1,4.12-8.28,6.19c-3.18,2.08-6.62,4.12-10.32,6.1c-3.71,1.98-7.57,3.81-11.59,5.48c-4.01,1.68-8.02,3.12-12,4.34
			c2.38-4.63,4.35-8.88,5.93-12.74c1.57-3.86,2.36-6.89,2.36-9.11c0-1.27-0.51-2.57-1.52-3.87c-1.01-1.31-2.2-2.47-3.56-3.47
			c-1.36-1.01-2.76-1.78-4.19-2.32c-1.43-0.54-2.57-0.74-3.4-0.61h0.1c-1.54,0.2-3.33,0.92-5.4,2.16c-2.06,1.24-4.35,2.84-6.87,4.79
			c-2.51,1.94-5.19,4.16-8.02,6.64c-2.83,2.48-5.76,5.07-8.76,7.75c-3.7,3.36-7.46,6.69-11.26,10.02
			c-3.81,3.33-7.47,6.31-10.96,8.96c-3.49,2.65-6.78,4.82-9.85,6.49c-3.07,1.68-5.7,2.52-7.86,2.52h-0.11
			c-0.49-0.13-0.92-0.41-1.31-0.86c-0.38-0.43-0.57-1.15-0.57-2.16c0-2.21,1.08-5.22,3.24-9.01c2.17-3.79,5.28-7.9,9.33-12.34
			c4.05-4.43,9-8.92,14.84-13.49c5.84-4.57,12.42-8.69,19.76-12.38c7.34-3.69,15.36-6.71,24.06-9.07c8.7-2.35,17.98-3.52,27.84-3.52
			c6.71,0,11.82,0.52,15.36,1.56c3.52,1.04,6.08,2.27,7.65,3.67c1.57,1.41,2.44,2.83,2.62,4.23c0.17,1.41,0.26,2.49,0.26,3.22
			C456.02,176.35,455.36,178.01,454.03,179.86z"/>
		<path class="st0" d="M450.99,240.82c0-2.89,0.51-5.89,1.52-9.01c1.01-3.12,2.41-6.19,4.19-9.21c1.78-3.02,3.89-5.89,6.34-8.61
			c2.44-2.72,5.08-5.1,7.91-7.15c2.83-2.05,5.78-3.67,8.86-4.88c3.07-1.21,6.15-1.81,9.22-1.81c2.66,0,4.91,0.35,6.76,1.06
			c1.85,0.7,3.37,1.61,4.56,2.72c1.19,1.11,2.1,2.33,2.73,3.67c0.63,1.34,1.06,2.64,1.31,3.88c0.24,1.24,0.33,2.37,0.26,3.37
			c-0.07,1.01-0.21,1.71-0.42,2.11h0.1c-0.21,0.54-0.65,0.79-1.31,0.76c-0.67-0.03-1.33-0.17-1.99-0.4
			c-0.66-0.23-1.26-0.54-1.78-0.91c-0.52-0.37-0.75-0.65-0.68-0.86c0.07-0.13,0.09-0.5,0.05-1.11c-0.04-0.6-0.25-1.22-0.63-1.86
			c-0.38-0.64-1.01-1.21-1.89-1.71c-0.87-0.5-2.11-0.75-3.72-0.75c-1.68,0-3.48,0.7-5.4,2.11c-1.92,1.41-3.83,3.24-5.71,5.49
			c-1.89,2.25-3.71,4.8-5.45,7.65c-1.75,2.85-3.27,5.74-4.56,8.66c-1.29,2.92-2.34,5.74-3.14,8.46c-0.8,2.72-1.21,5.05-1.21,7
			c0,2.42,0.73,3.62,2.2,3.62c1.75,0,3.53-0.74,5.35-2.21c1.82-1.48,3.58-3.36,5.29-5.64c1.71-2.28,3.3-4.8,4.77-7.55
			c1.47-2.75,2.76-5.37,3.88-7.85c1.12-2.48,1.99-4.66,2.62-6.54c0.63-1.88,0.94-3.12,0.94-3.73c0-0.6,0.35-0.97,1.04-1.11
			c0.69-0.13,1.56-0.07,2.6,0.2c1.04,0.27,2.18,0.65,3.44,1.16c1.25,0.5,2.39,1.07,3.43,1.71c1.04,0.64,1.91,1.31,2.6,2.01
			c0.7,0.7,1.04,1.33,1.04,1.86c0,0.74-0.37,1.95-1.1,3.62c-0.73,1.68-1.59,3.59-2.56,5.74c-0.7,1.48-1.41,3.02-2.15,4.63
			c-0.73,1.61-1.39,3.19-1.99,4.73c-0.59,1.54-1.08,2.99-1.47,4.33c-0.38,1.34-0.57,2.45-0.57,3.32c0,0.34-0.04,0.5-0.11,0.5
			c0.98,0,2.22-0.79,3.71-2.37c1.5-1.58,3.12-3.59,4.87-6.04c1.75-2.45,3.51-5.15,5.29-8.11c1.78-2.95,3.46-5.82,5.03-8.61
			c1.57-2.78,2.95-5.3,4.14-7.55c1.19-2.25,2.06-3.91,2.62-4.98c0.28-0.54,0.82-0.81,1.62-0.81c0.8,0,1.59,0.15,2.36,0.45
			c0.77,0.3,1.41,0.72,1.94,1.26c0.53,0.54,0.68,1.07,0.47,1.61c-0.63,1.34-1.66,3.36-3.09,6.04c-1.43,2.69-3.09,5.64-4.98,8.86
			c-1.89,3.22-3.93,6.53-6.13,9.92c-2.2,3.39-4.44,6.46-6.71,9.21c-2.27,2.75-4.49,5.02-6.65,6.8c-2.16,1.78-4.15,2.67-5.96,2.67
			c-2.02,0-3.79-0.49-5.28-1.46c-1.5-0.97-2.77-2.03-3.82-3.17c-1.25-1.34-2.3-2.92-3.14-4.73c-0.84,0.94-1.81,1.95-2.92,3.02
			c-1.11,1.07-2.31,2.08-3.6,3.02c-1.29,0.94-2.65,1.73-4.07,2.37c-1.43,0.64-2.84,0.96-4.23,0.96c-2.73,0-5.12-0.59-7.18-1.76
			c-2.06-1.17-3.79-2.72-5.19-4.63c-1.4-1.91-2.46-4.04-3.2-6.39C451.36,245.52,450.99,243.17,450.99,240.82z"/>
		<path class="st0" d="M574.37,193.49c0,0.54-0.58,1.31-1.73,2.32c-1.15,1.01-2.93,2-5.35,2.97c-2.41,0.97-5.5,1.83-9.28,2.57
			c-3.77,0.74-8.25,1.11-13.42,1.11c-0.63,1.34-1.28,2.69-1.94,4.03c-0.66,1.34-1.35,2.69-2.04,4.03c-1.89,3.83-3.77,7.7-5.66,11.63
			c-1.89,3.93-3.58,7.64-5.08,11.13c-1.5,3.49-2.73,6.68-3.67,9.56c-0.94,2.89-1.42,5.24-1.42,7.05c0,1.61,0.52,2.42,1.57,2.42
			c1.96,0,4.07-0.77,6.34-2.32c2.27-1.54,4.56-3.52,6.87-5.94c2.31-2.42,4.59-5.08,6.87-8c2.27-2.92,4.33-5.75,6.19-8.51
			c1.85-2.75,3.44-5.25,4.77-7.5c1.33-2.25,2.27-3.91,2.83-4.98c0.28-0.47,0.8-0.71,1.57-0.71c0.77,0,1.55,0.15,2.36,0.45
			c0.8,0.3,1.47,0.71,1.99,1.21c0.52,0.5,0.68,1.02,0.47,1.56c-0.7,1.34-1.8,3.34-3.3,5.99c-1.5,2.65-3.34,5.59-5.5,8.81
			c-2.17,3.22-4.58,6.49-7.23,9.82c-2.66,3.32-5.45,6.36-8.39,9.11c-2.93,2.75-5.96,5-9.07,6.75c-3.11,1.75-6.2,2.62-9.28,2.62
			c-1.26,0-2.71-0.35-4.35-1.06c-1.64-0.7-3.2-1.73-4.67-3.07c-1.47-1.34-2.69-2.99-3.67-4.93c-0.98-1.95-1.47-4.19-1.47-6.75
			c0-1.48,0.45-3.57,1.36-6.29c0.91-2.72,2.11-5.82,3.62-9.31c1.5-3.49,3.21-7.23,5.14-11.23c1.92-3.99,3.86-8,5.82-12.03l2.2-4.53
			c-3.08-0.47-5.82-1.06-8.23-1.76c-2.41-0.7-4.44-1.43-6.08-2.16c-1.64-0.74-2.9-1.46-3.77-2.16c-0.87-0.7-1.31-1.26-1.31-1.66
			c0-0.94,0.16-1.63,0.47-2.06c0.31-0.44,0.79-0.71,1.42-0.81c0.63-0.1,1.43-0.05,2.41,0.15c0.98,0.2,2.17,0.44,3.56,0.7
			c1.61,0.34,3.67,0.72,6.19,1.16c2.52,0.44,5.49,0.82,8.91,1.16c2.52-5.24,4.59-9.88,6.24-13.94c1.64-4.06,2.46-6.93,2.46-8.61
			c0-1.07,0.7-1.54,2.1-1.41c1.4,0.14,2.95,0.64,4.67,1.51c1.71,0.87,3.27,2.01,4.67,3.42c1.4,1.41,2.1,2.82,2.1,4.23
			c0,1.54-0.47,3.64-1.42,6.29c-0.94,2.65-2.22,5.69-3.83,9.11c4.12-0.13,7.81-0.47,11.06-1.01c3.25-0.54,5.89-1.07,7.91-1.61
			l-0.1,0.1c2.24-0.54,3.98-0.76,5.24-0.65C573.74,191.53,574.37,192.22,574.37,193.49z"/>
		<path class="st0" d="M613.26,193.49c0,0.54-0.58,1.31-1.73,2.32c-1.15,1.01-2.93,2-5.35,2.97c-2.41,0.97-5.5,1.83-9.28,2.57
			c-3.77,0.74-8.25,1.11-13.42,1.11c-0.63,1.34-1.28,2.69-1.94,4.03c-0.66,1.34-1.35,2.69-2.04,4.03c-1.89,3.83-3.77,7.7-5.66,11.63
			c-1.89,3.93-3.58,7.64-5.08,11.13c-1.5,3.49-2.73,6.68-3.67,9.56c-0.94,2.89-1.42,5.24-1.42,7.05c0,1.61,0.52,2.42,1.57,2.42
			c1.96,0,4.07-0.77,6.34-2.32c2.27-1.54,4.56-3.52,6.87-5.94c2.31-2.42,4.59-5.08,6.87-8c2.27-2.92,4.33-5.75,6.19-8.51
			c1.85-2.75,3.44-5.25,4.77-7.5c1.33-2.25,2.27-3.91,2.83-4.98c0.28-0.47,0.8-0.71,1.57-0.71c0.77,0,1.55,0.15,2.36,0.45
			c0.8,0.3,1.47,0.71,1.99,1.21s0.68,1.02,0.47,1.56c-0.7,1.34-1.8,3.34-3.3,5.99c-1.5,2.65-3.34,5.59-5.5,8.81
			c-2.17,3.22-4.58,6.49-7.23,9.82c-2.66,3.32-5.45,6.36-8.39,9.11c-2.93,2.75-5.96,5-9.07,6.75c-3.11,1.75-6.2,2.62-9.28,2.62
			c-1.26,0-2.71-0.35-4.35-1.06c-1.64-0.7-3.2-1.73-4.67-3.07c-1.47-1.34-2.69-2.99-3.67-4.93c-0.98-1.95-1.47-4.19-1.47-6.75
			c0-1.48,0.45-3.57,1.36-6.29c0.91-2.72,2.11-5.82,3.62-9.31c1.5-3.49,3.21-7.23,5.14-11.23c1.92-3.99,3.86-8,5.82-12.03l2.2-4.53
			c-3.08-0.47-5.82-1.06-8.23-1.76s-4.44-1.43-6.08-2.16c-1.64-0.74-2.9-1.46-3.77-2.16c-0.87-0.7-1.31-1.26-1.31-1.66
			c0-0.94,0.16-1.63,0.47-2.06c0.31-0.44,0.79-0.71,1.42-0.81c0.63-0.1,1.43-0.05,2.41,0.15c0.98,0.2,2.17,0.44,3.56,0.7
			c1.61,0.34,3.67,0.72,6.19,1.16c2.52,0.44,5.49,0.82,8.91,1.16c2.52-5.24,4.59-9.88,6.24-13.94c1.64-4.06,2.46-6.93,2.46-8.61
			c0-1.07,0.7-1.54,2.1-1.41c1.4,0.14,2.95,0.64,4.67,1.51c1.71,0.87,3.27,2.01,4.67,3.42c1.4,1.41,2.1,2.82,2.1,4.23
			c0,1.54-0.47,3.64-1.42,6.29c-0.94,2.65-2.22,5.69-3.83,9.11c4.12-0.13,7.81-0.47,11.06-1.01c3.25-0.54,5.89-1.07,7.91-1.61
			l-0.1,0.1c2.24-0.54,3.98-0.76,5.24-0.65C612.63,191.53,613.26,192.22,613.26,193.49z"/>
		<path class="st0" d="M632.13,179.9c0,1.48-0.42,3.44-1.27,5.89c-0.85,2.45-1.95,5.2-3.33,8.26c-1.37,3.05-2.94,6.36-4.7,9.92
			c-1.76,3.56-3.59,7.15-5.49,10.77c-1.89,3.76-3.76,7.47-5.61,11.13c-1.85,3.66-3.51,7.08-4.98,10.27
			c-1.47,3.19-2.64,6.04-3.51,8.56c-0.87,2.52-1.31,4.48-1.31,5.89c0,0.47,0.03,0.7,0.1,0.7c1.26,0,2.78-0.74,4.56-2.21
			c1.78-1.48,3.65-3.37,5.61-5.69c1.96-2.32,3.95-4.87,5.98-7.65c2.03-2.78,3.91-5.5,5.66-8.16c1.75-2.65,3.27-5.05,4.56-7.2
			c1.29-2.15,2.22-3.76,2.78-4.83c0.28-0.54,0.8-0.82,1.57-0.86c0.77-0.03,1.55,0.1,2.36,0.4c0.8,0.3,1.47,0.72,1.99,1.26
			c0.52,0.54,0.68,1.07,0.47,1.61c-0.7,1.34-1.82,3.34-3.36,5.99c-1.54,2.65-3.35,5.55-5.45,8.71c-2.1,3.16-4.42,6.39-6.97,9.72
			c-2.55,3.32-5.17,6.33-7.86,9.01c-2.69,2.69-5.37,4.9-8.02,6.65c-2.66,1.75-5.17,2.62-7.55,2.62c-3.49,0-6.34-1.22-8.54-3.67
			c-2.2-2.45-3.3-5.75-3.3-9.92c0-1.48,0.49-3.66,1.47-6.54c0.98-2.89,2.27-6.17,3.88-9.87c1.61-3.69,3.39-7.63,5.35-11.83
			c1.96-4.19,3.95-8.37,5.98-12.54c1.89-3.83,3.7-7.58,5.45-11.28c1.75-3.69,3.32-7.1,4.72-10.22c1.4-3.12,2.52-5.86,3.35-8.21
			c0.84-2.35,1.26-4.06,1.26-5.13c0-1.07,0.74-1.51,2.22-1.31c1.48,0.2,3.1,0.79,4.86,1.76c1.76,0.97,3.38,2.2,4.86,3.67
			C631.39,177.05,632.13,178.49,632.13,179.9z"/>
		<path class="st0" d="M680.98,215.04c0.28-0.54,0.82-0.81,1.62-0.81c0.8,0,1.59,0.15,2.36,0.45c0.77,0.3,1.42,0.72,1.94,1.26
			c0.52,0.54,0.68,1.07,0.47,1.61c-0.7,1.34-1.77,3.34-3.2,5.99c-1.43,2.65-3.22,5.57-5.35,8.76c-2.13,3.19-4.56,6.46-7.29,9.82
			c-2.73,3.36-5.73,6.41-9.02,9.16c-3.29,2.75-6.81,5-10.59,6.75c-3.77,1.75-7.72,2.62-11.85,2.62c-3.5,0-6.5-0.7-9.02-2.11
			c-2.52-1.41-4.61-3.19-6.29-5.34c-1.68-2.15-2.92-4.5-3.72-7.05c-0.8-2.55-1.21-5-1.21-7.35c0-4.7,1.19-9.35,3.56-13.94
			c2.37-4.6,5.5-8.71,9.38-12.33c3.88-3.62,8.25-6.56,13.1-8.81c4.86-2.25,9.8-3.37,14.83-3.37c3.28,0,5.64,0.7,7.08,2.11
			c1.43,1.41,2.15,3.29,2.15,5.64c0,1.75-0.47,3.74-1.42,5.99c-0.94,2.25-2.22,4.58-3.83,7c-1.61,2.42-3.46,4.8-5.56,7.15
			c-2.1,2.35-4.32,4.5-6.66,6.44c-2.34,1.95-4.74,3.61-7.18,4.98c-2.45,1.38-4.79,2.3-7.02,2.77c-0.28,1.28-0.42,2.55-0.42,3.83
			c0,1.54,0.28,2.8,0.84,3.78c0.56,0.97,1.5,1.46,2.83,1.46c3.07,0,6.11-0.76,9.12-2.27c3-1.51,5.87-3.44,8.6-5.79
			c2.73-2.35,5.29-4.95,7.71-7.8c2.41-2.85,4.56-5.64,6.45-8.36c1.89-2.72,3.48-5.17,4.77-7.35
			C679.5,217.74,680.42,216.12,680.98,215.04z M662.11,207.49c-1.68,0-3.51,0.79-5.5,2.37c-1.99,1.58-3.95,3.62-5.87,6.14
			c-1.92,2.52-3.74,5.35-5.45,8.51c-1.71,3.16-3.16,6.28-4.35,9.36c2.52-1.21,5.07-2.95,7.65-5.24c2.58-2.28,4.93-4.7,7.02-7.25
			c2.1-2.55,3.79-5.03,5.08-7.45c1.29-2.42,1.94-4.36,1.94-5.84C662.64,207.69,662.46,207.49,662.11,207.49z"/>
	</g>
</g>
</svg>
