<?xml version="1.0" encoding="utf-8"?>
<!-- Generator: Adobe Illustrator 23.0.1, SVG Export Plug-In . SVG Version: 6.00 Build 0)  -->
<svg version="1.1" id="Layer_1" xmlns="http://www.w3.org/2000/svg" xmlns:xlink="http://www.w3.org/1999/xlink" x="0px" y="0px"
	 width="1366px" height="700px" viewBox="0 0 1366 700" style="enable-background:new 0 0 1366 700;" xml:space="preserve">
<style type="text/css">
	.st0{fill:#FFFFFF;}
	.st1{fill:#ADADAD;}
	.st2{fill:#252525;}
	.st3{fill:#666666;}
	.st4{fill:#7C7C7C;}
	.st5{fill:#DBDBDB;}
	.st6{fill:#EF7349;}
	.st7{fill:#FD8A43;}
	.st8{fill:#DE574F;}
	.st9{fill:#159237;}
	.st10{fill:url(#SVGID_1_);}
	.st11{fill:url(#SVGID_2_);}
	.st12{fill:url(#SVGID_3_);}
	.st13{fill:url(#SVGID_4_);}
	.st14{fill:url(#SVGID_5_);}
	.st15{fill:url(#SVGID_6_);}
	.st16{fill:url(#SVGID_7_);}
	.st17{opacity:0.12;}
</style>
<g>
	<polygon class="st0" points="264.9,294.6 248.9,236.9 288.9,226.4 351,152.3 399.1,188.9 430.1,169.6 502.2,271.6 470.1,293.7 
		278.9,315.8 	"/>
	<g>
		<polygon class="st1" points="369.5,310 287.1,247.1 352.5,168 434.9,230.8 		"/>
		<ellipse class="st2" cx="320.8" cy="243.4" rx="11.1" ry="10.6"/>
		<ellipse class="st2" cx="356.4" cy="200.3" rx="11.1" ry="10.6"/>
		<ellipse class="st2" cx="401.2" cy="234.5" rx="11.1" ry="10.6"/>
		<ellipse class="st2" cx="365.6" cy="277.6" rx="11.1" ry="10.6"/>
		<ellipse class="st2" cx="362.3" cy="238.8" rx="11.1" ry="10.6"/>
	</g>
	<g>
		<polygon class="st3" points="279.8,302.9 263.3,245.7 322.9,229.8 339.4,287.1 		"/>
		<ellipse class="st2" cx="280.6" cy="255.1" rx="6.5" ry="6.3"/>
		<ellipse class="st2" cx="313" cy="246.5" rx="6.5" ry="6.3"/>
		<ellipse class="st2" cx="322" cy="277.6" rx="6.5" ry="6.3"/>
		<ellipse class="st2" cx="289.6" cy="286.2" rx="6.5" ry="6.3"/>
		<ellipse class="st2" cx="302" cy="266.7" rx="6.5" ry="6.3"/>
	</g>
	<g>
		<polygon class="st4" points="336.7,242.3 426.2,183.7 487.1,269.7 397.7,328.2 		"/>
		<ellipse class="st2" cx="419.7" cy="216.7" rx="11.4" ry="10.9"/>
		<ellipse class="st2" cx="452.8" cy="263.4" rx="11.4" ry="10.9"/>
		<ellipse class="st2" cx="404.2" cy="295.3" rx="11.4" ry="10.9"/>
		<ellipse class="st2" cx="371" cy="248.5" rx="11.4" ry="10.9"/>
		<ellipse class="st2" cx="411.7" cy="257.3" rx="11.4" ry="10.9"/>
	</g>
	<g>
		<polygon class="st5" points="323.3,299.3 279.5,257.3 323.3,215.3 367,257.3 		"/>
		<ellipse class="st2" cx="299.5" cy="257.3" rx="6.5" ry="6.3"/>
		<ellipse class="st2" cx="323.3" cy="234.5" rx="6.5" ry="6.3"/>
		<ellipse class="st2" cx="347" cy="257.3" rx="6.5" ry="6.3"/>
		<ellipse class="st2" cx="323.3" cy="280.2" rx="6.5" ry="6.3"/>
		<ellipse class="st2" cx="324" cy="257.3" rx="6.5" ry="6.3"/>
	</g>
	<g>
		<polygon class="st5" points="373.6,276.3 392.8,219.9 451.6,238.4 432.3,294.8 		"/>
		<ellipse class="st2" cx="401.8" cy="237" rx="6.5" ry="6.3"/>
		<ellipse class="st2" cx="433.8" cy="247" rx="6.5" ry="6.3"/>
		<ellipse class="st2" cx="423.3" cy="277.7" rx="6.5" ry="6.3"/>
		<ellipse class="st2" cx="391.4" cy="267.7" rx="6.5" ry="6.3"/>
		<ellipse class="st2" cx="417.8" cy="242.7" rx="6.5" ry="6.3"/>
	</g>
	<path class="st6" d="M282.4,298.7l-7.3,26.1l22,44.7l23,51.8l94.2-5.5c0,0,42.9-84,44.5-85.5c1.6-1.5,16.2-49.8,16.2-49.8
		L438.9,270l-48.7-27.1L304.4,275L282.4,298.7z"/>
	<path class="st7" d="M291.8,352.4c0,0,16.2,12.1,55,14.6c-0.5,0-13.6,3.5-26.2,3c0,0-2.1,20.1,26.7,47.3l-71.2-32.7l9.9-41.2
		L291.8,352.4z"/>
	<path class="st8" d="M420.1,371.5c0,0-53.4,34.7-92.1,33.7l-34.5-23.6l16.8,50.8c0,0,25.1,25.1,28.8,27.1c3.7,2,52.3,9.6,52.3,9.6
		s44.5-41.7,47.6-44.2c3.1-2.5,29.3-71.9,30.4-75.4c1-3.5-5.8-22.6-5.8-22.6L420.1,371.5z"/>
	<path class="st7" d="M453.6,375.6c0,0-7.3,24.6-63.3,77.4l18.8,14.6l36.6-18.6l15.7-28.7l5.8-57.3L453.6,375.6z"/>
	<path class="st8" d="M303.9,419.8c0,0-5.2,30.7,33,109.6l-3.7,6c0,0-74.9-104.1-64.4-149.8c-1-0.5,32.5,19.6,32.5,19.6L303.9,419.8
		z"/>
	<path class="st8" d="M390.2,453c0,0,29.8-1,55.5-11.1c-1,2.5-23,32.7-23,32.7l-61.2-8l-1.6-15.6L390.2,453z"/>
	<path class="st2" d="M336.9,434.9c0,0,21.4,23.1,46,29.7c-0.5,0-12-7-14.1-8s10.5,0.5,21.5-3.5C389.7,453,352,449,336.9,434.9z"/>
	<path class="st6" d="M335.7,432.9c0,0,24.7,33.6,86.5,40.2c0,0-56,48.3-84.8,61.8c0,0-44-62.8-37.2-119.1
		C300.2,415.8,321.5,417.9,335.7,432.9z"/>
	<g>
		<path class="st0" d="M347.4,417.5c0.1,0.1,0.3,0.2,0.4,0.3C347.9,417.7,347.7,417.6,347.4,417.5z"/>
		<path class="st0" d="M475,313.2c6.7-12.8,10.3-36.8,10.5-37.2c-49.2-3.5-95.8-34.7-95.8-34.7c-17.8,3-52.3,17.1-63.3,22.1
			c-11,5-57.1,17.6-57.1,17.6c1,19.6-3.1,51.8-3.1,51.8c3.1,3.5,6.8,18.6,6.8,18.1c-8.4,11.1-20.4,57.8-20.4,57.8
			c39.8,94.5,81.7,138.3,81.7,138.3s57.9-41.4,83.8-62.3c26.7-21.6,38.4-43.2,46.1-62.8c7.9-20.1,8.4-61.3,8.4-61.3
			c9.4-17.1,7.3-32.2,4.2-35.7C473.5,321.3,475,313.2,475,313.2z M420.1,371.5c11.8-4,40.9-30.3,41.4-31.6c0,22.1-7.9,35.6-7.9,35.6
			l6.3-4c4.2,69.4-40.3,100.5-40.8,100c-29.3,23.1-82.2,57.8-82.2,57.8c-45-46.3-61.2-133.7-61.2-133.7s12.6,18.6,34.5,26.1
			c22,7.5,27.2,13.1,27.2,13.1c-3.1-6-28.3-36.2-28.3-36.2c2.6,3,12.6,11.1,19.4,12.1c6.1,0.9,16.7,5.4,18.9,6.7
			c-30.2-23.2-55.6-65-55.6-65c6.8,5.5,25.1,10.1,25.1,10.1c-26.2-18.1-35.6-46.8-35.6-46.8c30.4-41.2,105.7-65.9,105.7-65.9
			c28.8,25.1,76.4,36.7,76.9,36.2C460.9,328.3,421.1,371.5,420.1,371.5z"/>
		<path class="st0" d="M485.5,276C485.5,276,485.5,276,485.5,276C485.5,276,485.5,276,485.5,276z"/>
	</g>
	<polygon class="st8" points="385.5,268.5 398.6,282.6 382.4,304.7 389.2,282.1 	"/>
	<g>
		<path class="st9" d="M614.7,412.5l-12.2,5.9c-1.2-2.3-3-4.2-5.2-5.5c3.8-0.3,7.6-1,11.7-2c1.4-0.3,2.7-0.7,4.1-1.1
			C613.7,410.7,614.2,411.6,614.7,412.5z"/>
		<path class="st9" d="M616.8,422v2.9c0,15-12.7,27.3-28.4,27.3c-15.8,0-28.4-12.2-28.4-27.3c0-7.4,3.1-14.2,8.1-19.1
			c0.4,0.5,0.9,0.9,1.4,1.4c2,1.7,4.7,3.2,8.1,4.3c1.2,0.4,2.4,0.7,3.8,1c-4.6,2.3-7.6,6.8-7.6,12.4c0,8,6.3,14,14.7,14
			c5.4,0,10-2.6,12.5-6.5h-12.6V422H616.8z"/>
		<path class="st9" d="M656.7,431.4c6.4-2.1,10.8-8,10.8-15.3c0-9.2-7.1-16.7-16.9-16.7H640c-4.2,2.4-8.6,4.6-13.2,6.6
			c-0.3,0.1-0.6,0.3-0.9,0.4v46.1H640V433h3.2l12.9,19.5H672L656.7,431.4z M648.2,422.1H640v-11h8.2c3.3,0,5.7,2.3,5.7,5.5
			S651.5,422.1,648.2,422.1z"/>
		<path class="st9" d="M674.3,424.9c0-15,12.6-27.3,28.4-27.3c15.7,0,28.4,12.2,28.4,27.3c0,15-12.7,27.3-28.4,27.3
			C686.9,452.2,674.3,440,674.3,424.9z M717.2,424.9c0-8.1-6.3-14-14.6-14c-8.4,0-14.7,5.9-14.7,14s6.3,14,14.7,14
			C711,438.9,717.2,433,717.2,424.9z"/>
		<path class="st9" d="M738.9,434.6v-36.2H753V432c0,4.7,4.2,8.4,9.6,8.4c5.3,0,9.6-3.7,9.6-8.4v-33.6h14.1v36.2
			c0,9.9-10.4,17.6-23.7,17.6S738.9,444.5,738.9,434.6z"/>
		<path class="st9" d="M849.9,398.4v53.1h-14.8l-24.9-32.6v32.6h-14.1v-53.1h14.7l25,32.5v-32.5H849.9z"/>
		<path class="st9" d="M879.2,398.4h-19.2v53.1h19.2c6.3,0,12.2-2.1,16.9-5.6c-0.9-1.4-1.5-2.9-1.8-4.7c-0.9-6.3,3.8-12.1,10.4-13
			c0.7-0.1,1.3-0.1,1.9-0.1c0.1-1.1,0.2-2.2,0.2-3.3C906.9,410.2,894.4,398.4,879.2,398.4z M879.2,439.7h-5.1v-29.6h5.1
			c7.7,0,13.6,6.5,13.6,14.8C892.9,433.2,886.9,439.7,879.2,439.7z"/>
	</g>
	<g>
		<g>
			<linearGradient id="SVGID_1_" gradientUnits="userSpaceOnUse" x1="637.2338" y1="314.8763" x2="607.6339" y2="407.6763">
				<stop  offset="0" style="stop-color:#FB8844"/>
				<stop  offset="1" style="stop-color:#D24354"/>
			</linearGradient>
			<path class="st10" d="M614.7,412.5l-12.2,5.9c-1.2-2.3-3-4.2-5.2-5.5c3.8-0.3,7.6-1,11.7-2c1.4-0.3,2.7-0.7,4.1-1.1
				C613.7,410.7,614.2,411.6,614.7,412.5z"/>
			<linearGradient id="SVGID_2_" gradientUnits="userSpaceOnUse" x1="624.7943" y1="310.9085" x2="595.1943" y2="403.7085">
				<stop  offset="0" style="stop-color:#FB8844"/>
				<stop  offset="1" style="stop-color:#D24354"/>
			</linearGradient>
			<path class="st11" d="M616.8,422v2.9c0,15-12.7,27.3-28.4,27.3c-15.8,0-28.4-12.2-28.4-27.3c0-7.4,3.1-14.2,8.1-19.1
				c0.4,0.5,0.9,0.9,1.4,1.4c2,1.7,4.7,3.2,8.1,4.3c1.2,0.4,2.4,0.7,3.8,1c-4.6,2.3-7.6,6.8-7.6,12.4c0,8,6.3,14,14.7,14
				c5.4,0,10-2.6,12.5-6.5h-12.6V422H616.8z"/>
			<linearGradient id="SVGID_3_" gradientUnits="userSpaceOnUse" x1="681.0239" y1="328.8438" x2="651.4239" y2="421.6438">
				<stop  offset="0" style="stop-color:#FB8844"/>
				<stop  offset="1" style="stop-color:#D24354"/>
			</linearGradient>
			<path class="st12" d="M656.7,431.4c6.4-2.1,10.8-8,10.8-15.3c0-9.2-7.1-16.7-16.9-16.7H640c-4.2,2.4-8.6,4.6-13.2,6.6
				c-0.3,0.1-0.6,0.3-0.9,0.4v46.1H640V433h3.2l12.9,19.5H672L656.7,431.4z M648.2,422.1H640v-11h8.2c3.3,0,5.7,2.3,5.7,5.5
				S651.5,422.1,648.2,422.1z"/>
			<linearGradient id="SVGID_4_" gradientUnits="userSpaceOnUse" x1="728.4879" y1="343.9832" x2="698.8879" y2="436.7832">
				<stop  offset="0" style="stop-color:#FB8844"/>
				<stop  offset="1" style="stop-color:#D24354"/>
			</linearGradient>
			<path class="st13" d="M674.3,424.9c0-15,12.6-27.3,28.4-27.3c15.7,0,28.4,12.2,28.4,27.3c0,15-12.7,27.3-28.4,27.3
				C686.9,452.2,674.3,440,674.3,424.9z M717.2,424.9c0-8.1-6.3-14-14.6-14c-8.4,0-14.7,5.9-14.7,14s6.3,14,14.7,14
				C711,438.9,717.2,433,717.2,424.9z"/>
			<linearGradient id="SVGID_5_" gradientUnits="userSpaceOnUse" x1="780.7204" y1="360.6436" x2="751.1204" y2="453.4436">
				<stop  offset="0" style="stop-color:#FB8844"/>
				<stop  offset="1" style="stop-color:#D24354"/>
			</linearGradient>
			<path class="st14" d="M738.9,434.6v-36.2H753V432c0,4.7,4.2,8.4,9.6,8.4c5.3,0,9.6-3.7,9.6-8.4v-33.6h14.1v36.2
				c0,9.9-10.4,17.6-23.7,17.6S738.9,444.5,738.9,434.6z"/>
			<linearGradient id="SVGID_6_" gradientUnits="userSpaceOnUse" x1="837.717" y1="378.8235" x2="808.1169" y2="471.6235">
				<stop  offset="0" style="stop-color:#FB8844"/>
				<stop  offset="1" style="stop-color:#D24354"/>
			</linearGradient>
			<path class="st15" d="M849.9,398.4v53.1h-14.8l-24.9-32.6v32.6h-14.1v-53.1h14.7l25,32.5v-32.5H849.9z"/>
			<linearGradient id="SVGID_7_" gradientUnits="userSpaceOnUse" x1="889.1176" y1="395.2186" x2="859.5176" y2="488.0186">
				<stop  offset="0" style="stop-color:#FB8844"/>
				<stop  offset="1" style="stop-color:#D24354"/>
			</linearGradient>
			<path class="st16" d="M879.2,398.4h-19.2v53.1h19.2c6.3,0,12.2-2.1,16.9-5.6c-0.9-1.4-1.5-2.9-1.8-4.7c-0.9-6.3,3.8-12.1,10.4-13
				c0.7-0.1,1.3-0.1,1.9-0.1c0.1-1.1,0.2-2.2,0.2-3.3C906.9,410.2,894.4,398.4,879.2,398.4z M879.2,439.7h-5.1v-29.6h5.1
				c7.7,0,13.6,6.5,13.6,14.8C892.9,433.2,886.9,439.7,879.2,439.7z"/>
		</g>
	</g>
	<g class="st17">
		<path class="st0" d="M614.7,412.5l-12.2,5.9c-1.2-2.3-3-4.2-5.2-5.5c3.8-0.3,7.6-1,11.7-2c1.4-0.3,2.7-0.7,4.1-1.1
			C613.7,410.7,614.2,411.6,614.7,412.5z"/>
		<path class="st0" d="M577.6,411.6c1.1,0.4,2.4,0.7,3.8,1c-4.6,2.3-7.6,6.8-7.6,12.4c0,0.7,0.1,1.4,0.2,2.1h-13.8
			c-0.1-0.7-0.1-1.4-0.1-2.1c0-7.4,3.1-14.2,8.1-19.1c0.4,0.5,0.9,0.9,1.4,1.4C571.5,409,574.2,410.4,577.6,411.6z"/>
		<path class="st0" d="M616.8,422v2.9c0,0.7,0,1.4-0.1,2.1h-28.4v-5H616.8z"/>
		<path class="st0" d="M650.5,399.3H640c-4.2,2.4-8.6,4.6-13.2,6.6c-0.3,0.1-0.6,0.3-0.9,0.4V427h37.4c2.6-2.8,4.1-6.7,4.1-11
			C667.5,406.8,660.4,399.3,650.5,399.3z M648.2,422.1H640v-11h8.2c3.3,0,5.7,2.3,5.7,5.5C653.9,419.8,651.5,422.1,648.2,422.1z"/>
		<path class="st0" d="M702.7,397.7c-15.8,0-28.4,12.2-28.4,27.3c0,0.7,0,1.4,0.1,2.1h13.8c-0.1-0.7-0.2-1.4-0.2-2.1
			c0-8.1,6.3-14,14.6-14c8.3,0,14.6,5.9,14.6,14c0,0.7-0.1,1.4-0.2,2.1H731c0.1-0.7,0.1-1.4,0.1-2.1
			C731.1,409.9,718.3,397.7,702.7,397.7z"/>
		<path class="st0" d="M772.2,398.4V427h14.1v-28.7H772.2z M738.9,427H753v-28.7h-14.1V427z"/>
		<path class="st0" d="M835.8,398.4V427h14.1v-28.7H835.8z M796.1,398.4V427h14.1v-8.1l6.2,8.1h16.5l-22-28.7H796.1z"/>
		<path class="st0" d="M879.2,398.4h-19.2V427h14.1v-16.9h5.1c7.7,0,13.6,6.5,13.6,14.8c0,0.7,0,1.4-0.1,2.1h14
			c0.1-0.7,0.1-1.4,0.1-2.1C906.9,410.2,894.4,398.4,879.2,398.4z"/>
	</g>
	<path class="st0" d="M907.3,446.9c-2.9,0.4-5.7-1-7.2-3.2c-0.6-0.8-0.9-1.8-1.1-2.9c-0.5-3.9,2.3-7.4,6.4-8
		c0.4-0.1,0.8-0.1,1.2-0.1c3.6,0.1,6.6,2.7,7.1,6.2C914.2,442.8,911.4,446.3,907.3,446.9z"/>
	<g>
		<path class="st0" d="M943,396.1c0.6,0,1,0.3,1.4,0.9v0.4c-1.2,1-2.1,1.9-2.6,2.6c-1.9,2.5-3.7,6.4-5.4,11.4
			c-1.8,5.1-3.3,9.8-4.5,14.1h0.2c1-1.6,2.5-3.1,4.3-4.4c1.8-1.3,3.8-1.9,6-1.9c1.7,0,3,0.8,3.9,2.3c0.8,1.5,1.2,3.3,1.1,5.3
			c-0.2,2.8-0.9,5.4-2.1,7.8c-1.7,3.9-3.9,7.1-6.7,9.8c-2.5,2.3-5.3,3.4-8.5,3.4c-1.2,0-1.9-0.4-2.3-1.2c-0.7,0.7-1.6,1-2.6,1
			c-1.5,0-2.7-0.6-3.4-1.6c-0.9-1-1.3-2.2-1.3-3.7c0-2.2,0.5-4.9,1.4-8.1c0.9-3.2,2.6-8.3,5-15.6c1.2-4.1,2.4-7.5,3.6-10.3
			c1.2-2.8,2.8-5.5,4.7-8.2C937.6,397.4,940.2,395.9,943,396.1z M927.1,444.5c0.1,0.7,0.4,1.3,0.8,1.7h0.1c0.2-0.2,0.8-0.4,1.7-0.7
			c1.4-0.8,2.9-2.1,4.4-4c1.4-1.5,3-4.1,4.7-7.8c1.7-3.7,2.6-6.8,2.5-9.3c0-0.9-0.5-1.4-1.6-1.4c-0.9,0-2,0.5-3.3,1.4
			c-1,0.7-2.2,2-3.7,4c-2.1,3.1-3.7,7.1-5,11.9C927.4,441.6,927.2,443,927.1,444.5z"/>
		<path class="st0" d="M964.7,419.5c1.5,0,2.6,0.4,3.3,1.3c0.7,0.8,1.1,1.7,1.2,2.7c0,1.5-0.4,3.1-1.3,4.7c-0.8,1.6-1.9,3-3.4,4.2
			c-2.7,1.9-5,3-6.9,3.4c-0.7,0.1-1-0.1-1.1-0.4c0.1-0.5,0.4-0.9,1-1.1c2-1.1,3.7-2.9,4.9-5.4c1.3-2.5,1.9-4.4,1.9-5.7
			c0-0.9-0.3-1.3-1.1-1.2c-2,0-4,2.2-6.2,6.5c-2.2,4.4-3.2,8.2-3.3,11.7c-0.3,3.1,0.7,4.8,3.1,4.9c1.1,0,2.7-0.6,4.8-1.7
			c2.1-1.2,4.1-3.1,6.1-5.8c0.9-0.1,1.4,0.3,1.3,1.2c-0.2,0.9-0.8,1.9-1.9,3c-4.2,4-8.1,6-11.7,6c-2.7,0-4.8-0.6-6.3-1.8
			c-1.5-1.2-2.3-3.3-2.3-6.2c0-5.1,2.4-10.1,7-15C957.4,421.2,961.1,419.4,964.7,419.5z"/>
		<path class="st0" d="M986.8,400.4c0.7,0,1.1,0.3,1,0.9c-0.7,0.6-1.3,1.4-1.8,2.3c-0.9,1.5-2,4.5-3.4,9c0,0.1,0.3,0.1,0.9,0.1
			c0.6,0,1.4,0,2.4,0s1.5,0.5,1.4,1.4c0,0.8-1,1.3-2.9,1.5c-0.9,0-1.6,0.1-2.2,0.1c-0.6,0-0.9,0.2-0.9,0.5l-5,16.3
			c-1.8,5.9-2.6,9.1-2.4,9.7v0.2c0.1,0.5,0.5,0.8,1.3,0.8c1.7,0,3.6-1.8,6-5.4c0.2-0.7,0.5-1,1.1-1c0.2,0.1,0.4,0.2,0.5,0.4
			c0.3,0.6,0.2,1.3-0.3,2.2c-0.4,0.8-1,1.7-1.8,2.7c-1.3,1.7-2.9,3.1-4.7,4.2c-1.8,1.2-3.6,1.6-5.5,1.4c-1.3-0.4-2.3-1-3-2
			c-0.5-0.8-0.8-1.6-1-2.4c-0.2-0.9-0.1-2.2,0.3-3.8c0.8-3.1,1.8-6.2,2.9-9.5c1.1-3.3,2.6-8.1,4.4-14.4c-0.2-0.1-0.6-0.1-1.2-0.1
			c-0.5,0.1-1.3,0.3-2.2,0.8c-0.8,0-1.3-0.5-1.3-1.4c0.1-0.9,0.9-1.6,2.5-2.1c0.9-0.2,2-0.3,3.2-0.4c1.1-2.6,2-4.6,2.9-6
			C980.6,402.4,983.4,400.4,986.8,400.4z"/>
	</g>
	<polygon class="st9" points="835.8,427 835.8,430.8 832.9,427 	"/>
	<g>
		<path class="st0" d="M691.3,297.3c-0.3-1.5-0.8-3-1.6-4.7c-0.8-1.7-2.1-3.3-3.7-5c-1.6-1.6-3.9-3.1-6.7-4.5
			c-2.8-1.3-6.3-2.4-10.5-3.3c-4.2-0.8-9.2-1.3-15-1.3c-10.8,0-21.2,1-31,3.1c-9.8,2-19,4.8-27.5,8.2c-8.5,3.4-16.2,7.3-23.1,11.7
			c-6.9,4.4-12.8,8.9-17.7,13.6c-4.9,4.7-8.7,9.4-11.3,14c-2.7,4.6-4,8.9-4,12.8c0,3.1,0.5,5.7,1.5,7.7c1,2,2.3,3.7,3.9,4.9
			c1.6,1.2,3.4,2.1,5.3,2.5c1.9,0.5,3.8,0.7,5.6,0.7h0.6c3.3,0,7-1.1,11.2-3.2c4.2-2.1,8.5-4.8,13-8c4.5-3.2,9-6.8,13.5-10.6
			c4.5-3.9,8.7-7.6,12.6-11.1c3.1-2.7,5.8-5,8-7.1c2.3-2,4.4-3.8,6.4-5.2c-1.3,3.2-3,6.8-5,10.8c-2,4.1-4.1,8.2-6.3,12.4
			c-0.4-0.1-0.8-0.3-1.2-0.5c-0.4-0.2-0.7-0.4-0.9-0.5c-0.4-0.3-0.9-0.6-1.4-0.9c-0.5-0.3-1.1-0.4-1.7-0.4c-1.5,0-2.5,0.4-3.2,1.1
			c-0.7,0.7-1,1.6-1,2.8c0,1.1,0.4,2.3,1.3,3.7c0.8,1.4,2,2.6,3.4,3.8c-1.4,2.8-2.7,5.5-4,8.2c-1.3,2.6-2.4,5.1-3.3,7.3
			c-0.9,2.3-1.7,4.4-2.2,6.2c-0.5,1.9-0.8,3.5-0.8,4.7c0,1.9,0.4,3.6,1.2,5.1c0.8,1.5,1.8,2.8,3,3.9c1.2,1.1,2.6,1.9,4,2.5
			c1.4,0.6,2.7,0.9,3.9,0.9c1.1,0,2-0.1,2.5-0.4c0.6-0.3,0.9-0.7,1-1.2c0.1-0.5,0.1-1.1-0.1-1.8c-0.1-0.7-0.3-1.4-0.5-2.1v0.1
			c-0.1-0.3-0.3-0.7-0.3-1c-0.1-0.3-0.1-0.6-0.1-1c0-1.1,0.4-2.5,1.1-4.4c0.7-1.9,1.6-4,2.8-6.5c1.2-2.5,2.5-5.1,4-8
			c1.5-2.9,3.1-5.9,4.8-9c3-0.3,6.1-0.7,9.2-1.5c3.1-0.7,6.4-1.6,9.7-2.8h2.3c2.7,0,5,0.2,6.8,0.7c1.8,0.5,3.2,1.1,4.2,1.8
			c1,0.7,1.7,1.5,2.1,2.5c0.4,0.9,0.6,1.8,0.6,2.7c0,2.4-0.9,5.1-2.8,8.2c-1.9,3-4.4,6.1-7.7,9.2c-3.3,3.1-7.2,6.2-11.8,9.2
			c-4.6,3-9.7,5.6-15.1,8c-5.5,2.3-11.3,4.2-17.5,5.6c-1.6,0.4-3.1,0.7-4.7,0.9c-4.7,0.8-9.5,1.2-14.3,1.2c-1.5,0-2.7-0.1-3.7-0.4
			c-0.9-0.2-1.7-0.6-2.2-1c-1.1-0.9-1.6-1.8-1.6-2.6c0-2.6-0.5-4.6-1.6-5.9c-1.1-1.3-2.3-2-3.6-2c-1.2,0-2.3,0.6-3.4,1.9
			c-1,1.3-1.6,3.3-1.6,6c0,1.7,0.4,3.6,1.2,5.7c0.6,1.5,1.5,3,2.7,4.3c0.4,0.5,0.9,0.9,1.4,1.4c2,1.7,4.7,3.2,8.1,4.3
			c1.2,0.4,2.4,0.7,3.8,1c2.7,0.5,5.7,0.7,9.2,0.7c1.9,0,3.8-0.1,5.7-0.3c3.8-0.3,7.6-1,11.7-2c1.4-0.3,2.7-0.7,4.1-1.1
			c4.3-1.2,8.6-2.8,12.8-4.6c0.3-0.1,0.6-0.2,0.9-0.4c4.5-2,8.9-4.2,13.2-6.6c1.2-0.7,2.4-1.4,3.6-2.1c5.3-3.3,10-6.7,13.9-10.3
			c4-3.6,7.2-7.2,9.5-10.8c2.4-3.6,3.6-7,3.6-10.2c0-2.6-0.5-4.9-1.5-7.2c-1-2.2-2.3-4.2-3.9-5.9c-1.6-1.7-3.4-3.2-5.5-4.4
			c-2-1.2-4.1-2.2-6.3-2.9c5.1-2.5,10-5.3,14.6-8.5c4.6-3.2,8.7-6.4,12.2-9.7c3.5-3.3,6.3-6.7,8.3-10.1c2.1-3.4,3.1-6.6,3.1-9.6
			C691.7,300.1,691.5,298.8,691.3,297.3z M678,304.9c-1.3,1.8-3.2,3.8-5.5,5.8c-2.3,2-5.1,4.1-8.3,6.2c-3.2,2.1-6.6,4.1-10.3,6.1
			c-3.7,2-7.6,3.8-11.6,5.5c-4,1.7-8,3.1-12,4.3c2.4-4.6,4.4-8.9,5.9-12.7c1.6-3.9,2.4-6.9,2.4-9.1c0-1.3-0.5-2.6-1.5-3.9
			c-1-1.3-2.2-2.5-3.6-3.5c-1.4-1-2.8-1.8-4.2-2.3c-1.4-0.5-2.6-0.7-3.4-0.6h0.1c-1.5,0.2-3.3,0.9-5.4,2.2c-2.1,1.2-4.4,2.8-6.9,4.8
			c-2.5,1.9-5.2,4.2-8,6.6c-2.8,2.5-5.8,5.1-8.8,7.7c-3.7,3.4-7.5,6.7-11.3,10c-3.8,3.3-7.5,6.3-11,9c-3.5,2.7-6.8,4.8-9.9,6.5
			c-3.1,1.7-5.7,2.5-7.9,2.5h-0.1c-0.5-0.1-0.9-0.4-1.3-0.9c-0.4-0.4-0.6-1.2-0.6-2.2c0-2.2,1.1-5.2,3.2-9c2.2-3.8,5.3-7.9,9.3-12.3
			c4.1-4.4,9-8.9,14.8-13.5c5.8-4.6,12.4-8.7,19.8-12.4c7.3-3.7,15.4-6.7,24.1-9.1c8.7-2.3,18-3.5,27.8-3.5c6.7,0,11.8,0.5,15.4,1.6
			c3.5,1,6.1,2.3,7.6,3.7c1.6,1.4,2.4,2.8,2.6,4.2c0.2,1.4,0.3,2.5,0.3,3.2C680,301.3,679.4,303,678,304.9z"/>
		<path class="st0" d="M675,365.8c0-2.9,0.5-5.9,1.5-9c1-3.1,2.4-6.2,4.2-9.2c1.8-3,3.9-5.9,6.3-8.6c2.4-2.7,5.1-5.1,7.9-7.1
			c2.8-2,5.8-3.7,8.9-4.9c3.1-1.2,6.1-1.8,9.2-1.8c2.7,0,4.9,0.4,6.8,1.1c1.9,0.7,3.4,1.6,4.6,2.7c1.2,1.1,2.1,2.3,2.7,3.7
			c0.6,1.3,1.1,2.6,1.3,3.9c0.2,1.2,0.3,2.4,0.3,3.4c-0.1,1-0.2,1.7-0.4,2.1h0.1c-0.2,0.5-0.6,0.8-1.3,0.8c-0.7,0-1.3-0.2-2-0.4
			c-0.7-0.2-1.3-0.5-1.8-0.9c-0.5-0.4-0.8-0.7-0.7-0.9c0.1-0.1,0.1-0.5,0.1-1.1c0-0.6-0.2-1.2-0.6-1.9c-0.4-0.6-1-1.2-1.9-1.7
			c-0.9-0.5-2.1-0.8-3.7-0.8c-1.7,0-3.5,0.7-5.4,2.1c-1.9,1.4-3.8,3.2-5.7,5.5c-1.9,2.2-3.7,4.8-5.5,7.7c-1.7,2.9-3.3,5.7-4.6,8.7
			c-1.3,2.9-2.3,5.7-3.1,8.5c-0.8,2.7-1.2,5.1-1.2,7c0,2.4,0.7,3.6,2.2,3.6c1.7,0,3.5-0.7,5.3-2.2c1.8-1.5,3.6-3.4,5.3-5.6
			c1.7-2.3,3.3-4.8,4.8-7.6c1.5-2.8,2.8-5.4,3.9-7.9c1.1-2.5,2-4.7,2.6-6.5c0.6-1.9,0.9-3.1,0.9-3.7c0-0.6,0.3-1,1-1.1
			c0.7-0.1,1.6-0.1,2.6,0.2c1,0.3,2.2,0.7,3.4,1.2c1.2,0.5,2.4,1.1,3.4,1.7c1,0.6,1.9,1.3,2.6,2c0.7,0.7,1,1.3,1,1.9
			c0,0.7-0.4,1.9-1.1,3.6c-0.7,1.7-1.6,3.6-2.6,5.7c-0.7,1.5-1.4,3-2.1,4.6c-0.7,1.6-1.4,3.2-2,4.7c-0.6,1.5-1.1,3-1.5,4.3
			c-0.4,1.3-0.6,2.5-0.6,3.3c0,0.3,0,0.5-0.1,0.5c1,0,2.2-0.8,3.7-2.4c1.5-1.6,3.1-3.6,4.9-6c1.7-2.4,3.5-5.2,5.3-8.1
			c1.8-3,3.5-5.8,5-8.6c1.6-2.8,3-5.3,4.1-7.6c1.2-2.2,2.1-3.9,2.6-5c0.3-0.5,0.8-0.8,1.6-0.8c0.8,0,1.6,0.2,2.4,0.5
			c0.8,0.3,1.4,0.7,1.9,1.3c0.5,0.5,0.7,1.1,0.5,1.6c-0.6,1.3-1.7,3.4-3.1,6c-1.4,2.7-3.1,5.6-5,8.9c-1.9,3.2-3.9,6.5-6.1,9.9
			c-2.2,3.4-4.4,6.5-6.7,9.2c-2.3,2.8-4.5,5-6.6,6.8c-2.2,1.8-4.2,2.7-6,2.7c-2,0-3.8-0.5-5.3-1.5c-1.5-1-2.8-2-3.8-3.2
			c-1.3-1.3-2.3-2.9-3.1-4.7c-0.8,0.9-1.8,1.9-2.9,3c-1.1,1.1-2.3,2.1-3.6,3c-1.3,0.9-2.6,1.7-4.1,2.4c-1.4,0.6-2.8,1-4.2,1
			c-2.7,0-5.1-0.6-7.2-1.8c-2.1-1.2-3.8-2.7-5.2-4.6c-1.4-1.9-2.5-4-3.2-6.4C675.4,370.5,675,368.2,675,365.8z"/>
		<path class="st0" d="M798.4,318.5c0,0.5-0.6,1.3-1.7,2.3c-1.2,1-2.9,2-5.3,3c-2.4,1-5.5,1.8-9.3,2.6c-3.8,0.7-8.2,1.1-13.4,1.1
			c-0.6,1.3-1.3,2.7-1.9,4c-0.7,1.3-1.3,2.7-2,4c-1.9,3.8-3.8,7.7-5.7,11.6c-1.9,3.9-3.6,7.6-5.1,11.1c-1.5,3.5-2.7,6.7-3.7,9.6
			c-0.9,2.9-1.4,5.2-1.4,7c0,1.6,0.5,2.4,1.6,2.4c2,0,4.1-0.8,6.3-2.3c2.3-1.5,4.6-3.5,6.9-5.9c2.3-2.4,4.6-5.1,6.9-8
			c2.3-2.9,4.3-5.8,6.2-8.5c1.9-2.8,3.4-5.3,4.8-7.5c1.3-2.2,2.3-3.9,2.8-5c0.3-0.5,0.8-0.7,1.6-0.7c0.8,0,1.6,0.2,2.4,0.5
			c0.8,0.3,1.5,0.7,2,1.2c0.5,0.5,0.7,1,0.5,1.6c-0.7,1.3-1.8,3.3-3.3,6c-1.5,2.7-3.3,5.6-5.5,8.8c-2.2,3.2-4.6,6.5-7.2,9.8
			c-2.7,3.3-5.5,6.4-8.4,9.1c-2.9,2.8-6,5-9.1,6.7c-3.1,1.7-6.2,2.6-9.3,2.6c-1.3,0-2.7-0.4-4.4-1.1c-1.6-0.7-3.2-1.7-4.7-3.1
			c-1.5-1.3-2.7-3-3.7-4.9c-1-1.9-1.5-4.2-1.5-6.7c0-1.5,0.5-3.6,1.4-6.3c0.9-2.7,2.1-5.8,3.6-9.3c1.5-3.5,3.2-7.2,5.1-11.2
			c1.9-4,3.9-8,5.8-12l2.2-4.5c-3.1-0.5-5.8-1.1-8.2-1.8c-2.4-0.7-4.4-1.4-6.1-2.2c-1.6-0.7-2.9-1.5-3.8-2.2
			c-0.9-0.7-1.3-1.3-1.3-1.7c0-0.9,0.2-1.6,0.5-2.1c0.3-0.4,0.8-0.7,1.4-0.8c0.6-0.1,1.4-0.1,2.4,0.2c1,0.2,2.2,0.4,3.6,0.7
			c1.6,0.3,3.7,0.7,6.2,1.2c2.5,0.4,5.5,0.8,8.9,1.2c2.5-5.2,4.6-9.9,6.2-13.9c1.6-4.1,2.5-6.9,2.5-8.6c0-1.1,0.7-1.5,2.1-1.4
			c1.4,0.1,3,0.6,4.7,1.5c1.7,0.9,3.3,2,4.7,3.4c1.4,1.4,2.1,2.8,2.1,4.2c0,1.5-0.5,3.6-1.4,6.3c-0.9,2.7-2.2,5.7-3.8,9.1
			c4.1-0.1,7.8-0.5,11.1-1c3.2-0.5,5.9-1.1,7.9-1.6l-0.1,0.1c2.2-0.5,4-0.8,5.2-0.7C797.7,316.5,798.4,317.2,798.4,318.5z"/>
		<path class="st0" d="M837.3,318.5c0,0.5-0.6,1.3-1.7,2.3c-1.2,1-2.9,2-5.3,3c-2.4,1-5.5,1.8-9.3,2.6c-3.8,0.7-8.2,1.1-13.4,1.1
			c-0.6,1.3-1.3,2.7-1.9,4c-0.7,1.3-1.3,2.7-2,4c-1.9,3.8-3.8,7.7-5.7,11.6c-1.9,3.9-3.6,7.6-5.1,11.1c-1.5,3.5-2.7,6.7-3.7,9.6
			c-0.9,2.9-1.4,5.2-1.4,7c0,1.6,0.5,2.4,1.6,2.4c2,0,4.1-0.8,6.3-2.3c2.3-1.5,4.6-3.5,6.9-5.9c2.3-2.4,4.6-5.1,6.9-8
			c2.3-2.9,4.3-5.8,6.2-8.5c1.9-2.8,3.4-5.3,4.8-7.5c1.3-2.2,2.3-3.9,2.8-5c0.3-0.5,0.8-0.7,1.6-0.7c0.8,0,1.6,0.2,2.4,0.5
			c0.8,0.3,1.5,0.7,2,1.2s0.7,1,0.5,1.6c-0.7,1.3-1.8,3.3-3.3,6c-1.5,2.7-3.3,5.6-5.5,8.8c-2.2,3.2-4.6,6.5-7.2,9.8
			c-2.7,3.3-5.5,6.4-8.4,9.1c-2.9,2.8-6,5-9.1,6.7c-3.1,1.7-6.2,2.6-9.3,2.6c-1.3,0-2.7-0.4-4.4-1.1c-1.6-0.7-3.2-1.7-4.7-3.1
			c-1.5-1.3-2.7-3-3.7-4.9c-1-1.9-1.5-4.2-1.5-6.7c0-1.5,0.5-3.6,1.4-6.3c0.9-2.7,2.1-5.8,3.6-9.3c1.5-3.5,3.2-7.2,5.1-11.2
			c1.9-4,3.9-8,5.8-12l2.2-4.5c-3.1-0.5-5.8-1.1-8.2-1.8c-2.4-0.7-4.4-1.4-6.1-2.2c-1.6-0.7-2.9-1.5-3.8-2.2
			c-0.9-0.7-1.3-1.3-1.3-1.7c0-0.9,0.2-1.6,0.5-2.1c0.3-0.4,0.8-0.7,1.4-0.8c0.6-0.1,1.4-0.1,2.4,0.2c1,0.2,2.2,0.4,3.6,0.7
			c1.6,0.3,3.7,0.7,6.2,1.2c2.5,0.4,5.5,0.8,8.9,1.2c2.5-5.2,4.6-9.9,6.2-13.9c1.6-4.1,2.5-6.9,2.5-8.6c0-1.1,0.7-1.5,2.1-1.4
			c1.4,0.1,3,0.6,4.7,1.5c1.7,0.9,3.3,2,4.7,3.4c1.4,1.4,2.1,2.8,2.1,4.2c0,1.5-0.5,3.6-1.4,6.3c-0.9,2.7-2.2,5.7-3.8,9.1
			c4.1-0.1,7.8-0.5,11.1-1c3.2-0.5,5.9-1.1,7.9-1.6l-0.1,0.1c2.2-0.5,4-0.8,5.2-0.7C836.6,316.5,837.3,317.2,837.3,318.5z"/>
		<path class="st0" d="M856.1,304.9c0,1.5-0.4,3.4-1.3,5.9c-0.8,2.5-2,5.2-3.3,8.3c-1.4,3.1-2.9,6.4-4.7,9.9
			c-1.8,3.6-3.6,7.1-5.5,10.8c-1.9,3.8-3.8,7.5-5.6,11.1c-1.9,3.7-3.5,7.1-5,10.3c-1.5,3.2-2.6,6-3.5,8.6c-0.9,2.5-1.3,4.5-1.3,5.9
			c0,0.5,0,0.7,0.1,0.7c1.3,0,2.8-0.7,4.6-2.2c1.8-1.5,3.7-3.4,5.6-5.7c2-2.3,3.9-4.9,6-7.7c2-2.8,3.9-5.5,5.7-8.2
			c1.7-2.7,3.3-5,4.6-7.2c1.3-2.1,2.2-3.8,2.8-4.8c0.3-0.5,0.8-0.8,1.6-0.9c0.8,0,1.6,0.1,2.4,0.4c0.8,0.3,1.5,0.7,2,1.3
			c0.5,0.5,0.7,1.1,0.5,1.6c-0.7,1.3-1.8,3.3-3.4,6c-1.5,2.7-3.4,5.6-5.5,8.7c-2.1,3.2-4.4,6.4-7,9.7c-2.6,3.3-5.2,6.3-7.9,9
			c-2.7,2.7-5.4,4.9-8,6.6c-2.7,1.7-5.2,2.6-7.5,2.6c-3.5,0-6.3-1.2-8.5-3.7c-2.2-2.4-3.3-5.8-3.3-9.9c0-1.5,0.5-3.7,1.5-6.5
			c1-2.9,2.3-6.2,3.9-9.9c1.6-3.7,3.4-7.6,5.3-11.8c2-4.2,3.9-8.4,6-12.5c1.9-3.8,3.7-7.6,5.5-11.3c1.7-3.7,3.3-7.1,4.7-10.2
			c1.4-3.1,2.5-5.9,3.4-8.2c0.8-2.3,1.3-4.1,1.3-5.1c0-1.1,0.7-1.5,2.2-1.3c1.5,0.2,3.1,0.8,4.9,1.8c1.8,1,3.4,2.2,4.9,3.7
			C855.4,302.1,856.1,303.5,856.1,304.9z"/>
		<path class="st0" d="M905,340c0.3-0.5,0.8-0.8,1.6-0.8c0.8,0,1.6,0.2,2.4,0.5c0.8,0.3,1.4,0.7,1.9,1.3c0.5,0.5,0.7,1.1,0.5,1.6
			c-0.7,1.3-1.8,3.3-3.2,6c-1.4,2.7-3.2,5.6-5.3,8.8c-2.1,3.2-4.6,6.5-7.3,9.8c-2.7,3.4-5.7,6.4-9,9.2c-3.3,2.8-6.8,5-10.6,6.7
			c-3.8,1.7-7.7,2.6-11.8,2.6c-3.5,0-6.5-0.7-9-2.1c-2.5-1.4-4.6-3.2-6.3-5.3c-1.7-2.1-2.9-4.5-3.7-7c-0.8-2.6-1.2-5-1.2-7.3
			c0-4.7,1.2-9.3,3.6-13.9c2.4-4.6,5.5-8.7,9.4-12.3c3.9-3.6,8.2-6.6,13.1-8.8c4.9-2.2,9.8-3.4,14.8-3.4c3.3,0,5.6,0.7,7.1,2.1
			c1.4,1.4,2.1,3.3,2.1,5.6c0,1.7-0.5,3.7-1.4,6c-0.9,2.2-2.2,4.6-3.8,7c-1.6,2.4-3.5,4.8-5.6,7.1c-2.1,2.4-4.3,4.5-6.7,6.4
			c-2.3,1.9-4.7,3.6-7.2,5c-2.4,1.4-4.8,2.3-7,2.8c-0.3,1.3-0.4,2.6-0.4,3.8c0,1.5,0.3,2.8,0.8,3.8c0.6,1,1.5,1.5,2.8,1.5
			c3.1,0,6.1-0.8,9.1-2.3c3-1.5,5.9-3.4,8.6-5.8c2.7-2.3,5.3-4.9,7.7-7.8c2.4-2.9,4.6-5.6,6.4-8.4c1.9-2.7,3.5-5.2,4.8-7.3
			C903.5,342.7,904.4,341.1,905,340z M886.1,332.5c-1.7,0-3.5,0.8-5.5,2.4c-2,1.6-3.9,3.6-5.9,6.1c-1.9,2.5-3.7,5.4-5.5,8.5
			c-1.7,3.2-3.2,6.3-4.4,9.4c2.5-1.2,5.1-3,7.7-5.2c2.6-2.3,4.9-4.7,7-7.2c2.1-2.6,3.8-5,5.1-7.5c1.3-2.4,1.9-4.4,1.9-5.8
			C886.6,332.7,886.5,332.5,886.1,332.5z"/>
	</g>
</g>
</svg>
