<svg xmlns="http://www.w3.org/2000/svg" width="25.12" height="36.759" viewBox="0 0 25.12 36.759"><defs><style>.a{fill:#ff8e43;}</style></defs><g transform="translate(0)"><path class="a" d="M77.21,32.1,72.322,19.317l3.723-1.774a.865.865,0,0,0,.582-1.165l-1.553-4.27,1.553-4.27c.194-.388-.194-.971-.582-1.165L71.969,4.732,70.028.656A.865.865,0,0,0,68.863.073l-4.27,1.553L60.322.073c-.388-.194-.971.194-1.165.582L57.217,4.732,53.14,6.673a.865.865,0,0,0-.582,1.165l1.553,4.27-1.553,4.27c-.194.388.194.971.582,1.165l3.669,1.747L52.17,31.907a1.455,1.455,0,0,0,.194.971c.194.388.582.388.971.388l4.659-.776L60.9,36.177a1.008,1.008,0,0,0,.776.388h.194c.388,0,.582-.194.776-.582l1.966-5.346,2.11,5.54c.194.388.388.582.776.582H67.7a1.008,1.008,0,0,0,.776-.388l2.912-3.688,4.659.776a1.483,1.483,0,0,0,.971-.388.853.853,0,0,0,.194-.971ZM54.888,8.032l3.688-1.747a.417.417,0,0,0,.388-.388l1.747-3.688L64.4,3.567h.582l3.688-1.359L70.416,5.9a.417.417,0,0,0,.388.388l3.688,1.747L73.133,11.72V12.3l1.359,3.688L70.8,17.737a.417.417,0,0,0-.388.388l-1.747,3.688-3.688-1.359H64.4l-3.688,1.359-1.747-3.688a.417.417,0,0,0-.388-.388L54.888,15.99,56.246,12.3V11.72Zm6.6,25.816-2.329-2.912c-.194-.388-.582-.388-.971-.388L54.5,31.13l3.595-9.8,1.064,2.234a.865.865,0,0,0,1.165.582l4.27-1.553.9.328-4.008,10.93ZM71,30.354a1.483,1.483,0,0,0-.971.388L67.7,33.654l-2.083-5.73,1.609-4.377,1.638.6h.388a1.04,1.04,0,0,0,.776-.582l1.1-2.318,3.554,9.694Z" transform="translate(-52.17 -0.001)"/></g></svg>