<svg xmlns="http://www.w3.org/2000/svg" xmlns:xlink="http://www.w3.org/1999/xlink" width="600.492" height="449.393" viewBox="0 0 600.492 449.393">
  <defs>
    <clipPath id="clip-path">
      <path id="Path_4912" data-name="Path 4912" d="M753.046,322.16l-2.029-45.914,33.377-14.559,2.029,45.914Z" transform="translate(-751.017 -261.687)" fill="none"/>
    </clipPath>
    <clipPath id="clip-path-2">
      <path id="Path_4914" data-name="Path 4914" d="M812.974,270.354l-1.193-26.991L831.4,234.8l1.193,26.991Z" transform="translate(-811.781 -234.803)" fill="none"/>
    </clipPath>
    <clipPath id="clip-path-3">
      <path id="Path_4916" data-name="Path 4916" d="M699.923,352.931l-1.194-27.014,19.645-8.569,1.194,27.014Z" transform="translate(-698.729 -317.347)" fill="none"/>
    </clipPath>
  </defs>
  <g id="Group_1785" data-name="Group 1785" transform="translate(-1134.916 -444.703)">
    <ellipse id="Ellipse_536" data-name="Ellipse 536" cx="171.246" cy="95.696" rx="171.246" ry="95.696" transform="translate(1263.916 573.703)" fill="#d8b587" opacity="0.4"/>
    <g id="Group_1783" data-name="Group 1783" transform="translate(1263 527)">
      <path id="Path_4903" data-name="Path 4903" d="M815.9,187.22l-158.183,71.7-158.183-71.7,158.183-60.914Z" transform="translate(-484.889 -126.307)" fill="#a4a4a4"/>
      <path id="Path_4904" data-name="Path 4904" d="M665.578,209.321l82.509,30.7-79.643,30.437-75.611-32.386Z" transform="translate(-492.748 -133.3)" fill="#666"/>
      <path id="Path_4905" data-name="Path 4905" d="M657.719,262.731v86.3a6.669,6.669,0,0,1-9.347,6.1L502.907,291.5a5.621,5.621,0,0,1-3.372-5.149V192.558Z" transform="translate(-484.889 -131.888)" fill="#d0d0d0"/>
      <path id="Path_4906" data-name="Path 4906" d="M672.271,262.731v86.3a6.668,6.668,0,0,0,9.346,6.1l144.016-63a8.038,8.038,0,0,0,4.821-7.363V192.558Z" transform="translate(-499.441 -131.888)" fill="#f6f6f6"/>
      <path id="Path_4907" data-name="Path 4907" d="M830.454,192.292,845.1,210.323,689.846,292.191l-17.576-29.726Z" transform="translate(-499.441 -131.865)" fill="#d8b587"/>
      <path id="Path_4908" data-name="Path 4908" d="M657.718,126.307v76.021l-79.092,30.7L499.535,187.22Z" transform="translate(-484.889 -126.307)" fill="#838383"/>
      <path id="Path_4909" data-name="Path 4909" d="M498.188,192.824l-14.647,18.031,157.207,77.482,15.623-25.827Z" transform="translate(-483.541 -131.91)" fill="#937855"/>
      <path id="Path_4910" data-name="Path 4910" d="M659.162,366.9s11.842,7.176,24.373,0l-12.368-20.82Z" transform="translate(-498.336 -144.821)" fill="#b99c70"/>
      <g id="Group_1745" data-name="Group 1745" transform="translate(244.942 123.976)">
        <g id="Group_1744" data-name="Group 1744">
          <g id="Group_1743" data-name="Group 1743">
            <g id="Group_1742" data-name="Group 1742" clip-path="url(#clip-path)">
              <g id="Group_1741" data-name="Group 1741" transform="translate(0.057 0.021)">
                <g id="Group_1740" data-name="Group 1740">
                  <g id="Group_1739" data-name="Group 1739">
                    <g id="Group_1738" data-name="Group 1738">
                      <path id="Path_4911" data-name="Path 4911" d="M784.2,261.779l-.116.058-7.863,3.43-.116.042a1.917,1.917,0,0,1-.181.1l-.02.04c.024.553.043,1.109.068,1.67l.019.43c.02.085.047.168.061.255.078.351.246.465.522.344a1.58,1.58,0,0,1,1.474-.031.886.886,0,0,1,.459.716.988.988,0,0,1-.007.34c-.135.741-.277,1.484-.431,2.217-.213,1.026-.427,2.05-.657,3.068q-1.218,5.467-2.444,10.921c-.5,2.223-1.014,4.437-1.518,6.655q-1.083,4.725-2.159,9.457c-.075.338-.15.677-.231,1.017l-.062.238a.309.309,0,0,1-.122.179c-.037.016-.074,0-.109-.047a3.592,3.592,0,0,1-.445-.651c-.341-.69-.664-1.387-.982-2.094-.442-.966-.874-1.938-1.305-2.909l-.013-.158q.827-4.227,1.664-8.45c.57-2.912,1.149-5.829,1.826-8.724.167-.7.366-1.4.532-2.1a3.882,3.882,0,0,1,1.1-1.966A9.939,9.939,0,0,1,774.5,274.7c.229-.163.455-.379.678-.571a.5.5,0,0,0,.177-.461l.021-.158.012-.123c.05-.375.1-.755.141-1.135l.014-.076c.025-.2.045-.388.068-.617l-.148.065-10.038,4.378c-.105.046-.154.091-.169.269-.057.738-.136,1.485-.205,2.228-.026.3.009.333.192.409a6.369,6.369,0,0,1,.907.411,1,1,0,0,1,.434.908l0,.07c-.024.347-.026.692-.077,1.044-.215,1.386-.429,2.78-.678,4.165-.2,1.1-.449,2.186-.688,3.277a6.009,6.009,0,0,1-.2.649c-.019.068-.041.106-.066.117s-.049-.007-.077-.054c-.147-.273-.31-.531-.448-.823q-1.352-2.889-2.693-5.8c-.366-.8-.723-1.6-1.08-2.4l-.032-.088-.013-.034c-.287-.635-.58-1.274-.866-1.917l-.082-.184c-.15-.349-.167-.2.062-.623.245-.459.517-.9.738-1.379a4.335,4.335,0,0,0,.433-2.179c-.016-.235-.021-.484-.032-.73-.062,0-.106.015-.151.018l-.171.075-9.215,4.019-.177.078.076,1.736.018.016c.078.616.433.648.815.615l.13.014.049-.014a3.338,3.338,0,0,1,.628.071,6.073,6.073,0,0,1,.816.373,2.5,2.5,0,0,1,.869,1.086c1.039,1.857,1.993,3.823,2.914,5.826,1.213,2.627,2.395,5.285,3.592,7.935.625,1.388,1.243,2.779,1.873,4.165a.6.6,0,0,1,.029.41c-.172.827-.344,1.647-.516,2.481-.3,1.479-.583,2.965-.9,4.451-.433,2.038-.884,4.074-1.334,6.112a7.825,7.825,0,0,1-1.867,3.6,9.322,9.322,0,0,1-2.024,1.7c-.389.248-.773.471-1.156.731a2.446,2.446,0,0,0-.965,1.448c-.147.5-.288,1.011-.429,1.518l.008.067c.061-.027.127-.048.194-.076L782.42,309.35l.132-.06a.563.563,0,0,1,.067-.026l.017-.006c.06-.027.089-.079.115-.177.124-.508.247-1.017.382-1.538.182-.723.375-1.449.557-2.178.158-.625.294-1.249.446-1.879.229-.93.463-1.871.692-2.8.086-.342.184-.683.265-1.024s.16-.7.24-1.06c.127-.549.261-1.1.388-1.65.057-.244.119-.483.165-.73l-.052-.165-.158-.017c-.318.133-.635.259-.95.4-.074.032-.147.065-.222.1a1.557,1.557,0,0,0-.606.679,11.382,11.382,0,0,0-.661,1.714c-.318.953-.607,1.918-.984,2.842-.274.683-.565,1.343-.868,2-.088.179-.192.351-.287.525-.249.469-.481.962-.754,1.4-.358.563-.745,1.092-1.133,1.614a3.879,3.879,0,0,1-.976.974c-.432.282-.871.528-1.317.762-.353.178-.705.339-1.057.532-.28.161-.562.277-.843.407-.584.271-1.169.541-1.754.8-.2.1-.4.184-.6.271l-.027.012c-.233.107-.464.22-.7.321l-.165.07c-.784.342-1.573.686-2.364,1.016-.829.354-1.658.691-2.487,1.038-.3.125-.6.239-.9.354-.35.105-.7.229-1.056.3-.278.06-.245.038-.178-.337q.508-3.007,1.18-6.015c.051-.241.12-.475.191-.757a1.452,1.452,0,0,1,.173.223c.3.55.6,1.1.885,1.667.3.607.578,1.229.869,1.845l.133.076q.6-.257,1.191-.516l2.375-1.039.021-.04c.118-.514.242-1.03.359-1.544.261-1.116.515-2.237.769-3.352.118-.514.231-1.025.343-1.536.2-.88.412-1.762.609-2.639.09-.4.167-.8.263-1.2.071-.321.163-.643.234-.963s.133-.669.208-1.007c.207-.929.419-1.852.626-2.772.174-.766.343-1.521.518-2.278.193-.86.4-1.709.6-2.571.166-.723.319-1.448.484-2.169.1-.445.22-.887.318-1.33.127-.565.243-1.132.37-1.7.147-.628.31-1.264.451-1.9.151-.654.285-1.315.43-1.966.1-.461.224-.913.334-1.368.146-.643.28-1.289.427-1.925.084-.382.191-.765.281-1.141.16-.7.316-1.4.482-2.106.051-.233.131-.464.189-.7.047-.2.071-.408.125-.618.288-1.114.571-2.223.871-3.342a9.038,9.038,0,0,1,.313-.935,8.835,8.835,0,0,1,.385-.952,5.363,5.363,0,0,1,.516-.8c.266-.328.551-.64.836-.937a3.072,3.072,0,0,1,.9-.651.762.762,0,0,0,.368-.592,5.694,5.694,0,0,0,.057-.871c-.007-.545-.042-1.086-.067-1.631l-.015-.08a2.033,2.033,0,0,1-.193.069" transform="translate(-751.079 -261.71)" fill="#b99c70"/>
                    </g>
                  </g>
                </g>
              </g>
            </g>
          </g>
        </g>
      </g>
      <g id="Group_1753" data-name="Group 1753" transform="translate(300.588 99.356)">
        <g id="Group_1752" data-name="Group 1752">
          <g id="Group_1751" data-name="Group 1751">
            <g id="Group_1750" data-name="Group 1750" clip-path="url(#clip-path-2)">
              <g id="Group_1749" data-name="Group 1749" transform="translate(0.033 0.018)">
                <g id="Group_1748" data-name="Group 1748">
                  <g id="Group_1747" data-name="Group 1747">
                    <g id="Group_1746" data-name="Group 1746">
                      <path id="Path_4913" data-name="Path 4913" d="M831.286,234.858l-.066.037-4.626,2.018-.067.021-.1.054-.01.02c.008.332.023.663.032.988.009.082.013.167.016.251l.035.15c.043.208.142.275.308.2a.932.932,0,0,1,.865-.017.521.521,0,0,1,.272.422l-.008.2c-.081.436-.164.871-.252,1.309-.125.6-.251,1.2-.387,1.8q-.71,3.213-1.432,6.422c-.3,1.3-.6,2.611-.9,3.916-.425,1.854-.843,3.705-1.268,5.551-.048.2-.09.4-.137.6l-.039.143a.175.175,0,0,1-.071.105c-.02.008-.041,0-.06-.025a2.3,2.3,0,0,1-.265-.386q-.3-.61-.577-1.228-.385-.854-.763-1.712l-.01-.1q.49-2.482.974-4.961c.341-1.715.676-3.429,1.079-5.132.094-.409.217-.823.311-1.233a2.306,2.306,0,0,1,.641-1.157,6.148,6.148,0,0,1,.81-.658c.136-.1.266-.226.4-.337a.3.3,0,0,0,.106-.274l.013-.092.008-.067c.024-.222.054-.446.078-.668l.009-.051c.012-.107.029-.224.04-.354l-.088.038q-2.949,1.286-5.9,2.567c-.061.027-.088.054-.094.158-.038.44-.085.875-.122,1.315-.016.17,0,.194.112.241a3.281,3.281,0,0,1,.534.237.6.6,0,0,1,.255.538l0,.038c-.014.2-.016.407-.047.615-.126.816-.248,1.628-.4,2.446-.117.647-.264,1.282-.4,1.931-.028.129-.073.251-.113.378l-.083.036c-.092-.164-.188-.31-.263-.481-.535-1.137-1.063-2.27-1.586-3.413-.218-.469-.424-.942-.636-1.414l-.019-.054-.006-.014c-.169-.373-.337-.754-.512-1.132l-.044-.106c-.088-.2-.1-.113.035-.367s.3-.524.437-.81a2.539,2.539,0,0,0,.253-1.277c-.012-.144-.012-.285-.018-.43l-.09.008-.1.05-5.422,2.365-.1.043.045,1.015.012.011c.044.364.253.383.477.364l.074.006.033-.006a1.615,1.615,0,0,1,.368.043,3.659,3.659,0,0,1,.482.213,1.525,1.525,0,0,1,.506.64c.612,1.1,1.175,2.253,1.716,3.427.711,1.547,1.409,3.106,2.109,4.666.368.819.736,1.629,1.1,2.448a.362.362,0,0,1,.016.244c-.1.484-.205.967-.3,1.455-.18.871-.344,1.749-.531,2.622-.256,1.2-.518,2.4-.787,3.593a4.549,4.549,0,0,1-1.094,2.107,5.631,5.631,0,0,1-1.194,1.006c-.224.137-.454.277-.679.421a1.455,1.455,0,0,0-.564.857c-.089.3-.171.592-.254.886l.007.044.111-.049,16.768-7.314.116-.051.08-.105c.071-.3.147-.6.224-.9.105-.421.222-.848.326-1.277.091-.369.176-.735.261-1.1.138-.554.272-1.1.411-1.652.048-.2.106-.4.153-.6s.094-.418.142-.626l.227-.968c.033-.14.071-.29.1-.428l-.032-.1-.1-.006c-.16.064-.323.13-.485.2-.067.029-.134.06-.2.091a.9.9,0,0,0-.36.4,6.865,6.865,0,0,0-.388,1.007c-.184.559-.355,1.126-.579,1.671-.158.4-.332.787-.511,1.17-.047.106-.109.212-.167.315-.146.276-.279.56-.442.82-.21.335-.439.646-.667.957a2.189,2.189,0,0,1-.571.563c-.257.167-.516.31-.774.447-.209.114-.413.2-.622.318-.165.1-.331.16-.5.24l-1.031.473c-.122.053-.237.1-.353.162l-.017.007c-.171.074-.336.155-.507.229-.464.2-.922.395-1.386.6-.492.207-.978.4-1.464.607l-.531.209c-.206.058-.411.132-.623.178-.161.038-.139.021-.1-.2.2-1.184.436-2.36.7-3.54.028-.137.067-.279.111-.44l.1.128c.178.322.355.645.522.979.173.355.342.721.509,1.086l.081.043,2.093-.913.016-.022c.07-.306.142-.611.207-.913.157-.657.308-1.31.453-1.969.071-.3.136-.6.2-.9.118-.514.241-1.038.359-1.551.051-.234.1-.466.155-.7.042-.19.1-.378.138-.57s.078-.394.12-.592c.123-.539.245-1.086.373-1.627.1-.451.2-.893.3-1.338.113-.5.236-1.012.35-1.508.1-.427.187-.857.287-1.284.056-.259.129-.518.185-.778.075-.33.145-.666.22-1,.085-.374.181-.753.266-1.119.083-.389.162-.776.253-1.159.055-.267.128-.534.19-.8.09-.376.168-.756.254-1.129.052-.226.115-.45.167-.676.1-.409.184-.816.277-1.234.034-.132.084-.271.117-.411.028-.122.04-.245.074-.362.168-.66.336-1.313.509-1.969.049-.185.119-.365.184-.55a5.457,5.457,0,0,1,.229-.554,2.794,2.794,0,0,1,.3-.468c.159-.2.327-.377.494-.552a1.792,1.792,0,0,1,.528-.387.43.43,0,0,0,.215-.344,3.146,3.146,0,0,0,.034-.508c0-.328-.023-.648-.037-.963l-.007-.043-.117.035" transform="translate(-811.818 -234.823)" fill="#b99c70"/>
                    </g>
                  </g>
                </g>
              </g>
            </g>
          </g>
        </g>
      </g>
      <g id="Group_1761" data-name="Group 1761" transform="translate(197.059 174.946)">
        <g id="Group_1760" data-name="Group 1760">
          <g id="Group_1759" data-name="Group 1759">
            <g id="Group_1758" data-name="Group 1758" clip-path="url(#clip-path-3)">
              <g id="Group_1757" data-name="Group 1757" transform="translate(0.033 0.01)">
                <g id="Group_1756" data-name="Group 1756">
                  <g id="Group_1755" data-name="Group 1755">
                    <g id="Group_1754" data-name="Group 1754">
                      <path id="Path_4915" data-name="Path 4915" d="M718.256,317.4l-.071.038-4.627,2.018-.067.021-.11.056-.01.021c.015.33.028.653.038.985.009.082.014.167.017.252l.035.149c.043.208.141.275.307.2a.934.934,0,0,1,.866-.017.527.527,0,0,1,.272.422l0,.2c-.082.435-.169.873-.257,1.31-.125.6-.251,1.206-.387,1.807-.473,2.141-.953,4.277-1.439,6.424-.291,1.3-.593,2.609-.89,3.914q-.637,2.78-1.274,5.569c-.042.2-.089.4-.131.6l-.038.142a.183.183,0,0,1-.073.1c-.021.009-.043,0-.064-.024a1.958,1.958,0,0,1-.265-.386c-.2-.4-.386-.819-.578-1.228q-.385-.856-.763-1.712l-.009-.1q.489-2.482.979-4.971c.335-1.713.676-3.429,1.078-5.139.1-.409.213-.813.307-1.223a2.341,2.341,0,0,1,.646-1.168,6.091,6.091,0,0,1,.8-.656c.136-.1.266-.218.4-.332a.3.3,0,0,0,.1-.271l.013-.1.008-.067c.029-.224.059-.449.082-.67l.01-.043c.011-.115.023-.23.04-.363l-.089.038-5.908,2.577c-.061.027-.089.047-.1.151-.037.44-.085.875-.122,1.314-.02.181,0,.2.112.242a3.183,3.183,0,0,1,.535.245.589.589,0,0,1,.254.531l0,.047c-.013.2-.016.407-.046.607-.127.823-.249,1.636-.4,2.453-.117.647-.264,1.283-.4,1.931-.028.13-.073.251-.113.378l-.089.038c-.086-.166-.182-.312-.263-.481q-.794-1.71-1.586-3.413l-.636-1.414-.014-.057-.006-.021c-.174-.37-.343-.751-.512-1.124l-.049-.112c-.088-.2-.1-.113.034-.367s.31-.527.437-.81a2.553,2.553,0,0,0,.253-1.286l-.018-.422-.09.007-.1.043-5.422,2.365-.105.046.046,1.022.011.011c.05.362.254.383.478.364l.079,0,.028,0a1.816,1.816,0,0,1,.373.041,2.529,2.529,0,0,1,.477.223,1.468,1.468,0,0,1,.512.631c.611,1.1,1.174,2.253,1.716,3.434.71,1.547,1.409,3.106,2.114,4.663.368.819.731,1.64,1.1,2.459a.366.366,0,0,1,.021.234c-.1.491-.2.974-.307,1.465-.175.867-.344,1.748-.531,2.621-.251,1.2-.518,2.4-.787,3.594A4.58,4.58,0,0,1,703,349.546a5.4,5.4,0,0,1-1.194,1c-.224.145-.455.277-.68.43a1.492,1.492,0,0,0-.57.852c-.082.3-.165.6-.248.892l0,.046.116-.05,16.786-7.322.11-.048.08-.105c.071-.3.148-.605.224-.9.111-.425.222-.849.332-1.281.091-.368.169-.74.26-1.108.134-.544.273-1.1.406-1.642.053-.2.112-.409.159-.61s.089-.415.141-.625q.114-.485.227-.969c.033-.14.067-.279.094-.425l-.027-.105-.1-.005c-.164.066-.325.131-.488.2-.067.029-.135.06-.2.092a.878.878,0,0,0-.353.4,6.318,6.318,0,0,0-.389,1.008c-.189.568-.361,1.129-.579,1.678-.162.4-.331.788-.511,1.171-.051.109-.114.207-.172.31-.145.276-.278.569-.441.828-.211.334-.439.646-.668.949a2.345,2.345,0,0,1-.571.571c-.256.167-.515.311-.774.447-.209.107-.419.2-.622.319-.165.088-.331.159-.5.24l-1.038.475-.353.155-.017.007c-.165.08-.336.162-.5.234-.463.194-.928.4-1.392.592-.485.212-.978.41-1.464.607-.177.077-.353.147-.531.216-.205.059-.416.135-.622.178-.162.031-.14.021-.1-.2.2-1.184.435-2.367.693-3.545.033-.14.072-.275.115-.442l.1.128c.178.322.355.652.522.986.174.355.342.721.509,1.079l.081.05,2.1-.915.01-.028c.071-.3.142-.6.213-.908.151-.654.3-1.315.453-1.968.071-.3.131-.605.2-.91.118-.514.242-1.03.359-1.551.052-.234.1-.466.149-.7.042-.19.1-.379.144-.572s.078-.394.12-.592c.123-.539.245-1.086.367-1.633.1-.445.2-.887.307-1.34.113-.5.231-1,.35-1.508.1-.427.187-.849.287-1.277.056-.259.123-.524.185-.786.075-.331.145-.667.22-1,.085-.374.176-.742.26-1.115.09-.392.169-.778.258-1.163.061-.269.129-.534.19-.8.091-.376.169-.755.254-1.136.053-.219.116-.442.168-.668.094-.409.183-.824.283-1.236.034-.14.078-.277.112-.417.028-.114.046-.239.074-.361.168-.653.335-1.314.509-1.97.053-.188.119-.365.184-.55a5.337,5.337,0,0,1,.229-.554,2.662,2.662,0,0,1,.3-.47c.155-.193.321-.375.488-.549a1.812,1.812,0,0,1,.535-.39.434.434,0,0,0,.215-.344,4.049,4.049,0,0,0,.034-.508c0-.328-.023-.648-.037-.963l-.008-.051-.116.043" transform="translate(-698.765 -317.358)" fill="#b99c70"/>
                    </g>
                  </g>
                </g>
              </g>
            </g>
          </g>
        </g>
      </g>
    </g>
  </g>
</svg>
