<svg xmlns="http://www.w3.org/2000/svg" width="34.014" height="27.387" viewBox="0 0 34.014 27.387"><defs><style>.a{fill:#ff8e43;}</style></defs><path class="a" d="M33.921,57.677l-3.132-5.9a.8.8,0,0,0-.492-.394h0L17.247,47.86a.8.8,0,0,0-.414,0L3.722,51.381h0a.8.8,0,0,0-.493.395l-3.131,5.9A.8.8,0,0,0,.456,58.77l2.725,1.288v8.06a.8.8,0,0,0,.45.717l13.062,6.3a.791.791,0,0,0,.687,0h0l13.062-6.3a.8.8,0,0,0,.45-.717V60.059c0-.01,0-.021,0-.031l2.661-1.258a.8.8,0,0,0,.363-1.094ZM17.039,49.454,27.471,52.27,17.007,56.148,6.548,52.272ZM4.305,53.139l11.631,4.31-2.562,5.665L1.892,57.687Zm.469,14.479V60.812l8.652,4.09a.8.8,0,0,0,1.066-.392l1.751-3.872V73.153Zm24.531,0L17.836,73.153V60.782l1.686,3.727a.8.8,0,0,0,1.066.392l8.717-4.121Zm-8.665-4.5L18.078,57.45l11.631-4.31,2.413,4.547Z" transform="translate(0 -47.832)"/></svg>