<svg xmlns="http://www.w3.org/2000/svg" width="31.409" height="39.997" viewBox="0 0 31.409 39.997"><defs><style>.a{fill:#ff8e43;}</style></defs><path class="a" d="M31.629,17.476,29.681,14.15s-.082-.115-.082-.115a.778.778,0,0,0-.316-.221l-10.161-3.4V8.035h1.284a.782.782,0,0,0,.655-1.207L16.86.356a.781.781,0,0,0-1.311,0l-4.2,6.473A.781.781,0,0,0,12,8.035h1.284v2.378L3.106,13.822a.777.777,0,0,0-.38.33L.78,17.476A2.045,2.045,0,0,0,1.79,20.41l.83.33V33.392a2.256,2.256,0,0,0,1.456,2.1l11.854,4.453a.779.779,0,0,0,.55,0l11.854-4.453a2.256,2.256,0,0,0,1.456-2.1V20.74l.83-.33a2.045,2.045,0,0,0,1.01-2.934ZM16.2,2.216l2.763,4.257h-.627a.781.781,0,0,0-.781.781v6.885H14.849V7.254a.781.781,0,0,0-.781-.781h-.627ZM14.067,15.7h4.273a.781.781,0,0,0,.781-.781V12.061L26.7,14.6,16.2,18.642,5.708,14.6l7.578-2.536V14.92a.781.781,0,0,0,.781.781ZM2.089,18.667a.478.478,0,0,1,.04-.4L3.74,15.513l11.275,4.345L13.063,22.8a.486.486,0,0,1-.581.182L2.367,18.958a.477.477,0,0,1-.278-.291ZM28.226,33.392a.686.686,0,0,1-.443.639l-10.8,4.056V34.226a.781.781,0,0,0-1.562,0v3.862l-10.8-4.056a.686.686,0,0,1-.443-.639V21.361l7.723,3.068a2.023,2.023,0,0,0,.749.143,2.055,2.055,0,0,0,1.71-.912l1.059-1.594V27.16a.781.781,0,1,0,1.562,0V22.066l1.059,1.594a2.055,2.055,0,0,0,1.71.912,2.024,2.024,0,0,0,.749-.143l7.723-3.068ZM30.32,18.667a.477.477,0,0,1-.278.291L19.926,22.977a.486.486,0,0,1-.581-.182l-1.952-2.938,11.275-4.345,1.612,2.752a.478.478,0,0,1,.04.4Zm0,0" transform="translate(-0.5 0)"/><path class="a" d="M192.324,384.3a.781.781,0,1,1,.77-.654A.789.789,0,0,1,192.324,384.3Zm0,0" transform="translate(-176.619 -352.842)"/></svg>